<mxfile host="Electron" modified="2023-08-11T19:45:06.210Z" agent="Mozilla/5.0 (Windows NT 10.0; Win64; x64) AppleWebKit/537.36 (KHTML, like Gecko) draw.io/21.6.8 Chrome/114.0.5735.289 Electron/25.5.0 Safari/537.36" etag="J9H3Pnu14oQjP6tjyNs7" version="21.6.8" type="device">
  <diagram name="Event+" id="-aRjGx3SiEAD_jgHSfyp">
    <mxGraphModel dx="1727" dy="1023" grid="1" gridSize="10" guides="1" tooltips="1" connect="1" arrows="1" fold="1" page="0" pageScale="1" pageWidth="827" pageHeight="1169" math="0" shadow="0">
      <root>
        <mxCell id="0" />
        <mxCell id="1" parent="0" />
        <mxCell id="dMKIddMupNXmEjf5BekO-14" style="edgeStyle=orthogonalEdgeStyle;rounded=0;orthogonalLoop=1;jettySize=auto;html=1;exitX=0.5;exitY=1;exitDx=0;exitDy=0;entryX=0.5;entryY=0;entryDx=0;entryDy=0;endArrow=none;endFill=0;" parent="1" source="dMKIddMupNXmEjf5BekO-1" target="dMKIddMupNXmEjf5BekO-11" edge="1">
          <mxGeometry relative="1" as="geometry" />
        </mxCell>
        <mxCell id="dMKIddMupNXmEjf5BekO-28" style="edgeStyle=orthogonalEdgeStyle;rounded=0;orthogonalLoop=1;jettySize=auto;html=1;exitX=1;exitY=0.5;exitDx=0;exitDy=0;endArrow=none;endFill=0;" parent="1" source="dMKIddMupNXmEjf5BekO-1" target="dMKIddMupNXmEjf5BekO-26" edge="1">
          <mxGeometry relative="1" as="geometry" />
        </mxCell>
        <mxCell id="dMKIddMupNXmEjf5BekO-1" value="Usuario" style="rounded=0;whiteSpace=wrap;html=1;" parent="1" vertex="1">
          <mxGeometry x="350" y="90" width="120" height="60" as="geometry" />
        </mxCell>
        <mxCell id="dMKIddMupNXmEjf5BekO-9" style="edgeStyle=orthogonalEdgeStyle;rounded=0;orthogonalLoop=1;jettySize=auto;html=1;exitX=1;exitY=0.5;exitDx=0;exitDy=0;entryX=0;entryY=0.5;entryDx=0;entryDy=0;endArrow=none;endFill=0;" parent="1" source="dMKIddMupNXmEjf5BekO-2" target="dMKIddMupNXmEjf5BekO-8" edge="1">
          <mxGeometry relative="1" as="geometry" />
        </mxCell>
        <mxCell id="dMKIddMupNXmEjf5BekO-2" value="TiposDeUsuÃ¡rio" style="rounded=0;whiteSpace=wrap;html=1;" parent="1" vertex="1">
          <mxGeometry x="20" y="90" width="120" height="60" as="geometry" />
        </mxCell>
        <mxCell id="dMKIddMupNXmEjf5BekO-22" style="edgeStyle=orthogonalEdgeStyle;rounded=0;orthogonalLoop=1;jettySize=auto;html=1;exitX=0.5;exitY=1;exitDx=0;exitDy=0;endArrow=none;endFill=0;" parent="1" source="dMKIddMupNXmEjf5BekO-3" target="dMKIddMupNXmEjf5BekO-21" edge="1">
          <mxGeometry relative="1" as="geometry" />
        </mxCell>
        <mxCell id="dMKIddMupNXmEjf5BekO-30" style="edgeStyle=orthogonalEdgeStyle;rounded=0;orthogonalLoop=1;jettySize=auto;html=1;exitX=1;exitY=0.5;exitDx=0;exitDy=0;entryX=0;entryY=0.5;entryDx=0;entryDy=0;endArrow=none;endFill=0;" parent="1" source="dMKIddMupNXmEjf5BekO-3" target="dMKIddMupNXmEjf5BekO-27" edge="1">
          <mxGeometry relative="1" as="geometry" />
        </mxCell>
        <mxCell id="dMKIddMupNXmEjf5BekO-3" value="Evento" style="rounded=0;whiteSpace=wrap;html=1;" parent="1" vertex="1">
          <mxGeometry x="350" y="540" width="120" height="60" as="geometry" />
        </mxCell>
        <mxCell id="dMKIddMupNXmEjf5BekO-24" style="edgeStyle=orthogonalEdgeStyle;rounded=0;orthogonalLoop=1;jettySize=auto;html=1;exitX=1;exitY=0.5;exitDx=0;exitDy=0;entryX=0;entryY=0.5;entryDx=0;entryDy=0;endArrow=none;endFill=0;" parent="1" source="dMKIddMupNXmEjf5BekO-4" target="dMKIddMupNXmEjf5BekO-18" edge="1">
          <mxGeometry relative="1" as="geometry" />
        </mxCell>
        <mxCell id="dMKIddMupNXmEjf5BekO-4" value="TiposDeEvento" style="rounded=0;whiteSpace=wrap;html=1;" parent="1" vertex="1">
          <mxGeometry x="10" y="540" width="120" height="60" as="geometry" />
        </mxCell>
        <mxCell id="dMKIddMupNXmEjf5BekO-16" style="edgeStyle=orthogonalEdgeStyle;rounded=0;orthogonalLoop=1;jettySize=auto;html=1;exitX=0.5;exitY=1;exitDx=0;exitDy=0;entryX=0.5;entryY=0;entryDx=0;entryDy=0;endArrow=none;endFill=0;" parent="1" source="dMKIddMupNXmEjf5BekO-5" target="dMKIddMupNXmEjf5BekO-12" edge="1">
          <mxGeometry relative="1" as="geometry" />
        </mxCell>
        <mxCell id="dMKIddMupNXmEjf5BekO-5" value="PresencasEvento" style="rounded=0;whiteSpace=wrap;html=1;" parent="1" vertex="1">
          <mxGeometry x="350" y="320" width="120" height="60" as="geometry" />
        </mxCell>
        <mxCell id="dMKIddMupNXmEjf5BekO-23" style="edgeStyle=orthogonalEdgeStyle;rounded=0;orthogonalLoop=1;jettySize=auto;html=1;exitX=0.5;exitY=0;exitDx=0;exitDy=0;entryX=0.5;entryY=1;entryDx=0;entryDy=0;endArrow=none;endFill=0;" parent="1" source="dMKIddMupNXmEjf5BekO-6" target="dMKIddMupNXmEjf5BekO-21" edge="1">
          <mxGeometry relative="1" as="geometry" />
        </mxCell>
        <mxCell id="dMKIddMupNXmEjf5BekO-6" value="Instituicao" style="rounded=0;whiteSpace=wrap;html=1;" parent="1" vertex="1">
          <mxGeometry x="350" y="780" width="120" height="60" as="geometry" />
        </mxCell>
        <mxCell id="dMKIddMupNXmEjf5BekO-7" value="Comentario" style="rounded=0;whiteSpace=wrap;html=1;" parent="1" vertex="1">
          <mxGeometry x="630" y="320" width="120" height="60" as="geometry" />
        </mxCell>
        <mxCell id="dMKIddMupNXmEjf5BekO-10" style="edgeStyle=orthogonalEdgeStyle;rounded=0;orthogonalLoop=1;jettySize=auto;html=1;exitX=1;exitY=0.5;exitDx=0;exitDy=0;entryX=0;entryY=0.5;entryDx=0;entryDy=0;endArrow=none;endFill=0;" parent="1" source="dMKIddMupNXmEjf5BekO-8" target="dMKIddMupNXmEjf5BekO-1" edge="1">
          <mxGeometry relative="1" as="geometry" />
        </mxCell>
        <mxCell id="dMKIddMupNXmEjf5BekO-8" value="Possui" style="rhombus;whiteSpace=wrap;html=1;" parent="1" vertex="1">
          <mxGeometry x="210" y="80" width="80" height="80" as="geometry" />
        </mxCell>
        <mxCell id="dMKIddMupNXmEjf5BekO-15" style="edgeStyle=orthogonalEdgeStyle;rounded=0;orthogonalLoop=1;jettySize=auto;html=1;exitX=0.5;exitY=1;exitDx=0;exitDy=0;entryX=0.5;entryY=0;entryDx=0;entryDy=0;endArrow=none;endFill=0;" parent="1" source="dMKIddMupNXmEjf5BekO-11" target="dMKIddMupNXmEjf5BekO-5" edge="1">
          <mxGeometry relative="1" as="geometry" />
        </mxCell>
        <mxCell id="dMKIddMupNXmEjf5BekO-11" value="Possui" style="rhombus;whiteSpace=wrap;html=1;" parent="1" vertex="1">
          <mxGeometry x="370" y="200" width="80" height="80" as="geometry" />
        </mxCell>
        <mxCell id="dMKIddMupNXmEjf5BekO-17" style="edgeStyle=orthogonalEdgeStyle;rounded=0;orthogonalLoop=1;jettySize=auto;html=1;exitX=0.5;exitY=1;exitDx=0;exitDy=0;entryX=0.5;entryY=0;entryDx=0;entryDy=0;endArrow=none;endFill=0;" parent="1" source="dMKIddMupNXmEjf5BekO-12" target="dMKIddMupNXmEjf5BekO-3" edge="1">
          <mxGeometry relative="1" as="geometry" />
        </mxCell>
        <mxCell id="dMKIddMupNXmEjf5BekO-12" value="Possui" style="rhombus;whiteSpace=wrap;html=1;" parent="1" vertex="1">
          <mxGeometry x="370" y="420" width="80" height="80" as="geometry" />
        </mxCell>
        <mxCell id="dMKIddMupNXmEjf5BekO-25" style="edgeStyle=orthogonalEdgeStyle;rounded=0;orthogonalLoop=1;jettySize=auto;html=1;exitX=1;exitY=0.5;exitDx=0;exitDy=0;entryX=0;entryY=0.5;entryDx=0;entryDy=0;endArrow=none;endFill=0;" parent="1" source="dMKIddMupNXmEjf5BekO-18" target="dMKIddMupNXmEjf5BekO-3" edge="1">
          <mxGeometry relative="1" as="geometry" />
        </mxCell>
        <mxCell id="dMKIddMupNXmEjf5BekO-18" value="Possui" style="rhombus;whiteSpace=wrap;html=1;" parent="1" vertex="1">
          <mxGeometry x="200" y="530" width="80" height="80" as="geometry" />
        </mxCell>
        <mxCell id="dMKIddMupNXmEjf5BekO-21" value="Possui" style="rhombus;whiteSpace=wrap;html=1;" parent="1" vertex="1">
          <mxGeometry x="370" y="650" width="80" height="80" as="geometry" />
        </mxCell>
        <mxCell id="dMKIddMupNXmEjf5BekO-29" style="edgeStyle=orthogonalEdgeStyle;rounded=0;orthogonalLoop=1;jettySize=auto;html=1;exitX=0.5;exitY=1;exitDx=0;exitDy=0;endArrow=none;endFill=0;" parent="1" source="dMKIddMupNXmEjf5BekO-26" target="dMKIddMupNXmEjf5BekO-7" edge="1">
          <mxGeometry relative="1" as="geometry" />
        </mxCell>
        <mxCell id="dMKIddMupNXmEjf5BekO-26" value="Possui" style="rhombus;whiteSpace=wrap;html=1;" parent="1" vertex="1">
          <mxGeometry x="650" y="80" width="80" height="80" as="geometry" />
        </mxCell>
        <mxCell id="dMKIddMupNXmEjf5BekO-31" style="edgeStyle=orthogonalEdgeStyle;rounded=0;orthogonalLoop=1;jettySize=auto;html=1;exitX=0.5;exitY=0;exitDx=0;exitDy=0;entryX=0.5;entryY=1;entryDx=0;entryDy=0;endArrow=none;endFill=0;" parent="1" source="dMKIddMupNXmEjf5BekO-27" target="dMKIddMupNXmEjf5BekO-7" edge="1">
          <mxGeometry relative="1" as="geometry" />
        </mxCell>
        <mxCell id="dMKIddMupNXmEjf5BekO-27" value="Possui" style="rhombus;whiteSpace=wrap;html=1;" parent="1" vertex="1">
          <mxGeometry x="650" y="530" width="80" height="80" as="geometry" />
        </mxCell>
        <mxCell id="dMKIddMupNXmEjf5BekO-32" value="N" style="text;html=1;align=center;verticalAlign=middle;resizable=0;points=[];autosize=1;strokeColor=none;fillColor=none;" parent="1" vertex="1">
          <mxGeometry x="320" y="120" width="30" height="30" as="geometry" />
        </mxCell>
        <mxCell id="dMKIddMupNXmEjf5BekO-33" value="1" style="text;html=1;align=center;verticalAlign=middle;resizable=0;points=[];autosize=1;strokeColor=none;fillColor=none;" parent="1" vertex="1">
          <mxGeometry x="140" y="120" width="30" height="30" as="geometry" />
        </mxCell>
        <mxCell id="dMKIddMupNXmEjf5BekO-34" value="N" style="text;html=1;align=center;verticalAlign=middle;resizable=0;points=[];autosize=1;strokeColor=none;fillColor=none;" parent="1" vertex="1">
          <mxGeometry x="410" y="290" width="30" height="30" as="geometry" />
        </mxCell>
        <mxCell id="dMKIddMupNXmEjf5BekO-35" value="1" style="text;html=1;align=center;verticalAlign=middle;resizable=0;points=[];autosize=1;strokeColor=none;fillColor=none;" parent="1" vertex="1">
          <mxGeometry x="410" y="150" width="30" height="30" as="geometry" />
        </mxCell>
        <mxCell id="dMKIddMupNXmEjf5BekO-36" value="N" style="text;html=1;align=center;verticalAlign=middle;resizable=0;points=[];autosize=1;strokeColor=none;fillColor=none;" parent="1" vertex="1">
          <mxGeometry x="380" y="380" width="30" height="30" as="geometry" />
        </mxCell>
        <mxCell id="dMKIddMupNXmEjf5BekO-37" value="1" style="text;html=1;align=center;verticalAlign=middle;resizable=0;points=[];autosize=1;strokeColor=none;fillColor=none;" parent="1" vertex="1">
          <mxGeometry x="380" y="510" width="30" height="30" as="geometry" />
        </mxCell>
        <mxCell id="dMKIddMupNXmEjf5BekO-38" value="1" style="text;html=1;align=center;verticalAlign=middle;resizable=0;points=[];autosize=1;strokeColor=none;fillColor=none;" parent="1" vertex="1">
          <mxGeometry x="130" y="570" width="30" height="30" as="geometry" />
        </mxCell>
        <mxCell id="dMKIddMupNXmEjf5BekO-39" value="N" style="text;html=1;align=center;verticalAlign=middle;resizable=0;points=[];autosize=1;strokeColor=none;fillColor=none;" parent="1" vertex="1">
          <mxGeometry x="320" y="570" width="30" height="30" as="geometry" />
        </mxCell>
        <mxCell id="dMKIddMupNXmEjf5BekO-41" value="1" style="text;html=1;align=center;verticalAlign=middle;resizable=0;points=[];autosize=1;strokeColor=none;fillColor=none;" parent="1" vertex="1">
          <mxGeometry x="470" y="540" width="30" height="30" as="geometry" />
        </mxCell>
        <mxCell id="dMKIddMupNXmEjf5BekO-42" value="N" style="text;html=1;align=center;verticalAlign=middle;resizable=0;points=[];autosize=1;strokeColor=none;fillColor=none;" parent="1" vertex="1">
          <mxGeometry x="660" y="380" width="30" height="30" as="geometry" />
        </mxCell>
        <mxCell id="dMKIddMupNXmEjf5BekO-43" value="N" style="text;html=1;align=center;verticalAlign=middle;resizable=0;points=[];autosize=1;strokeColor=none;fillColor=none;" parent="1" vertex="1">
          <mxGeometry x="410" y="600" width="30" height="30" as="geometry" />
        </mxCell>
        <mxCell id="dMKIddMupNXmEjf5BekO-44" value="1" style="text;html=1;align=center;verticalAlign=middle;resizable=0;points=[];autosize=1;strokeColor=none;fillColor=none;" parent="1" vertex="1">
          <mxGeometry x="410" y="750" width="30" height="30" as="geometry" />
        </mxCell>
        <mxCell id="dMKIddMupNXmEjf5BekO-45" value="N" style="text;html=1;align=center;verticalAlign=middle;resizable=0;points=[];autosize=1;strokeColor=none;fillColor=none;" parent="1" vertex="1">
          <mxGeometry x="660" y="290" width="30" height="30" as="geometry" />
        </mxCell>
        <mxCell id="dMKIddMupNXmEjf5BekO-46" value="1" style="text;html=1;align=center;verticalAlign=middle;resizable=0;points=[];autosize=1;strokeColor=none;fillColor=none;" parent="1" vertex="1">
          <mxGeometry x="470" y="90" width="30" height="30" as="geometry" />
        </mxCell>
        <mxCell id="dMKIddMupNXmEjf5BekO-47" value="Conceitual" style="text;html=1;align=center;verticalAlign=middle;resizable=0;points=[];autosize=1;strokeColor=#b85450;fillColor=#f8cecc;" parent="1" vertex="1">
          <mxGeometry x="370" y="20" width="80" height="30" as="geometry" />
        </mxCell>
        <mxCell id="dMKIddMupNXmEjf5BekO-48" value="LÃ³gico" style="text;html=1;align=center;verticalAlign=middle;resizable=0;points=[];autosize=1;strokeColor=#9673a6;fillColor=#e1d5e7;" parent="1" vertex="1">
          <mxGeometry x="1545" y="38" width="60" height="30" as="geometry" />
        </mxCell>
        <mxCell id="dMKIddMupNXmEjf5BekO-49" value="TiposDeUsuario" style="shape=table;startSize=30;container=1;collapsible=1;childLayout=tableLayout;fixedRows=1;rowLines=0;fontStyle=1;align=center;resizeLast=1;html=1;" parent="1" vertex="1">
          <mxGeometry x="930" y="83" width="180" height="90" as="geometry" />
        </mxCell>
        <mxCell id="dMKIddMupNXmEjf5BekO-50" value="" style="shape=tableRow;horizontal=0;startSize=0;swimlaneHead=0;swimlaneBody=0;fillColor=none;collapsible=0;dropTarget=0;points=[[0,0.5],[1,0.5]];portConstraint=eastwest;top=0;left=0;right=0;bottom=1;" parent="dMKIddMupNXmEjf5BekO-49" vertex="1">
          <mxGeometry y="30" width="180" height="30" as="geometry" />
        </mxCell>
        <mxCell id="dMKIddMupNXmEjf5BekO-51" value="PK" style="shape=partialRectangle;connectable=0;fillColor=none;top=0;left=0;bottom=0;right=0;fontStyle=1;overflow=hidden;whiteSpace=wrap;html=1;" parent="dMKIddMupNXmEjf5BekO-50" vertex="1">
          <mxGeometry width="30" height="30" as="geometry">
            <mxRectangle width="30" height="30" as="alternateBounds" />
          </mxGeometry>
        </mxCell>
        <mxCell id="dMKIddMupNXmEjf5BekO-52" value="IdTipoDeUsuario" style="shape=partialRectangle;connectable=0;fillColor=none;top=0;left=0;bottom=0;right=0;align=left;spacingLeft=6;fontStyle=5;overflow=hidden;whiteSpace=wrap;html=1;" parent="dMKIddMupNXmEjf5BekO-50" vertex="1">
          <mxGeometry x="30" width="150" height="30" as="geometry">
            <mxRectangle width="150" height="30" as="alternateBounds" />
          </mxGeometry>
        </mxCell>
        <mxCell id="dMKIddMupNXmEjf5BekO-53" value="" style="shape=tableRow;horizontal=0;startSize=0;swimlaneHead=0;swimlaneBody=0;fillColor=none;collapsible=0;dropTarget=0;points=[[0,0.5],[1,0.5]];portConstraint=eastwest;top=0;left=0;right=0;bottom=0;" parent="dMKIddMupNXmEjf5BekO-49" vertex="1">
          <mxGeometry y="60" width="180" height="30" as="geometry" />
        </mxCell>
        <mxCell id="dMKIddMupNXmEjf5BekO-54" value="" style="shape=partialRectangle;connectable=0;fillColor=none;top=0;left=0;bottom=0;right=0;editable=1;overflow=hidden;whiteSpace=wrap;html=1;" parent="dMKIddMupNXmEjf5BekO-53" vertex="1">
          <mxGeometry width="30" height="30" as="geometry">
            <mxRectangle width="30" height="30" as="alternateBounds" />
          </mxGeometry>
        </mxCell>
        <mxCell id="dMKIddMupNXmEjf5BekO-55" value="TituloTipoDeUsuario" style="shape=partialRectangle;connectable=0;fillColor=none;top=0;left=0;bottom=0;right=0;align=left;spacingLeft=6;overflow=hidden;whiteSpace=wrap;html=1;" parent="dMKIddMupNXmEjf5BekO-53" vertex="1">
          <mxGeometry x="30" width="150" height="30" as="geometry">
            <mxRectangle width="150" height="30" as="alternateBounds" />
          </mxGeometry>
        </mxCell>
        <mxCell id="dMKIddMupNXmEjf5BekO-62" value="Usuario" style="shape=table;startSize=30;container=1;collapsible=1;childLayout=tableLayout;fixedRows=1;rowLines=0;fontStyle=1;align=center;resizeLast=1;html=1;whiteSpace=wrap;" parent="1" vertex="1">
          <mxGeometry x="1190" y="90" width="180" height="210" as="geometry" />
        </mxCell>
        <mxCell id="dMKIddMupNXmEjf5BekO-63" value="" style="shape=tableRow;horizontal=0;startSize=0;swimlaneHead=0;swimlaneBody=0;fillColor=none;collapsible=0;dropTarget=0;points=[[0,0.5],[1,0.5]];portConstraint=eastwest;top=0;left=0;right=0;bottom=0;html=1;" parent="dMKIddMupNXmEjf5BekO-62" vertex="1">
          <mxGeometry y="30" width="180" height="30" as="geometry" />
        </mxCell>
        <mxCell id="dMKIddMupNXmEjf5BekO-64" value="PK" style="shape=partialRectangle;connectable=0;fillColor=none;top=0;left=0;bottom=0;right=0;fontStyle=1;overflow=hidden;html=1;whiteSpace=wrap;" parent="dMKIddMupNXmEjf5BekO-63" vertex="1">
          <mxGeometry width="60" height="30" as="geometry">
            <mxRectangle width="60" height="30" as="alternateBounds" />
          </mxGeometry>
        </mxCell>
        <mxCell id="dMKIddMupNXmEjf5BekO-65" value="IdUsuario" style="shape=partialRectangle;connectable=0;fillColor=none;top=0;left=0;bottom=0;right=0;align=left;spacingLeft=6;fontStyle=5;overflow=hidden;html=1;whiteSpace=wrap;" parent="dMKIddMupNXmEjf5BekO-63" vertex="1">
          <mxGeometry x="60" width="120" height="30" as="geometry">
            <mxRectangle width="120" height="30" as="alternateBounds" />
          </mxGeometry>
        </mxCell>
        <mxCell id="dMKIddMupNXmEjf5BekO-66" value="" style="shape=tableRow;horizontal=0;startSize=0;swimlaneHead=0;swimlaneBody=0;fillColor=none;collapsible=0;dropTarget=0;points=[[0,0.5],[1,0.5]];portConstraint=eastwest;top=0;left=0;right=0;bottom=1;html=1;" parent="dMKIddMupNXmEjf5BekO-62" vertex="1">
          <mxGeometry y="60" width="180" height="30" as="geometry" />
        </mxCell>
        <mxCell id="dMKIddMupNXmEjf5BekO-67" value="FK" style="shape=partialRectangle;connectable=0;fillColor=none;top=0;left=0;bottom=0;right=0;fontStyle=1;overflow=hidden;html=1;whiteSpace=wrap;" parent="dMKIddMupNXmEjf5BekO-66" vertex="1">
          <mxGeometry width="60" height="30" as="geometry">
            <mxRectangle width="60" height="30" as="alternateBounds" />
          </mxGeometry>
        </mxCell>
        <mxCell id="dMKIddMupNXmEjf5BekO-68" value="IdTipoDeUsuario" style="shape=partialRectangle;connectable=0;fillColor=none;top=0;left=0;bottom=0;right=0;align=left;spacingLeft=6;fontStyle=5;overflow=hidden;html=1;whiteSpace=wrap;" parent="dMKIddMupNXmEjf5BekO-66" vertex="1">
          <mxGeometry x="60" width="120" height="30" as="geometry">
            <mxRectangle width="120" height="30" as="alternateBounds" />
          </mxGeometry>
        </mxCell>
        <mxCell id="dMKIddMupNXmEjf5BekO-69" value="" style="shape=tableRow;horizontal=0;startSize=0;swimlaneHead=0;swimlaneBody=0;fillColor=none;collapsible=0;dropTarget=0;points=[[0,0.5],[1,0.5]];portConstraint=eastwest;top=0;left=0;right=0;bottom=0;html=1;" parent="dMKIddMupNXmEjf5BekO-62" vertex="1">
          <mxGeometry y="90" width="180" height="30" as="geometry" />
        </mxCell>
        <mxCell id="dMKIddMupNXmEjf5BekO-70" value="" style="shape=partialRectangle;connectable=0;fillColor=none;top=0;left=0;bottom=0;right=0;editable=1;overflow=hidden;html=1;whiteSpace=wrap;" parent="dMKIddMupNXmEjf5BekO-69" vertex="1">
          <mxGeometry width="60" height="30" as="geometry">
            <mxRectangle width="60" height="30" as="alternateBounds" />
          </mxGeometry>
        </mxCell>
        <mxCell id="dMKIddMupNXmEjf5BekO-71" value="NomeUsuario" style="shape=partialRectangle;connectable=0;fillColor=none;top=0;left=0;bottom=0;right=0;align=left;spacingLeft=6;overflow=hidden;html=1;whiteSpace=wrap;" parent="dMKIddMupNXmEjf5BekO-69" vertex="1">
          <mxGeometry x="60" width="120" height="30" as="geometry">
            <mxRectangle width="120" height="30" as="alternateBounds" />
          </mxGeometry>
        </mxCell>
        <mxCell id="dMKIddMupNXmEjf5BekO-72" value="" style="shape=tableRow;horizontal=0;startSize=0;swimlaneHead=0;swimlaneBody=0;fillColor=none;collapsible=0;dropTarget=0;points=[[0,0.5],[1,0.5]];portConstraint=eastwest;top=0;left=0;right=0;bottom=0;html=1;" parent="dMKIddMupNXmEjf5BekO-62" vertex="1">
          <mxGeometry y="120" width="180" height="30" as="geometry" />
        </mxCell>
        <mxCell id="dMKIddMupNXmEjf5BekO-73" value="" style="shape=partialRectangle;connectable=0;fillColor=none;top=0;left=0;bottom=0;right=0;editable=1;overflow=hidden;html=1;whiteSpace=wrap;" parent="dMKIddMupNXmEjf5BekO-72" vertex="1">
          <mxGeometry width="60" height="30" as="geometry">
            <mxRectangle width="60" height="30" as="alternateBounds" />
          </mxGeometry>
        </mxCell>
        <mxCell id="dMKIddMupNXmEjf5BekO-74" value="EmailUsuario" style="shape=partialRectangle;connectable=0;fillColor=none;top=0;left=0;bottom=0;right=0;align=left;spacingLeft=6;overflow=hidden;html=1;whiteSpace=wrap;" parent="dMKIddMupNXmEjf5BekO-72" vertex="1">
          <mxGeometry x="60" width="120" height="30" as="geometry">
            <mxRectangle width="120" height="30" as="alternateBounds" />
          </mxGeometry>
        </mxCell>
        <mxCell id="dMKIddMupNXmEjf5BekO-75" style="shape=tableRow;horizontal=0;startSize=0;swimlaneHead=0;swimlaneBody=0;fillColor=none;collapsible=0;dropTarget=0;points=[[0,0.5],[1,0.5]];portConstraint=eastwest;top=0;left=0;right=0;bottom=0;html=1;" parent="dMKIddMupNXmEjf5BekO-62" vertex="1">
          <mxGeometry y="150" width="180" height="30" as="geometry" />
        </mxCell>
        <mxCell id="dMKIddMupNXmEjf5BekO-76" style="shape=partialRectangle;connectable=0;fillColor=none;top=0;left=0;bottom=0;right=0;editable=1;overflow=hidden;html=1;whiteSpace=wrap;" parent="dMKIddMupNXmEjf5BekO-75" vertex="1">
          <mxGeometry width="60" height="30" as="geometry">
            <mxRectangle width="60" height="30" as="alternateBounds" />
          </mxGeometry>
        </mxCell>
        <mxCell id="dMKIddMupNXmEjf5BekO-77" value="SenhaUsuario" style="shape=partialRectangle;connectable=0;fillColor=none;top=0;left=0;bottom=0;right=0;align=left;spacingLeft=6;overflow=hidden;html=1;whiteSpace=wrap;" parent="dMKIddMupNXmEjf5BekO-75" vertex="1">
          <mxGeometry x="60" width="120" height="30" as="geometry">
            <mxRectangle width="120" height="30" as="alternateBounds" />
          </mxGeometry>
        </mxCell>
        <mxCell id="dMKIddMupNXmEjf5BekO-78" style="shape=tableRow;horizontal=0;startSize=0;swimlaneHead=0;swimlaneBody=0;fillColor=none;collapsible=0;dropTarget=0;points=[[0,0.5],[1,0.5]];portConstraint=eastwest;top=0;left=0;right=0;bottom=0;html=1;" parent="dMKIddMupNXmEjf5BekO-62" vertex="1">
          <mxGeometry y="180" width="180" height="30" as="geometry" />
        </mxCell>
        <mxCell id="dMKIddMupNXmEjf5BekO-79" style="shape=partialRectangle;connectable=0;fillColor=none;top=0;left=0;bottom=0;right=0;editable=1;overflow=hidden;html=1;whiteSpace=wrap;" parent="dMKIddMupNXmEjf5BekO-78" vertex="1">
          <mxGeometry width="60" height="30" as="geometry">
            <mxRectangle width="60" height="30" as="alternateBounds" />
          </mxGeometry>
        </mxCell>
        <mxCell id="dMKIddMupNXmEjf5BekO-80" value="TelefoneUsuario" style="shape=partialRectangle;connectable=0;fillColor=none;top=0;left=0;bottom=0;right=0;align=left;spacingLeft=6;overflow=hidden;html=1;whiteSpace=wrap;" parent="dMKIddMupNXmEjf5BekO-78" vertex="1">
          <mxGeometry x="60" width="120" height="30" as="geometry">
            <mxRectangle width="120" height="30" as="alternateBounds" />
          </mxGeometry>
        </mxCell>
        <mxCell id="dMKIddMupNXmEjf5BekO-81" value="" style="edgeStyle=entityRelationEdgeStyle;fontSize=12;html=1;endArrow=ERoneToMany;rounded=0;exitX=1;exitY=0.5;exitDx=0;exitDy=0;entryX=0;entryY=0.5;entryDx=0;entryDy=0;" parent="1" source="dMKIddMupNXmEjf5BekO-50" target="dMKIddMupNXmEjf5BekO-66" edge="1">
          <mxGeometry width="100" height="100" relative="1" as="geometry">
            <mxPoint x="1140" y="460" as="sourcePoint" />
            <mxPoint x="1240" y="360" as="targetPoint" />
          </mxGeometry>
        </mxCell>
        <mxCell id="dMKIddMupNXmEjf5BekO-82" value="PresencasEvento&amp;nbsp;" style="shape=table;startSize=30;container=1;collapsible=1;childLayout=tableLayout;fixedRows=1;rowLines=0;fontStyle=1;align=center;resizeLast=1;html=1;whiteSpace=wrap;" parent="1" vertex="1">
          <mxGeometry x="1485" y="90" width="180" height="150" as="geometry" />
        </mxCell>
        <mxCell id="dMKIddMupNXmEjf5BekO-95" style="shape=tableRow;horizontal=0;startSize=0;swimlaneHead=0;swimlaneBody=0;fillColor=none;collapsible=0;dropTarget=0;points=[[0,0.5],[1,0.5]];portConstraint=eastwest;top=0;left=0;right=0;bottom=0;html=1;" parent="dMKIddMupNXmEjf5BekO-82" vertex="1">
          <mxGeometry y="30" width="180" height="30" as="geometry" />
        </mxCell>
        <mxCell id="dMKIddMupNXmEjf5BekO-96" value="PK" style="shape=partialRectangle;connectable=0;fillColor=none;top=0;left=0;bottom=0;right=0;fontStyle=1;overflow=hidden;html=1;whiteSpace=wrap;" parent="dMKIddMupNXmEjf5BekO-95" vertex="1">
          <mxGeometry width="60" height="30" as="geometry">
            <mxRectangle width="60" height="30" as="alternateBounds" />
          </mxGeometry>
        </mxCell>
        <mxCell id="dMKIddMupNXmEjf5BekO-97" value="IdPresencaEvento" style="shape=partialRectangle;connectable=0;fillColor=none;top=0;left=0;bottom=0;right=0;align=left;spacingLeft=6;fontStyle=5;overflow=hidden;html=1;whiteSpace=wrap;" parent="dMKIddMupNXmEjf5BekO-95" vertex="1">
          <mxGeometry x="60" width="120" height="30" as="geometry">
            <mxRectangle width="120" height="30" as="alternateBounds" />
          </mxGeometry>
        </mxCell>
        <mxCell id="dMKIddMupNXmEjf5BekO-83" value="" style="shape=tableRow;horizontal=0;startSize=0;swimlaneHead=0;swimlaneBody=0;fillColor=none;collapsible=0;dropTarget=0;points=[[0,0.5],[1,0.5]];portConstraint=eastwest;top=0;left=0;right=0;bottom=0;html=1;" parent="dMKIddMupNXmEjf5BekO-82" vertex="1">
          <mxGeometry y="60" width="180" height="30" as="geometry" />
        </mxCell>
        <mxCell id="dMKIddMupNXmEjf5BekO-84" value="FK1" style="shape=partialRectangle;connectable=0;fillColor=none;top=0;left=0;bottom=0;right=0;fontStyle=1;overflow=hidden;html=1;whiteSpace=wrap;" parent="dMKIddMupNXmEjf5BekO-83" vertex="1">
          <mxGeometry width="60" height="30" as="geometry">
            <mxRectangle width="60" height="30" as="alternateBounds" />
          </mxGeometry>
        </mxCell>
        <mxCell id="dMKIddMupNXmEjf5BekO-85" value="IdUsuario" style="shape=partialRectangle;connectable=0;fillColor=none;top=0;left=0;bottom=0;right=0;align=left;spacingLeft=6;fontStyle=5;overflow=hidden;html=1;whiteSpace=wrap;" parent="dMKIddMupNXmEjf5BekO-83" vertex="1">
          <mxGeometry x="60" width="120" height="30" as="geometry">
            <mxRectangle width="120" height="30" as="alternateBounds" />
          </mxGeometry>
        </mxCell>
        <mxCell id="dMKIddMupNXmEjf5BekO-86" value="" style="shape=tableRow;horizontal=0;startSize=0;swimlaneHead=0;swimlaneBody=0;fillColor=none;collapsible=0;dropTarget=0;points=[[0,0.5],[1,0.5]];portConstraint=eastwest;top=0;left=0;right=0;bottom=1;html=1;" parent="dMKIddMupNXmEjf5BekO-82" vertex="1">
          <mxGeometry y="90" width="180" height="30" as="geometry" />
        </mxCell>
        <mxCell id="dMKIddMupNXmEjf5BekO-87" value="FK2" style="shape=partialRectangle;connectable=0;fillColor=none;top=0;left=0;bottom=0;right=0;fontStyle=1;overflow=hidden;html=1;whiteSpace=wrap;" parent="dMKIddMupNXmEjf5BekO-86" vertex="1">
          <mxGeometry width="60" height="30" as="geometry">
            <mxRectangle width="60" height="30" as="alternateBounds" />
          </mxGeometry>
        </mxCell>
        <mxCell id="dMKIddMupNXmEjf5BekO-88" value="IdEvento" style="shape=partialRectangle;connectable=0;fillColor=none;top=0;left=0;bottom=0;right=0;align=left;spacingLeft=6;fontStyle=5;overflow=hidden;html=1;whiteSpace=wrap;" parent="dMKIddMupNXmEjf5BekO-86" vertex="1">
          <mxGeometry x="60" width="120" height="30" as="geometry">
            <mxRectangle width="120" height="30" as="alternateBounds" />
          </mxGeometry>
        </mxCell>
        <mxCell id="dMKIddMupNXmEjf5BekO-89" value="" style="shape=tableRow;horizontal=0;startSize=0;swimlaneHead=0;swimlaneBody=0;fillColor=none;collapsible=0;dropTarget=0;points=[[0,0.5],[1,0.5]];portConstraint=eastwest;top=0;left=0;right=0;bottom=0;html=1;" parent="dMKIddMupNXmEjf5BekO-82" vertex="1">
          <mxGeometry y="120" width="180" height="30" as="geometry" />
        </mxCell>
        <mxCell id="dMKIddMupNXmEjf5BekO-90" value="" style="shape=partialRectangle;connectable=0;fillColor=none;top=0;left=0;bottom=0;right=0;editable=1;overflow=hidden;html=1;whiteSpace=wrap;" parent="dMKIddMupNXmEjf5BekO-89" vertex="1">
          <mxGeometry width="60" height="30" as="geometry">
            <mxRectangle width="60" height="30" as="alternateBounds" />
          </mxGeometry>
        </mxCell>
        <mxCell id="dMKIddMupNXmEjf5BekO-91" value="Situacao" style="shape=partialRectangle;connectable=0;fillColor=none;top=0;left=0;bottom=0;right=0;align=left;spacingLeft=6;overflow=hidden;html=1;whiteSpace=wrap;" parent="dMKIddMupNXmEjf5BekO-89" vertex="1">
          <mxGeometry x="60" width="120" height="30" as="geometry">
            <mxRectangle width="120" height="30" as="alternateBounds" />
          </mxGeometry>
        </mxCell>
        <mxCell id="dMKIddMupNXmEjf5BekO-98" value="" style="edgeStyle=entityRelationEdgeStyle;fontSize=12;html=1;endArrow=ERoneToMany;rounded=0;exitX=1;exitY=0.5;exitDx=0;exitDy=0;entryX=0;entryY=0.5;entryDx=0;entryDy=0;" parent="1" source="dMKIddMupNXmEjf5BekO-63" target="dMKIddMupNXmEjf5BekO-83" edge="1">
          <mxGeometry width="100" height="100" relative="1" as="geometry">
            <mxPoint x="1260" y="380" as="sourcePoint" />
            <mxPoint x="1360" y="280" as="targetPoint" />
          </mxGeometry>
        </mxCell>
        <mxCell id="dMKIddMupNXmEjf5BekO-99" value="Evento" style="shape=table;startSize=30;container=1;collapsible=1;childLayout=tableLayout;fixedRows=1;rowLines=0;fontStyle=1;align=center;resizeLast=1;html=1;whiteSpace=wrap;" parent="1" vertex="1">
          <mxGeometry x="1770" y="90" width="180" height="210" as="geometry" />
        </mxCell>
        <mxCell id="dMKIddMupNXmEjf5BekO-112" style="shape=tableRow;horizontal=0;startSize=0;swimlaneHead=0;swimlaneBody=0;fillColor=none;collapsible=0;dropTarget=0;points=[[0,0.5],[1,0.5]];portConstraint=eastwest;top=0;left=0;right=0;bottom=0;html=1;" parent="dMKIddMupNXmEjf5BekO-99" vertex="1">
          <mxGeometry y="30" width="180" height="30" as="geometry" />
        </mxCell>
        <mxCell id="dMKIddMupNXmEjf5BekO-113" value="PK" style="shape=partialRectangle;connectable=0;fillColor=none;top=0;left=0;bottom=0;right=0;fontStyle=1;overflow=hidden;html=1;whiteSpace=wrap;" parent="dMKIddMupNXmEjf5BekO-112" vertex="1">
          <mxGeometry width="60" height="30" as="geometry">
            <mxRectangle width="60" height="30" as="alternateBounds" />
          </mxGeometry>
        </mxCell>
        <mxCell id="dMKIddMupNXmEjf5BekO-114" value="IdEvento" style="shape=partialRectangle;connectable=0;fillColor=none;top=0;left=0;bottom=0;right=0;align=left;spacingLeft=6;fontStyle=5;overflow=hidden;html=1;whiteSpace=wrap;" parent="dMKIddMupNXmEjf5BekO-112" vertex="1">
          <mxGeometry x="60" width="120" height="30" as="geometry">
            <mxRectangle width="120" height="30" as="alternateBounds" />
          </mxGeometry>
        </mxCell>
        <mxCell id="dMKIddMupNXmEjf5BekO-100" value="" style="shape=tableRow;horizontal=0;startSize=0;swimlaneHead=0;swimlaneBody=0;fillColor=none;collapsible=0;dropTarget=0;points=[[0,0.5],[1,0.5]];portConstraint=eastwest;top=0;left=0;right=0;bottom=0;html=1;" parent="dMKIddMupNXmEjf5BekO-99" vertex="1">
          <mxGeometry y="60" width="180" height="30" as="geometry" />
        </mxCell>
        <mxCell id="dMKIddMupNXmEjf5BekO-101" value="FK1" style="shape=partialRectangle;connectable=0;fillColor=none;top=0;left=0;bottom=0;right=0;fontStyle=1;overflow=hidden;html=1;whiteSpace=wrap;" parent="dMKIddMupNXmEjf5BekO-100" vertex="1">
          <mxGeometry width="60" height="30" as="geometry">
            <mxRectangle width="60" height="30" as="alternateBounds" />
          </mxGeometry>
        </mxCell>
        <mxCell id="dMKIddMupNXmEjf5BekO-102" value="IdTipoDeEvento" style="shape=partialRectangle;connectable=0;fillColor=none;top=0;left=0;bottom=0;right=0;align=left;spacingLeft=6;fontStyle=5;overflow=hidden;html=1;whiteSpace=wrap;" parent="dMKIddMupNXmEjf5BekO-100" vertex="1">
          <mxGeometry x="60" width="120" height="30" as="geometry">
            <mxRectangle width="120" height="30" as="alternateBounds" />
          </mxGeometry>
        </mxCell>
        <mxCell id="dMKIddMupNXmEjf5BekO-103" value="" style="shape=tableRow;horizontal=0;startSize=0;swimlaneHead=0;swimlaneBody=0;fillColor=none;collapsible=0;dropTarget=0;points=[[0,0.5],[1,0.5]];portConstraint=eastwest;top=0;left=0;right=0;bottom=1;html=1;" parent="dMKIddMupNXmEjf5BekO-99" vertex="1">
          <mxGeometry y="90" width="180" height="30" as="geometry" />
        </mxCell>
        <mxCell id="dMKIddMupNXmEjf5BekO-104" value="FK2" style="shape=partialRectangle;connectable=0;fillColor=none;top=0;left=0;bottom=0;right=0;fontStyle=1;overflow=hidden;html=1;whiteSpace=wrap;" parent="dMKIddMupNXmEjf5BekO-103" vertex="1">
          <mxGeometry width="60" height="30" as="geometry">
            <mxRectangle width="60" height="30" as="alternateBounds" />
          </mxGeometry>
        </mxCell>
        <mxCell id="dMKIddMupNXmEjf5BekO-105" value="IdInstituicao" style="shape=partialRectangle;connectable=0;fillColor=none;top=0;left=0;bottom=0;right=0;align=left;spacingLeft=6;fontStyle=5;overflow=hidden;html=1;whiteSpace=wrap;" parent="dMKIddMupNXmEjf5BekO-103" vertex="1">
          <mxGeometry x="60" width="120" height="30" as="geometry">
            <mxRectangle width="120" height="30" as="alternateBounds" />
          </mxGeometry>
        </mxCell>
        <mxCell id="dMKIddMupNXmEjf5BekO-106" value="" style="shape=tableRow;horizontal=0;startSize=0;swimlaneHead=0;swimlaneBody=0;fillColor=none;collapsible=0;dropTarget=0;points=[[0,0.5],[1,0.5]];portConstraint=eastwest;top=0;left=0;right=0;bottom=0;html=1;" parent="dMKIddMupNXmEjf5BekO-99" vertex="1">
          <mxGeometry y="120" width="180" height="30" as="geometry" />
        </mxCell>
        <mxCell id="dMKIddMupNXmEjf5BekO-107" value="" style="shape=partialRectangle;connectable=0;fillColor=none;top=0;left=0;bottom=0;right=0;editable=1;overflow=hidden;html=1;whiteSpace=wrap;" parent="dMKIddMupNXmEjf5BekO-106" vertex="1">
          <mxGeometry width="60" height="30" as="geometry">
            <mxRectangle width="60" height="30" as="alternateBounds" />
          </mxGeometry>
        </mxCell>
        <mxCell id="dMKIddMupNXmEjf5BekO-108" value="NomeEvento" style="shape=partialRectangle;connectable=0;fillColor=none;top=0;left=0;bottom=0;right=0;align=left;spacingLeft=6;overflow=hidden;html=1;whiteSpace=wrap;" parent="dMKIddMupNXmEjf5BekO-106" vertex="1">
          <mxGeometry x="60" width="120" height="30" as="geometry">
            <mxRectangle width="120" height="30" as="alternateBounds" />
          </mxGeometry>
        </mxCell>
        <mxCell id="dMKIddMupNXmEjf5BekO-109" value="" style="shape=tableRow;horizontal=0;startSize=0;swimlaneHead=0;swimlaneBody=0;fillColor=none;collapsible=0;dropTarget=0;points=[[0,0.5],[1,0.5]];portConstraint=eastwest;top=0;left=0;right=0;bottom=0;html=1;" parent="dMKIddMupNXmEjf5BekO-99" vertex="1">
          <mxGeometry y="150" width="180" height="30" as="geometry" />
        </mxCell>
        <mxCell id="dMKIddMupNXmEjf5BekO-110" value="" style="shape=partialRectangle;connectable=0;fillColor=none;top=0;left=0;bottom=0;right=0;editable=1;overflow=hidden;html=1;whiteSpace=wrap;" parent="dMKIddMupNXmEjf5BekO-109" vertex="1">
          <mxGeometry width="60" height="30" as="geometry">
            <mxRectangle width="60" height="30" as="alternateBounds" />
          </mxGeometry>
        </mxCell>
        <mxCell id="dMKIddMupNXmEjf5BekO-111" value="DescricaoEvento" style="shape=partialRectangle;connectable=0;fillColor=none;top=0;left=0;bottom=0;right=0;align=left;spacingLeft=6;overflow=hidden;html=1;whiteSpace=wrap;" parent="dMKIddMupNXmEjf5BekO-109" vertex="1">
          <mxGeometry x="60" width="120" height="30" as="geometry">
            <mxRectangle width="120" height="30" as="alternateBounds" />
          </mxGeometry>
        </mxCell>
        <mxCell id="dMKIddMupNXmEjf5BekO-115" style="shape=tableRow;horizontal=0;startSize=0;swimlaneHead=0;swimlaneBody=0;fillColor=none;collapsible=0;dropTarget=0;points=[[0,0.5],[1,0.5]];portConstraint=eastwest;top=0;left=0;right=0;bottom=0;html=1;" parent="dMKIddMupNXmEjf5BekO-99" vertex="1">
          <mxGeometry y="180" width="180" height="30" as="geometry" />
        </mxCell>
        <mxCell id="dMKIddMupNXmEjf5BekO-116" style="shape=partialRectangle;connectable=0;fillColor=none;top=0;left=0;bottom=0;right=0;editable=1;overflow=hidden;html=1;whiteSpace=wrap;" parent="dMKIddMupNXmEjf5BekO-115" vertex="1">
          <mxGeometry width="60" height="30" as="geometry">
            <mxRectangle width="60" height="30" as="alternateBounds" />
          </mxGeometry>
        </mxCell>
        <mxCell id="dMKIddMupNXmEjf5BekO-117" value="DataEvento" style="shape=partialRectangle;connectable=0;fillColor=none;top=0;left=0;bottom=0;right=0;align=left;spacingLeft=6;overflow=hidden;html=1;whiteSpace=wrap;" parent="dMKIddMupNXmEjf5BekO-115" vertex="1">
          <mxGeometry x="60" width="120" height="30" as="geometry">
            <mxRectangle width="120" height="30" as="alternateBounds" />
          </mxGeometry>
        </mxCell>
        <mxCell id="dMKIddMupNXmEjf5BekO-118" value="" style="edgeStyle=entityRelationEdgeStyle;fontSize=12;html=1;endArrow=ERoneToMany;rounded=0;exitX=0;exitY=0.5;exitDx=0;exitDy=0;entryX=1;entryY=0.5;entryDx=0;entryDy=0;" parent="1" source="dMKIddMupNXmEjf5BekO-112" target="dMKIddMupNXmEjf5BekO-86" edge="1">
          <mxGeometry width="100" height="100" relative="1" as="geometry">
            <mxPoint x="990" y="400" as="sourcePoint" />
            <mxPoint x="1090" y="300" as="targetPoint" />
          </mxGeometry>
        </mxCell>
        <mxCell id="dMKIddMupNXmEjf5BekO-119" value="TiposDeEvento" style="shape=table;startSize=30;container=1;collapsible=1;childLayout=tableLayout;fixedRows=1;rowLines=0;fontStyle=1;align=center;resizeLast=1;html=1;" parent="1" vertex="1">
          <mxGeometry x="2030" y="90" width="180" height="90" as="geometry" />
        </mxCell>
        <mxCell id="dMKIddMupNXmEjf5BekO-120" value="" style="shape=tableRow;horizontal=0;startSize=0;swimlaneHead=0;swimlaneBody=0;fillColor=none;collapsible=0;dropTarget=0;points=[[0,0.5],[1,0.5]];portConstraint=eastwest;top=0;left=0;right=0;bottom=1;" parent="dMKIddMupNXmEjf5BekO-119" vertex="1">
          <mxGeometry y="30" width="180" height="30" as="geometry" />
        </mxCell>
        <mxCell id="dMKIddMupNXmEjf5BekO-121" value="PK" style="shape=partialRectangle;connectable=0;fillColor=none;top=0;left=0;bottom=0;right=0;fontStyle=1;overflow=hidden;whiteSpace=wrap;html=1;" parent="dMKIddMupNXmEjf5BekO-120" vertex="1">
          <mxGeometry width="30" height="30" as="geometry">
            <mxRectangle width="30" height="30" as="alternateBounds" />
          </mxGeometry>
        </mxCell>
        <mxCell id="dMKIddMupNXmEjf5BekO-122" value="IdTipoDeEvento" style="shape=partialRectangle;connectable=0;fillColor=none;top=0;left=0;bottom=0;right=0;align=left;spacingLeft=6;fontStyle=5;overflow=hidden;whiteSpace=wrap;html=1;" parent="dMKIddMupNXmEjf5BekO-120" vertex="1">
          <mxGeometry x="30" width="150" height="30" as="geometry">
            <mxRectangle width="150" height="30" as="alternateBounds" />
          </mxGeometry>
        </mxCell>
        <mxCell id="dMKIddMupNXmEjf5BekO-123" value="" style="shape=tableRow;horizontal=0;startSize=0;swimlaneHead=0;swimlaneBody=0;fillColor=none;collapsible=0;dropTarget=0;points=[[0,0.5],[1,0.5]];portConstraint=eastwest;top=0;left=0;right=0;bottom=0;" parent="dMKIddMupNXmEjf5BekO-119" vertex="1">
          <mxGeometry y="60" width="180" height="30" as="geometry" />
        </mxCell>
        <mxCell id="dMKIddMupNXmEjf5BekO-124" value="" style="shape=partialRectangle;connectable=0;fillColor=none;top=0;left=0;bottom=0;right=0;editable=1;overflow=hidden;whiteSpace=wrap;html=1;" parent="dMKIddMupNXmEjf5BekO-123" vertex="1">
          <mxGeometry width="30" height="30" as="geometry">
            <mxRectangle width="30" height="30" as="alternateBounds" />
          </mxGeometry>
        </mxCell>
        <mxCell id="dMKIddMupNXmEjf5BekO-125" value="TituloTipoDeEvento" style="shape=partialRectangle;connectable=0;fillColor=none;top=0;left=0;bottom=0;right=0;align=left;spacingLeft=6;overflow=hidden;whiteSpace=wrap;html=1;" parent="dMKIddMupNXmEjf5BekO-123" vertex="1">
          <mxGeometry x="30" width="150" height="30" as="geometry">
            <mxRectangle width="150" height="30" as="alternateBounds" />
          </mxGeometry>
        </mxCell>
        <mxCell id="dMKIddMupNXmEjf5BekO-132" value="" style="edgeStyle=entityRelationEdgeStyle;fontSize=12;html=1;endArrow=ERoneToMany;rounded=0;entryX=1;entryY=0.5;entryDx=0;entryDy=0;exitX=0;exitY=0.5;exitDx=0;exitDy=0;" parent="1" source="dMKIddMupNXmEjf5BekO-120" target="dMKIddMupNXmEjf5BekO-100" edge="1">
          <mxGeometry width="100" height="100" relative="1" as="geometry">
            <mxPoint x="890" y="390" as="sourcePoint" />
            <mxPoint x="990" y="290" as="targetPoint" />
          </mxGeometry>
        </mxCell>
        <mxCell id="dMKIddMupNXmEjf5BekO-146" value="Instituicao" style="shape=table;startSize=30;container=1;collapsible=1;childLayout=tableLayout;fixedRows=1;rowLines=0;fontStyle=1;align=center;resizeLast=1;html=1;" parent="1" vertex="1">
          <mxGeometry x="2030" y="240" width="180" height="150" as="geometry" />
        </mxCell>
        <mxCell id="dMKIddMupNXmEjf5BekO-147" value="" style="shape=tableRow;horizontal=0;startSize=0;swimlaneHead=0;swimlaneBody=0;fillColor=none;collapsible=0;dropTarget=0;points=[[0,0.5],[1,0.5]];portConstraint=eastwest;top=0;left=0;right=0;bottom=1;" parent="dMKIddMupNXmEjf5BekO-146" vertex="1">
          <mxGeometry y="30" width="180" height="30" as="geometry" />
        </mxCell>
        <mxCell id="dMKIddMupNXmEjf5BekO-148" value="PK" style="shape=partialRectangle;connectable=0;fillColor=none;top=0;left=0;bottom=0;right=0;fontStyle=1;overflow=hidden;whiteSpace=wrap;html=1;" parent="dMKIddMupNXmEjf5BekO-147" vertex="1">
          <mxGeometry width="30" height="30" as="geometry">
            <mxRectangle width="30" height="30" as="alternateBounds" />
          </mxGeometry>
        </mxCell>
        <mxCell id="dMKIddMupNXmEjf5BekO-149" value="IdInstituicao" style="shape=partialRectangle;connectable=0;fillColor=none;top=0;left=0;bottom=0;right=0;align=left;spacingLeft=6;fontStyle=5;overflow=hidden;whiteSpace=wrap;html=1;" parent="dMKIddMupNXmEjf5BekO-147" vertex="1">
          <mxGeometry x="30" width="150" height="30" as="geometry">
            <mxRectangle width="150" height="30" as="alternateBounds" />
          </mxGeometry>
        </mxCell>
        <mxCell id="dMKIddMupNXmEjf5BekO-150" value="" style="shape=tableRow;horizontal=0;startSize=0;swimlaneHead=0;swimlaneBody=0;fillColor=none;collapsible=0;dropTarget=0;points=[[0,0.5],[1,0.5]];portConstraint=eastwest;top=0;left=0;right=0;bottom=0;" parent="dMKIddMupNXmEjf5BekO-146" vertex="1">
          <mxGeometry y="60" width="180" height="30" as="geometry" />
        </mxCell>
        <mxCell id="dMKIddMupNXmEjf5BekO-151" value="" style="shape=partialRectangle;connectable=0;fillColor=none;top=0;left=0;bottom=0;right=0;editable=1;overflow=hidden;whiteSpace=wrap;html=1;" parent="dMKIddMupNXmEjf5BekO-150" vertex="1">
          <mxGeometry width="30" height="30" as="geometry">
            <mxRectangle width="30" height="30" as="alternateBounds" />
          </mxGeometry>
        </mxCell>
        <mxCell id="dMKIddMupNXmEjf5BekO-152" value="NomeFantasia" style="shape=partialRectangle;connectable=0;fillColor=none;top=0;left=0;bottom=0;right=0;align=left;spacingLeft=6;overflow=hidden;whiteSpace=wrap;html=1;" parent="dMKIddMupNXmEjf5BekO-150" vertex="1">
          <mxGeometry x="30" width="150" height="30" as="geometry">
            <mxRectangle width="150" height="30" as="alternateBounds" />
          </mxGeometry>
        </mxCell>
        <mxCell id="dMKIddMupNXmEjf5BekO-153" value="" style="shape=tableRow;horizontal=0;startSize=0;swimlaneHead=0;swimlaneBody=0;fillColor=none;collapsible=0;dropTarget=0;points=[[0,0.5],[1,0.5]];portConstraint=eastwest;top=0;left=0;right=0;bottom=0;" parent="dMKIddMupNXmEjf5BekO-146" vertex="1">
          <mxGeometry y="90" width="180" height="30" as="geometry" />
        </mxCell>
        <mxCell id="dMKIddMupNXmEjf5BekO-154" value="" style="shape=partialRectangle;connectable=0;fillColor=none;top=0;left=0;bottom=0;right=0;editable=1;overflow=hidden;whiteSpace=wrap;html=1;" parent="dMKIddMupNXmEjf5BekO-153" vertex="1">
          <mxGeometry width="30" height="30" as="geometry">
            <mxRectangle width="30" height="30" as="alternateBounds" />
          </mxGeometry>
        </mxCell>
        <mxCell id="dMKIddMupNXmEjf5BekO-155" value="CNPJ" style="shape=partialRectangle;connectable=0;fillColor=none;top=0;left=0;bottom=0;right=0;align=left;spacingLeft=6;overflow=hidden;whiteSpace=wrap;html=1;" parent="dMKIddMupNXmEjf5BekO-153" vertex="1">
          <mxGeometry x="30" width="150" height="30" as="geometry">
            <mxRectangle width="150" height="30" as="alternateBounds" />
          </mxGeometry>
        </mxCell>
        <mxCell id="dMKIddMupNXmEjf5BekO-160" style="shape=tableRow;horizontal=0;startSize=0;swimlaneHead=0;swimlaneBody=0;fillColor=none;collapsible=0;dropTarget=0;points=[[0,0.5],[1,0.5]];portConstraint=eastwest;top=0;left=0;right=0;bottom=0;" parent="dMKIddMupNXmEjf5BekO-146" vertex="1">
          <mxGeometry y="120" width="180" height="30" as="geometry" />
        </mxCell>
        <mxCell id="dMKIddMupNXmEjf5BekO-161" style="shape=partialRectangle;connectable=0;fillColor=none;top=0;left=0;bottom=0;right=0;editable=1;overflow=hidden;whiteSpace=wrap;html=1;" parent="dMKIddMupNXmEjf5BekO-160" vertex="1">
          <mxGeometry width="30" height="30" as="geometry">
            <mxRectangle width="30" height="30" as="alternateBounds" />
          </mxGeometry>
        </mxCell>
        <mxCell id="dMKIddMupNXmEjf5BekO-162" value="Endereco" style="shape=partialRectangle;connectable=0;fillColor=none;top=0;left=0;bottom=0;right=0;align=left;spacingLeft=6;overflow=hidden;whiteSpace=wrap;html=1;" parent="dMKIddMupNXmEjf5BekO-160" vertex="1">
          <mxGeometry x="30" width="150" height="30" as="geometry">
            <mxRectangle width="150" height="30" as="alternateBounds" />
          </mxGeometry>
        </mxCell>
        <mxCell id="dMKIddMupNXmEjf5BekO-159" value="" style="edgeStyle=entityRelationEdgeStyle;fontSize=12;html=1;endArrow=ERoneToMany;rounded=0;entryX=1;entryY=0.5;entryDx=0;entryDy=0;exitX=0;exitY=0.5;exitDx=0;exitDy=0;" parent="1" source="dMKIddMupNXmEjf5BekO-147" target="dMKIddMupNXmEjf5BekO-103" edge="1">
          <mxGeometry width="100" height="100" relative="1" as="geometry">
            <mxPoint x="890" y="580" as="sourcePoint" />
            <mxPoint x="990" y="480" as="targetPoint" />
          </mxGeometry>
        </mxCell>
        <mxCell id="dMKIddMupNXmEjf5BekO-166" value="ComentarioEvento" style="shape=table;startSize=30;container=1;collapsible=1;childLayout=tableLayout;fixedRows=1;rowLines=0;fontStyle=1;align=center;resizeLast=1;html=1;whiteSpace=wrap;" parent="1" vertex="1">
          <mxGeometry x="1480" y="310" width="190" height="270" as="geometry" />
        </mxCell>
        <mxCell id="dMKIddMupNXmEjf5BekO-182" style="shape=tableRow;horizontal=0;startSize=0;swimlaneHead=0;swimlaneBody=0;fillColor=none;collapsible=0;dropTarget=0;points=[[0,0.5],[1,0.5]];portConstraint=eastwest;top=0;left=0;right=0;bottom=0;html=1;" parent="dMKIddMupNXmEjf5BekO-166" vertex="1">
          <mxGeometry y="30" width="190" height="30" as="geometry" />
        </mxCell>
        <mxCell id="dMKIddMupNXmEjf5BekO-183" value="PK" style="shape=partialRectangle;connectable=0;fillColor=none;top=0;left=0;bottom=0;right=0;fontStyle=1;overflow=hidden;html=1;whiteSpace=wrap;" parent="dMKIddMupNXmEjf5BekO-182" vertex="1">
          <mxGeometry width="60" height="30" as="geometry">
            <mxRectangle width="60" height="30" as="alternateBounds" />
          </mxGeometry>
        </mxCell>
        <mxCell id="dMKIddMupNXmEjf5BekO-184" value="IdComentario" style="shape=partialRectangle;connectable=0;fillColor=none;top=0;left=0;bottom=0;right=0;align=left;spacingLeft=6;fontStyle=5;overflow=hidden;html=1;whiteSpace=wrap;" parent="dMKIddMupNXmEjf5BekO-182" vertex="1">
          <mxGeometry x="60" width="130" height="30" as="geometry">
            <mxRectangle width="130" height="30" as="alternateBounds" />
          </mxGeometry>
        </mxCell>
        <mxCell id="dMKIddMupNXmEjf5BekO-167" value="" style="shape=tableRow;horizontal=0;startSize=0;swimlaneHead=0;swimlaneBody=0;fillColor=none;collapsible=0;dropTarget=0;points=[[0,0.5],[1,0.5]];portConstraint=eastwest;top=0;left=0;right=0;bottom=0;html=1;" parent="dMKIddMupNXmEjf5BekO-166" vertex="1">
          <mxGeometry y="60" width="190" height="30" as="geometry" />
        </mxCell>
        <mxCell id="dMKIddMupNXmEjf5BekO-168" value="FK1" style="shape=partialRectangle;connectable=0;fillColor=none;top=0;left=0;bottom=0;right=0;fontStyle=1;overflow=hidden;html=1;whiteSpace=wrap;" parent="dMKIddMupNXmEjf5BekO-167" vertex="1">
          <mxGeometry width="60" height="30" as="geometry">
            <mxRectangle width="60" height="30" as="alternateBounds" />
          </mxGeometry>
        </mxCell>
        <mxCell id="dMKIddMupNXmEjf5BekO-169" value="IdUsuario" style="shape=partialRectangle;connectable=0;fillColor=none;top=0;left=0;bottom=0;right=0;align=left;spacingLeft=6;fontStyle=5;overflow=hidden;html=1;whiteSpace=wrap;" parent="dMKIddMupNXmEjf5BekO-167" vertex="1">
          <mxGeometry x="60" width="130" height="30" as="geometry">
            <mxRectangle width="130" height="30" as="alternateBounds" />
          </mxGeometry>
        </mxCell>
        <mxCell id="dMKIddMupNXmEjf5BekO-170" value="" style="shape=tableRow;horizontal=0;startSize=0;swimlaneHead=0;swimlaneBody=0;fillColor=none;collapsible=0;dropTarget=0;points=[[0,0.5],[1,0.5]];portConstraint=eastwest;top=0;left=0;right=0;bottom=1;html=1;" parent="dMKIddMupNXmEjf5BekO-166" vertex="1">
          <mxGeometry y="90" width="190" height="30" as="geometry" />
        </mxCell>
        <mxCell id="dMKIddMupNXmEjf5BekO-171" value="FK2" style="shape=partialRectangle;connectable=0;fillColor=none;top=0;left=0;bottom=0;right=0;fontStyle=1;overflow=hidden;html=1;whiteSpace=wrap;" parent="dMKIddMupNXmEjf5BekO-170" vertex="1">
          <mxGeometry width="60" height="30" as="geometry">
            <mxRectangle width="60" height="30" as="alternateBounds" />
          </mxGeometry>
        </mxCell>
        <mxCell id="dMKIddMupNXmEjf5BekO-172" value="IdEvento" style="shape=partialRectangle;connectable=0;fillColor=none;top=0;left=0;bottom=0;right=0;align=left;spacingLeft=6;fontStyle=5;overflow=hidden;html=1;whiteSpace=wrap;" parent="dMKIddMupNXmEjf5BekO-170" vertex="1">
          <mxGeometry x="60" width="130" height="30" as="geometry">
            <mxRectangle width="130" height="30" as="alternateBounds" />
          </mxGeometry>
        </mxCell>
        <mxCell id="dMKIddMupNXmEjf5BekO-173" value="" style="shape=tableRow;horizontal=0;startSize=0;swimlaneHead=0;swimlaneBody=0;fillColor=none;collapsible=0;dropTarget=0;points=[[0,0.5],[1,0.5]];portConstraint=eastwest;top=0;left=0;right=0;bottom=0;html=1;" parent="dMKIddMupNXmEjf5BekO-166" vertex="1">
          <mxGeometry y="120" width="190" height="30" as="geometry" />
        </mxCell>
        <mxCell id="dMKIddMupNXmEjf5BekO-174" value="" style="shape=partialRectangle;connectable=0;fillColor=none;top=0;left=0;bottom=0;right=0;editable=1;overflow=hidden;html=1;whiteSpace=wrap;" parent="dMKIddMupNXmEjf5BekO-173" vertex="1">
          <mxGeometry width="60" height="30" as="geometry">
            <mxRectangle width="60" height="30" as="alternateBounds" />
          </mxGeometry>
        </mxCell>
        <mxCell id="dMKIddMupNXmEjf5BekO-175" value="TituloComentario" style="shape=partialRectangle;connectable=0;fillColor=none;top=0;left=0;bottom=0;right=0;align=left;spacingLeft=6;overflow=hidden;html=1;whiteSpace=wrap;" parent="dMKIddMupNXmEjf5BekO-173" vertex="1">
          <mxGeometry x="60" width="130" height="30" as="geometry">
            <mxRectangle width="130" height="30" as="alternateBounds" />
          </mxGeometry>
        </mxCell>
        <mxCell id="dMKIddMupNXmEjf5BekO-176" value="" style="shape=tableRow;horizontal=0;startSize=0;swimlaneHead=0;swimlaneBody=0;fillColor=none;collapsible=0;dropTarget=0;points=[[0,0.5],[1,0.5]];portConstraint=eastwest;top=0;left=0;right=0;bottom=0;html=1;" parent="dMKIddMupNXmEjf5BekO-166" vertex="1">
          <mxGeometry y="150" width="190" height="30" as="geometry" />
        </mxCell>
        <mxCell id="dMKIddMupNXmEjf5BekO-177" value="" style="shape=partialRectangle;connectable=0;fillColor=none;top=0;left=0;bottom=0;right=0;editable=1;overflow=hidden;html=1;whiteSpace=wrap;" parent="dMKIddMupNXmEjf5BekO-176" vertex="1">
          <mxGeometry width="60" height="30" as="geometry">
            <mxRectangle width="60" height="30" as="alternateBounds" />
          </mxGeometry>
        </mxCell>
        <mxCell id="dMKIddMupNXmEjf5BekO-178" value="DescricaoComentario" style="shape=partialRectangle;connectable=0;fillColor=none;top=0;left=0;bottom=0;right=0;align=left;spacingLeft=6;overflow=hidden;html=1;whiteSpace=wrap;" parent="dMKIddMupNXmEjf5BekO-176" vertex="1">
          <mxGeometry x="60" width="130" height="30" as="geometry">
            <mxRectangle width="130" height="30" as="alternateBounds" />
          </mxGeometry>
        </mxCell>
        <mxCell id="dMKIddMupNXmEjf5BekO-185" style="shape=tableRow;horizontal=0;startSize=0;swimlaneHead=0;swimlaneBody=0;fillColor=none;collapsible=0;dropTarget=0;points=[[0,0.5],[1,0.5]];portConstraint=eastwest;top=0;left=0;right=0;bottom=0;html=1;" parent="dMKIddMupNXmEjf5BekO-166" vertex="1">
          <mxGeometry y="180" width="190" height="30" as="geometry" />
        </mxCell>
        <mxCell id="dMKIddMupNXmEjf5BekO-186" style="shape=partialRectangle;connectable=0;fillColor=none;top=0;left=0;bottom=0;right=0;editable=1;overflow=hidden;html=1;whiteSpace=wrap;" parent="dMKIddMupNXmEjf5BekO-185" vertex="1">
          <mxGeometry width="60" height="30" as="geometry">
            <mxRectangle width="60" height="30" as="alternateBounds" />
          </mxGeometry>
        </mxCell>
        <mxCell id="dMKIddMupNXmEjf5BekO-187" value="DataComentario" style="shape=partialRectangle;connectable=0;fillColor=none;top=0;left=0;bottom=0;right=0;align=left;spacingLeft=6;overflow=hidden;html=1;whiteSpace=wrap;" parent="dMKIddMupNXmEjf5BekO-185" vertex="1">
          <mxGeometry x="60" width="130" height="30" as="geometry">
            <mxRectangle width="130" height="30" as="alternateBounds" />
          </mxGeometry>
        </mxCell>
        <mxCell id="dMKIddMupNXmEjf5BekO-188" style="shape=tableRow;horizontal=0;startSize=0;swimlaneHead=0;swimlaneBody=0;fillColor=none;collapsible=0;dropTarget=0;points=[[0,0.5],[1,0.5]];portConstraint=eastwest;top=0;left=0;right=0;bottom=0;html=1;" parent="dMKIddMupNXmEjf5BekO-166" vertex="1">
          <mxGeometry y="210" width="190" height="30" as="geometry" />
        </mxCell>
        <mxCell id="dMKIddMupNXmEjf5BekO-189" style="shape=partialRectangle;connectable=0;fillColor=none;top=0;left=0;bottom=0;right=0;editable=1;overflow=hidden;html=1;whiteSpace=wrap;" parent="dMKIddMupNXmEjf5BekO-188" vertex="1">
          <mxGeometry width="60" height="30" as="geometry">
            <mxRectangle width="60" height="30" as="alternateBounds" />
          </mxGeometry>
        </mxCell>
        <mxCell id="dMKIddMupNXmEjf5BekO-190" value="NotaComentario" style="shape=partialRectangle;connectable=0;fillColor=none;top=0;left=0;bottom=0;right=0;align=left;spacingLeft=6;overflow=hidden;html=1;whiteSpace=wrap;" parent="dMKIddMupNXmEjf5BekO-188" vertex="1">
          <mxGeometry x="60" width="130" height="30" as="geometry">
            <mxRectangle width="130" height="30" as="alternateBounds" />
          </mxGeometry>
        </mxCell>
        <mxCell id="dMKIddMupNXmEjf5BekO-191" style="shape=tableRow;horizontal=0;startSize=0;swimlaneHead=0;swimlaneBody=0;fillColor=none;collapsible=0;dropTarget=0;points=[[0,0.5],[1,0.5]];portConstraint=eastwest;top=0;left=0;right=0;bottom=0;html=1;" parent="dMKIddMupNXmEjf5BekO-166" vertex="1">
          <mxGeometry y="240" width="190" height="30" as="geometry" />
        </mxCell>
        <mxCell id="dMKIddMupNXmEjf5BekO-192" style="shape=partialRectangle;connectable=0;fillColor=none;top=0;left=0;bottom=0;right=0;editable=1;overflow=hidden;html=1;whiteSpace=wrap;" parent="dMKIddMupNXmEjf5BekO-191" vertex="1">
          <mxGeometry width="60" height="30" as="geometry">
            <mxRectangle width="60" height="30" as="alternateBounds" />
          </mxGeometry>
        </mxCell>
        <mxCell id="dMKIddMupNXmEjf5BekO-193" value="ComentarioExibido" style="shape=partialRectangle;connectable=0;fillColor=none;top=0;left=0;bottom=0;right=0;align=left;spacingLeft=6;overflow=hidden;html=1;whiteSpace=wrap;" parent="dMKIddMupNXmEjf5BekO-191" vertex="1">
          <mxGeometry x="60" width="130" height="30" as="geometry">
            <mxRectangle width="130" height="30" as="alternateBounds" />
          </mxGeometry>
        </mxCell>
        <mxCell id="dMKIddMupNXmEjf5BekO-194" value="" style="edgeStyle=entityRelationEdgeStyle;fontSize=12;html=1;endArrow=ERoneToMany;rounded=0;exitX=1;exitY=0.5;exitDx=0;exitDy=0;entryX=0;entryY=0.5;entryDx=0;entryDy=0;" parent="1" source="dMKIddMupNXmEjf5BekO-63" target="dMKIddMupNXmEjf5BekO-167" edge="1">
          <mxGeometry width="100" height="100" relative="1" as="geometry">
            <mxPoint x="1200" y="390" as="sourcePoint" />
            <mxPoint x="1300" y="290" as="targetPoint" />
          </mxGeometry>
        </mxCell>
        <mxCell id="dMKIddMupNXmEjf5BekO-195" value="" style="edgeStyle=entityRelationEdgeStyle;fontSize=12;html=1;endArrow=ERoneToMany;rounded=0;exitX=0;exitY=0.5;exitDx=0;exitDy=0;entryX=1;entryY=0.5;entryDx=0;entryDy=0;" parent="1" source="dMKIddMupNXmEjf5BekO-112" target="dMKIddMupNXmEjf5BekO-170" edge="1">
          <mxGeometry width="100" height="100" relative="1" as="geometry">
            <mxPoint x="1200" y="390" as="sourcePoint" />
            <mxPoint x="1300" y="290" as="targetPoint" />
          </mxGeometry>
        </mxCell>
        <mxCell id="xRZ3aG0bhwhxQagtVehW-1" value="FÃ­sico" style="text;html=1;align=center;verticalAlign=middle;resizable=0;points=[];autosize=1;strokeColor=#6c8ebf;fillColor=#dae8fc;" vertex="1" parent="1">
          <mxGeometry x="3080" y="38" width="60" height="30" as="geometry" />
        </mxCell>
        <mxCell id="xRZ3aG0bhwhxQagtVehW-4" value="" style="shape=image;verticalLabelPosition=bottom;labelBackgroundColor=default;verticalAlign=top;aspect=fixed;imageAspect=0;image=data:image/png,iVBORw0KGgoAAAANSUhEUgAABC4AAADUCAYAAABTaWLKAAAAAXNSR0IArs4c6QAAAARnQU1BAACxjwv8YQUAAAAJcEhZcwAAEnQAABJ0Ad5mH3gAAHg5SURBVHhe7b07a1xJ9/9bOq9CAvsHDZM6UaTueSYRzAsYNRpwKxocOjM+wcGy4C9LmXHm0EykNoyR/AIGlMwz3eIECo5Tg/DPBuld9FmratXeddu37t1SX76fYY/V+1K7LmvVZdWq2hsTQgn/Xo3Uzzs9+QUAAAAAAAAAAABw/2xsbChrrvi/9P8BAAAAAAAAAAAAFpCN/47/zTwumP90f5a/AAAAAAAAAAAAAB6Gb9++6X+xVAQsLK5rEABFQE5A20CmwCoBeQZgtYBOg3XClXcsFQEAAAAAAAAAAMDCAsMFAAAAAAAAAAAAFhYYLgAAAAAAAAAAALCwwHABAAAAAAAAAACAhQWGCwAAAAAAAAAAACwsMFwAAAAAAAAAAABgYVktw8WPoepvbKj+xzs5kebuY19tbPTV8If5PX6zQb9P1dj8jKi6fu9cnXrxBzWYQjbM31z2ZQfLxVid0t9VYU/DssmmybMF0pW2EPnZ+H2okqVcU77uE8jOqnOnhr9zGZYd95GfEo839k1BfVilGwunO2F6wOqT1qXTK7ncOi32GXR/sCSuVdfvnfn1l8BDYMrT1ZvUUae8p+sD+Lp773KO9u3egcfFMrLzSk0m52rwSH6DubD59Fx/N9get8M9OnuiRs65yeSV6tJ/r+jv86eb5sE1xuQZ58mK8ulAPUeHay6svOzMi/0zdevVSe5xH/m5qQZ/0bter0rJrVp6QDk88NpSB09Gvu6MT9Rhd7k7+IsJ+kurhSnPXHdG1EtWam9465ybY3lffVAHn/bU2Xfznlc7ch4UsPztGwwXAADQgIvBc3g7AQDACnD38a065AmJsCO/88pMVhxdNpwBBgDcF3c31/T/bdXBRO7asBaGC+MSbY9TdSnnpyfhVuha5ZNLOeSZwNXcjxsfrpuUeab/cZi7YvHzyfBDdy0sJalDO7Lhuz7qMKmcxt5Sk1R5xHI0s5ubuKUVhZl2xRPZ8WaWEu5/ieunJJvZ++h6MnxxVc2OouUWS8DecKTO9i/UwYs6aagoXymr06sgr3U+B89GeQbZAU0wed7/OE7KVVgP+mUcXg/vEVn0yng2ovd55W7TEmiElp+gnk3ItPeclq9TNdTPmuunV+n0mPCdsFpML3hortVNor+U9gIL67dA5rL+WXBfUl5ugno81r1I7mbu28Vthxe3ZP9Sngnq36q46ev0zDDT5zxffP2dQ3sGFo8p2vPietfIzNbggv4+VL0gvPL6Oq/j/ftSulWh71NQ3r7lcfOQvEv1Id2w1qF9W3HDhSmg3pHj3k9lcaAFfVo4zC11oFz33JE6OepFHakqWHh7X9xwbmlQRAoYKPPF4IBulnv+GqjI4UoLb08dHueujrdDSudjVP7FzEM2HD4dqN7nfla2pjzcCo8rw0COxDW1qRxlsBw8JllxXfR0mE0rWo5bT1274Xw/U3sJGT8cnKu+uOilXM90Zdg9VCdWflnGKdVbiQ7actBRg3eUF5VLRuqX72H3rerYPKR7FOXzBj1780LOcf1C79vKGpLisKfWd8jOWnAx6OVyxeXCckWdlLc/2fKK26C67VRb6Pe59bIt96YdKZHp7Ux+6CCZvhhsBXpyqA6cujrlasxx2hqozB3Ztvl1Ot5gsdn8pa/21IXuL1W2vYV9rbCe5PAu1a7cY+v1MHxPHxN6xXXg1mDbW546Ouawp60D2+u/1o4b1TEHyuZXaonzHPpCYOEobM9L6tDCele3BWbJg7eEW8ZHtetrOvdcvZd7WP8C+a2t7/VB+zY7q2240GufSKTHjsXcuv9NzY26oTD3ftt1DAhTrNkjoXt7RHF74RoiSBFfUAP36Vxdukqxf6aelazbGv95oC54nbPT+d98+p6UkET2HTpWSeYiGy5UMTlGJlMeVCn+aSqnzD3VNUTR+0fH3Jn5MF2n5McNdZf2VP8XRw6n2A/Fxu2lK8+PBuolx+3zpS9Pxy9Lwh6rDwOKEQ1i88qSZJwH/vSGt8vaKaG8eE9yUrZkpEn57g3f53m4s0tPEdRQ5nnWVbv0nPpyo/PehL2nzt7FYR92p+zQQnaWFzE+eLMlckQdf1euHu2qPrUR3L68z8prU+3+RnXgJ2rn+GeTdqoV7tTNF/rneNeZ5TYd1KZrcm276LWdO89Mu/i3ryV++gJsHoxdXaA2nwejlPcfMDmw3FD9dM5lSXCnP9efuC7VMsX1etTXorY98MLz+xZG7i6+aq3K8er5QPeyOvCZowskeX+YOvByKrlrqf/aKG7UVv1RrLtz6QuBBcPISyjvpZNAUu96/SNb79KgunCSpkl9HbR9ul1zvK+a6Hs90L61wUobLszapxO16xYssdnZlr+mwQwiTAM3rdWb4MYys36J6w43lt1DfdnjSadY6KwiRPeEjSBwmY9sOOx3VEf+NGyqzhP6R9bL3nylSjy6h6TrV7/ibIQe9LLFmORoBjcvzz2WKjXritajyi1k76cwBQ40GNarDzuB9MqAKerELRFVjVeT8o3yp5Q7dfmZw+6r3WDQD9lZU9horWdJ4iMcjJTmeYom7VQrSLvFsz0zuuR2X1Me2MFQ5qK8pQ3WPnvl66PFqBfdI0bG65vm3VewYGgjrdGZfPJC3M+z+nCsLrke8wYdTKqvVSFTQlofbR3uGxR4VlTL8GMeTE1LS/3XRnEr339gLn0hsFhcXZI2UY/712BwXtKe3/1zrutdbzKFqap3m9TXpWOrJvpeF7RvbbDShgtdIaZ41KFimh4tMNpCLw2bPpo3Alllr4XtxLgOieW/PsaCDpoxL9nISFSInZ9syGJsah3TmeCZClMxinw1Hoiy66Y8yx0RcZPT4TZBV4irStlswbzK14HeG82yzzSYhOyANO20U/XRxi9exkISoA1p+t1TdPIcwxnrhtnlnt2B5XpNjJEbrAvG+MpGDJGVcHbXrR/lMOvsayBec3XR7vXyjt6RfDlB68b0tNV/bSdu99BWgoVBf6Unkzk+UgNtF7cNsEdPG0GKmL2+vvCNZbPoewK0b7Oz0oaLfKAYEHSKC+/TSMUaWoQdC70RQm4EGlT+V6d6FjJf7+W4FTaC4tVQUEF92ZiaRAclN5aI90UNppFN3TER2TS7olPF22AAOn7DDYMMUPho6MKW0ZYRaFEpXDJSv3ynRgwC8ZG7+0F2wMy00U5RWZb6sUmd63nXiKeHeeeIJIo7eU06d3dq+MK40lpvlGau8DmteeGBBcQYWtN7KYhxmv5yZx3Dzzzmx7R9uAJoYPJcL8ew7ytYtldRV5qBSTCjOmv/tW7cKrmHthIsCPknS6OjsJ/g9CWCo6g+b7u+rtR3tG/3zkobLkyBxGsBQwtT0X2G1JrAABnAlLu1+Z4RycaEGP/ddNbUX4KQY13KYxc8UF82piZyI5OBorid6UFlYo24Kf/ctXJW2bR7nZTO9FDFmqe6wFBH0qXd5pogFXq43k79uFTnHO+mbusLSLZkpOu7yNYt3+ZYV8P4E31mBizvfEJ2wKy0006RPJAcRXucCOYd8bK9HFlvSxpW5jbue9FJext6von8NEIPDC/U+T9B7MX9udlSL7BY2KUT5XspmDKWexNyrL2S2t7ILjXgIYwLvUNRXSmYpRjx0sKMKfqvteNWg/m1lWBhkKWoUR1KWldkODSb5ib6L+JpULjHRWv1dV19v5/2zR+brHn7NnH47/hf+WtJ+X42oSpwsje8lROTyehYTUhoJiP5be+hztjk7LucI8x9/rnJ5HZCHXf/efqLRGyijvMz2X37Z/QXE99jwnfuGZ/o325c7bk8HhKu9y5C3+fE1abJue92uKfDOhnLiSUkEM/ZmEE2LCZPXVmwmPK2YWdlHZW/G67ISCYzREomiNqyKc97ZR6mO8oHGw4dEt/U+7I0BTIexjXMo1gOUzo1Gxz+3EnIT0YmN+71GuUrz/k6GtcdjM7/sH5xwy6IH2RnOvi9i4/khysHhaTyPP28Vw6pOknO5eUs4WQym3iX1ZFAruPw03EyMpSXe/i7ME6erNhzdNh46OcK9MOJayzXCR1cYDjNoAgpy6hekfOuzKbkWGQvq6fKZKpWHSjPpt5lz7nvYyI9MsR1aCJNBXGL5d+5p2bcwjrdEKZd3ufqUkF6QA7nz2JSJtu+3Ib1eCgvcb0bympaxqrr67iO14S6XEffmdR9TCTHcfyZdD448Y90S8Lx0m3P0WHjod9fUBc5ca3Or4eH02XxJH8VDReMKRR7UOEMU4VphcW9l45QEDVSqO4RFrAjaHxwnHQ83PtEqL0wvDSUKVcY/zBOviIvI5yO1phRNphUBWnwK2pbzmde2KnnnIrGvj/xXqa2bIYyRUeY5vCek3FRRZYfHIZfmfpptiTzKIxTUqemh8OcOwXyY7Hl41+vKF8J02sAJV/DPIrqjijsMJwcyE5z+F2LTywDqcPIRSrP5fmg7YrKISyDynYqXb72vBdWss5LpSusP4N7OE46nm54cTicF0Y+JbzoGSZMjyHUozh9iwvHF5QT1lt8pOvUUI4D+SmTqUzXyupA51nRs/xdLLfy/rAujO6194ck9DCoA8KwOJ5RG1Qjbsk6Xe7x0x7qaph/IITzaTFJy7Ym1ZbIJSYlL2G9m66XYzkPn0vKW6hDEr9knyw7imQzoVfJe+N2KRV/vz6i66JvedzicFa5feM4WTb4f3RC8+/VSP2805NfADwsvOmMI55LA7uR9b6cqVv3815gbiyrnIDFBTIFVgnIMwCrBXQarBOuvK/0HhcAAAAAAAAAAABYbmC4AAAAAAAAAAAAwMICwwUALaM/KYllIgAAAAAAAADQCjBcAAAAAAAAAAAAYGGB4QIAAAAAAAAAAAALywZ/AlX+1vyn+7P8BQAAAAAAAAAAAPAwfPv2Tf+Lz6GChQWfewJ1gJyAtoFMgVUC8gzAagGdBuuEK+9YKgIAAAAAAAAAAICFBYYLAAAAAAAAAAAALCwwXAAAAAAAAAAAAGBhgeECAAAAAAAAAAAACwsMFwAAAAAAAAAAAFhYYLgAAAAAAAAATM/Vqep/vJMfAADQPjBczInxmw218WYsvwBoi7E63dhQp1fyE9wzJv83Nvpq+ENOJZH72qgDqDPovu/uY59+n9Ib2sCmxz2q0gYWizs1/N2VNVOmDzWAMPIZypQbv0UjyL9A3wAoI5P3Cvk297UhV3PQ9x9D1S+Im+7LVumxfp6udQ/VxWCrpXSCVUfrxO9Dkug0ZdfDdqayT1xYr4s+lYYV3pPuf9WJU7k+xXHxj6J+X1gnOOh052GsgmERhos5wMLbO5IfALQGV049dSi/wAOyr9T546JGhDuSLZbTzis1mZyrwSP53Ra6s9lT18Nb/X1se9wOlTp4vBoN3HqwqQZ/Udm97srvB0I6SFuDbTVy5Mkct+rsS29BO04Lkn9gidlTeyTfRbLNfcKtwYX8mpW25ZXaq8cHKo6dGQz1jk4cfR6pkyPSY3cwyXpPzytuR8Ynao/+NW0IjBegBJKbUp0ouc6D/62BUmffRS6/n6nrblnbQjLeTfXIuK+2pQ7UmboVGb8d7qlDCis3OqTuuVa9wAhSHac6+iS6nV2Xg/SK2Rs+Uymtv/v4XB18kh8urJvday9OarC19H07GC5axQhmew0UAIIeZFLlmaqcwP3zpK/6+4fqMmXlv7pUh8cnyjQ1i8v4T+qs7p+p90835Yxh8+m5Gh0rdfH5Mu+cAlCG10F6lehcSYdsRTpOAIT0fzspqDPv1OVnpU6O9+T3AsF6W2Rk/3Gpzqm/cTJ29bmrXvEg6tO5upRB2/hvejpoRzafvldn+xfq4M+0aR+sN9rrIGlIMJRep77w2yMexL/PJ3MeDdT74Z66GHxQKYkbv0nL+N3Ht3T+RI3+GlALZTCyq9Th3yYkc8+eOnsX3uPId5041dSnGDG6HI/UedBX09C7nyfHnPa5l7XzaVmA4aI12GjBA0u2pt1qwQegFdhowTMiVHFxx38Buz9rSEft/raXNW4u479pAPfHrvyysNU+nhEwroXWcm8Mn/2PQ32vdu1jS7zuXJbPXoUuilVuyxmfbtSN/OnSfU2DTKcxZ6reYa6HXigm3eZekz4vDOdw3Sojd8rWlsbMHx13Krexl19Sfros7Tk/zdX5R+jnT9XQCfv0SvK1tMzjvE+5sU4F10/UQToZW68g/10s85mcq4E6p47axeB5IM8V8eN36HOSH/ZIyVXCtbhcnurkX4KgLOPng7gGOpyVd0omJL32HAw9S8Avu+okNQDhAcuTl+rZT/JbeHB957BJb9lDws7oetAg53wyUa925LfHhbopaY8yQyW8mEAA18W9oz1t5OYJkpCq6+rHDUnfnur/4g/iN3/p09nEZBLJufZyiGScDYoUUuTF4MvuzdcLpfb7atcO/jWbuv+nji6N/taJ05T6lBlO/kjpEun5C/Z2GsVjTorTNf1z8muQuqJ8WiJguGgN6+KTmm0CYAakwkMnYLHY7GznDVfGWF1+CRu5ZlwMqCEac11CR2A8SMENveeimHLnTdD9lRvyQ9VLdWoDpn2HT8oNksLhS/tn6pk06Lrj8iV3y9TLDPYpno3e9cB8OlC9ry+d+F/o5Tcb7zqBS2q5QSrNoTr43M/CSXeEXHgw5Lu68kCF3WHbGBBrz53jkcRD3vVklKW9/3nLeCHazt/OM50f5//YdxfHL5TLw+5b1bEyyB1RlkF69uaFnGN5orzfcgZ185AnPejUxhrnvRwX+15teOipQzY2y3vtEiw/TRQPRya4o87p3nh8o17KOU4n7xtQpaPgoemojifXhrt/ztV2MHhoxpz0XS9BnKRncUu4u+Hh0J7qSBvX+YkGcKRzz2FcAzXQkyIlS1+rrldxfePIYWZUT43LbtTNJ6W2O5tiRLRGviZt8nWFAc/gxSkg1CefsfrAbafrNeEwfmP0/P3TjpxxEGNKOtzyOC06MFwAAMA07OzSoDuwXF9dquvfdiuNDaU4g/hKqGFmF8V8tpux7ocH6kPZYIc6rjx4ZvRgyTbc4YBulneUwrOC7MLpuGrad71wDTabavCC31XmTrloUJoyQ6PMzvCsietuqmc+qmYu0/j5U07KHZbLXi8HmtlldKwueXZMZoOMS66fdl12zJOOvN/kx8VX4+uTcsW18Tvs+jPSniuu1j8iM5owXbXLs3RfbowMz0WeTGeSZ6rd92p9EEOmXYZ16xibMxfkd65++ek2xkTWNaejLelc5o7meiBy7S0X4VndbbVbtz4vYGH0nfRJu6U7A6lsaSFvykmDRBjZwFx51Em3m3qg7mK8EXKjeoB4JHDfZyubZIgNzMYwF3umak8MS+04BST0yaXU20J7kgTtZh0ortvy57ICwwUAAEyFGSTly0WooXx3HbkLNiYb4NWgyKpec7DDnU7bYHPnU8Mz1hvO7NyM7yjCbChFDe93Z5DmuVM67s7UIV4q9jsqMQfSEsWzKCmMq2scHzNIrjdjVAjv55K50bIRg40Lgeut7tTR+Z9SOWLcdWNX3HT8eHasEfOQJ+nwRnHRM9gsy3fq5gv9jvRYDFheJ3i7UVmCxUYbI12D2NUHdfBk19eHxiyKvo9lE0/XMGkws+R5G2IN4TBggNahOv0l97tcb8UfxrPCxfQvYlmNqDAwbz59SRLve+ixh4b3AYaacfIp1idDcduon6WwPUP+GgHDBQAATInuDGbrHC/VuUo1MvPDuBm2g+182uUbdh+CNt+RcWV2DPe9OAzs2m+8P7ZkzyCKE89mgymQQfSc0LJhB+hsxKB/iowL7nlvtooRY5kpdzlaMla1Lk9Vs2jiggzWkEe7qu8sF+GNK8M15vNlXvrOy0/Em6pkOTS3h3rPDGlDfO8iANqB+yqjY1l+yXX7C6Xe22WnjHgypJeIBFQamLvqlV2CKG3Tc/U+akMq4+RRQ59kM8+9hAev9mwMNsStjRjelxkYLgAAYFqc5SK8llnNukykIXqfjWng2QBqXNMzYuL2TsMznp2b+h1F2JmIlAundn9kV3lrRKnR8QAlbKrOE/nzXohnh1kveFYpd5c3nhnegM7ZC8I/pl/rrHkQeeK9DuRPsGa4y0VYzl25vw/moO+6rSgaZPEAjAZp0UahXfWMlyEWbP4MwKzkEy108LIoPSA3G2SaNif3/NGHNoSLYYHltdGSCTZe5O/jfWG00T7whiiLU0apPuWYNMQbftr20zf2s1Gezuk9n8Tro2j5itDYe3GBgOECAACmxi4XGepP3jVdJhLNPDdFGqdwQ7iq2W8zM1g1IyaD0GnfwUTWfXGPDNwzLUUbVelP7q0jLcyOmDW68X4OJk9bWKpg95NIdpRkczHHdV2v2832cZHZrWiTW74v9dWFZsxFnoqWSGXGQBk8Rmmyrr/zXEYEHppsuchH/ix2w2Uii6bvLNO2vk4OsoI9ZQCYN1k9K78FM9A38u0ugc0OPRnDS1Ppb933ENktqqdFd9PtkNxjvTVqxElTqU85ZslXyoPXN6KYQ75kqScAxNgvhpmwnYonEpYPGC4AAGAGzHKRA3VQukzENJLe5mgyGzwTsrbS/7ykWf9Yvsnnphq8O6MO9oHaSmzGyR4R2frJmu+wn9l6m+0uL5tjyS9GuzjyTIO7cZyD8e4IjCRt5NMSUCf/psGs0b1QBy+ccpY8jT8F1wxdXnZWNTKG8Z4SXN6EdPDM12m2g+/mx2uIWQbZ1beV+LUuT2Y22d+EUMpK9KH7B3+2mtLkzESbNdfNNloES4gsFzkYUE1Xskxk8fXdMTIX1NeMlnVqR7yvitD7eCngrPoLQITdT8KddBF5q7U0xKG4ns43xLTtU66n3I7JskM7+VIrTvX0yVC0T1ITEu1US+3qQwPDBQAAzIKeaaZOYcUyke5r+Qyjde/jzyC2sHcDuyfanbCN22BPXfM646rGkRrbc7bUq2B/gcfnqv/d/0xerXdweJQevbu8voc/UykzAQw1mvyFB2re8zxwDr0ZKG9w6IVBB+fTd+5gJLw+Vomq/JsanqEJyrl7rWee3DI2e0E4M0tswKJ73U8omtknZwMyZ6kUdfHU4C93LfBzpd7Jhn3ahXVD9RTPCIWdy0T8qIO3PW7+qcaINuQpkQ96Ro/CzV2RqSPLn4C1+qB1i/JC0s2HNthM6nzOEiw3drlGxazmA+t7FeaLBoTnkp4fmT6IrG9zOrrmqyL8Ly/Pmll/AUig95N4Est347o1WU/zZ9+DL6hZ+ZZ7zOe1/XasKk619UnTzj5JUTtF7aqiftuy6+XGhP1MhH+vRurnnZ78AuBhYUVzxBOAJJAT0DaQqfqwMWPrc7/GLFIOG0l6R+VrfEF7QJ7BvXB1qvo3z2CwuAeg02CdcOUdHhcAAAAAmAr9+Tie3Q2XHBVgjBbBZ3ABAAAAACqA4QIAAAAAU8JLRBw32egLA8LVqZ41MZ4WM34tBACweOy8grcFAGCuwHABAAAAgJmwn4IbqXy9sHd0ld7jAZ+4BQAAAMA0wHABAAAAgFawBoz4gMECAAAAANMDwwUAAAAAAAAAAAAWlo3/jv/1tqX9T/dn+QsAAAAAAAAAAADgYfj27Zv+F59DBQsLr4t2xBOAJJAT0DaQKbBKQJ4BWC2g02CdcOUdS0UAAAAAAAAAAACwsMBwAQAAAAAAAAAAgIUFhgsAAAAAAAAAAAAsLDBcAAAAAAAAAAAAYGGB4QIAAAAAAAAAAAALCwwXAAAAAAAAAAAAWFhguGiTq1P9yZb8OFVjuQTALIzfuHJFxxtI1oOS6XpfDX/IuZa4+9hvKdyxOqU49j/eye8p+TFU/cJwzDs4Lxq9h/PPlWGdn+3n5XIgedhIp1sq22kRmfDqJH0sapt3p4a/U/yyPH7g/AMLiMhIJNPmmFZWTH3eTC9Me59+xoRXfL0IDvP0Sn4Q08TLx+iQG2ZGzb5w2K9JhgVWFi2Dvw9J89KUXc/1oKbsFPYxYr2PwwrvSclzHE5lnVE7Ton3RW1wEE6kg/6xzG0fDBctoZWoe6hOxhP9rVk+RseHqre2nXHQDqYC6x2dqJHI1WQyUidHvdIKH8yX8d+HSu3vqT11oQ7+nL7rN1+66hXJy/nTTfndNtxx7alDyoWz703eQzL9jvLPZecVyfW5GjyS36CCeZdtEWJkeXygtp22zh63w2tq8+j6wtVNm2rwF8XxdVd+A1DA/pm6DeR68v1MqcHWVBMGm0/PKYxXpLGzw/3MrcGFUsejZmHSIOftkfwtzBYv7pdw3R9Tty/MRguvXzM+UYddGBPXBhpYa1kuouQ6y87WQOl+h9XP61LZoXaLZDKG27MtdaBynb8d7mk5zI0XqXu4nXPlOb6nus4oihPrFoX1hHXchGX0xzFesFGC2mA1vM3uuR0qdfDYibfuU0lcsuNWne3zxRP18t77Di1Cicn47/hf+Qs043ZCwjChxkR+W0aTE8rivSGJMmhMIJ7ryfezyR7lA3UCfMYnlD97E6q41577l5Ncr0fHpPfqhM60BzWci1W2IoN+PWbyYLp4FtWXi8P9ypTk5QLnh6Fueyblu39Gfy0q69U2oy2tQ4Xc6jb3fmQm1a6YdmHKeqKoHzENEpaOSxRmzb5wQXx0uhe63lgcllmnjXzLkSjv0uvJ/ojVj3RfLA/P76+kn/FlON0fC+S8oD8+fZzCsHz9SetJke7lpMNeDjivLPC4aIXy2ZyLrzfyFwANeTRQ56Szr3bkt8eFuoE3z71z9/Gt9jLo/7Kpun+c0V+H6jJ0LcxcANkS77joJazvvrvsqbqU8wbjcdP/OMzDyWazzbX82dDF0bzbn4UI4sNH41lEDoNn23i2LOUlUfYOvralDj7Rn+w1ZGctsvzSNxkSyxFWYjYuSFf/Y6p9eKiyLUJmWI9HmZeH56rLMinp6n9U1B6O1MmnA/Xci19FmuT506sgHToNwbMJj47Q7dx3r5Xnm+aHlksnzOj5MM99GTZ5RPEIwtHpjuRgBWR7ldl5pmcrLz5f+rIXykggm5kMyG+mXFZjrKcFDVzS/cyyupLj9/iAegtKzyTb+E0VL34Ph8UeH9+57Qup2Rcu7deAVYZlrHdkvDRpAB5RdV39uCFZNv0vl81f+oV9Me3ZM6ahv8eduvzMOvUs8DryZfjmK2nOfl/tev2cTbX7G0n/0aXRj1KP0eu4n14Yp6L3ddUu5YWte7qvKX5/DSgWCb7c+PVTxlh90N5aL5fesxWGi3lCCnZN/+z91DG/AWiJuxstWaqz5BXQ8mEau6xhebSr+tSZPXwXD6TYsHTw+FLtUgdtwgc3UjRYzwcoZjDlu8sqdZBwj7wYHFC7I/foBksMAK5rorja+gNcF36mp64d90Ld+fTiVIUJwxgtUm7GVe/gJQ7irqjdnQsae+kge8sRKH0Xg62S9C0BMojIXTxvVf/zAeWny0OVbQlXH9TBJypz6cxx53JrsJ3J7e1v52pLD45sh7Krng33nEFe/TQddt+qjnUBFp3ZoGdvXsg5Xir36UBtOUYE3dn94oStZexQ9RIGjrrogZ3n8i5L9Ox79WDRGHPM9YS7robi8a6TxY0743oA+fhGvZRzKyHbK8+m6jyhfz7dKGtqjGWE5I6kfKtE7prKqmu0SC4Nq6oreVAlRgYdz4IBT614icGh8ZKrGn1hTmfviOL4omBABlYCPeguWRZadb2K6xtHi1g3tH6m+iqkx5+U2u5sihHPGuuCCZRSEkYJB22EUNt+P700Tnfq5gv986ST1gGn7okx6Sl61k64nf3RUHcXEaqgMrBUpE3EbadlN/J1IhBPYLGumtO4jK4g9yonCRfXpPuduBX7rrAp98LYXdYPT54J3AKLXP6M+6Gtc3z3QvNMXB+l3Q4dMtfMMx0ex7moXqv3joRLY+BqmY5TtStkW8xHptJlacvJputey7YmHI59V1puJQ1uHLTcmN+10pR0AfbzxuKlK6GTGk+mQtnx8y+m4LoO08Q3nbd+GSfTXZJ/xfGZjfnI86pRpJ85fnmmZTOUY083a8mqyBY9c6af5b+LZaNUDm3cEu+dJl4eRc9ESFzsu0JEH/QR5iUoZBV0Oi27OcnrpbLq6kmgA6EsSzih3Bm9yMP39MTB6GiBbjBRfJiKOIXXHYriYSmPT0FdtUS48g6PizkxfrOl3aHTVjUApmWsTvXMZj77Ce6P8Z8m73cdF1fjopjapLPcI8Z4zfhhMZudbfnLwbOiB14fDt1fqXkqmAXwNmPTs8VmhoFnuerAXh/a00LP3qVnCGd9h8VzhcxcsU2duryYGZG933aDGZGO6ugNs5iHKdtyxuryKHfNNRvTnqlnntxKGvbpX3PCoVmaeAasEZ7bubOkJLnxWU1khjiKi3YJ5nwumhkTF2JvZiyYcQOrwdWl9pQ6+TVoh8ULL7lEuJGsHmrvOxr4aC+dIo+cVurKeeiQUNkXzjYRvFVnX9i7qnzZDFhzSFZfaq81xzNCvBhc7j4+97wEC+HNeJ17Np++1x6h1ot28+lL6vX4/R3rHVSIjQ+F/d7xkqodp4bY+OwN36c9VYrqqiUFhos5YNZocUWNNXygTYw7uB48Jt30wXzhARz/S42Y7hzKoQ1JhF3vWIWsQTRuhAkedbRbbyXsLu/Gg4/SjibLj9zHcRYXd+4U10PkjjoO74c8OAv3MGBmfYfgDL45Tdx51x3bbIC/hMhgOEZc0F3uvWxL0PG2g2/RgSJXVvc8PedJeOM01YfbXBMmD5JYTmkgxMtMpiWMe4S45YK1IuX6rZf9eHJdbjRoIqtc7/HykO7rEdW+/K7EoL6lurJ1HSKa9YU31eCdMYq/bWN5G1hZ2Fg3OualuCKzL5R6z0v55DrrxPPBRb2J40rjMy9vleWJomfP1fti3WB95DaYDSLusqwmcUpQ1F+sXEpG6MkGyp1wkmxZgeGiVeyadRgtQMvozgmMFg9JtkbQrr93D92IJTaGKqHzU4F5onLQJDhr6/0jvT50/MbKj9zX0OrvbmLFM/ypWcBZ32GgevSFNPwSzv1/9nMOPOrQkCeFzN673HPZNiVaq/7jUp3zrKozo6M7S8e7eV3VME210RudmTbXhHcf9aPrJQPWA9FTz6uooD3gI6WDjWTV/WQhDZ6Snm4t1ZWt6xD6wmC+mL0w5GADgTawG8/Au3/OdR/KMypqI7kYO3ifosL2OIX5/Lh9H+uY9pgNvQjZ4ylltCBqxYme0JMYRRtsBh6NbBisMlrQXWaywW2LlxwYLlqDK2q2VJuGDBU1aA3XggujxQNR7O6u2dmlbiY1SslNOtOYJSGxscMsISkj2NHawWwylXK1TXW6GetF0px4FrCtdxRsMiWD4+XFDHajrxJ4s/eLUbYxdjmHpCFwgzdLqJylUVRnveWd4fVGYNOkqT5FGxWbWaYpEX32NnpjtAGZN9+UDmaUJltPhGUBlh69QS0NxO3mkVpGLtT5P2GNb7yfUpviziSrSU+3durKdnWoRl9YL2lJbIIoRvvGy8XA+pDVwfJbMIYB4w1llk46hg0+9OSSGBq1UdF8qaOwDpeBfrqNkntcvWOZZkMEG+gDowVTL04yoRVtwmnacneZqevNVGqs1AYdum9FlokwMFy0hFnHxwI44+wRAB7UCSqw4IJ7RDqC8f4EFmkEP52ry8QeBEl2XmmvBc/9lxpldiesIrXu0j4bf96LsTvi+/EzM/XT0lWvxNPExKPuOypmFWRw7HcoZGZRfi0n4godLLEJ82cxytZBz0zZTy9bI8TbbNDBHTvuQGUu9DLrtD3O28LmaaqPMQAGA0iZQZ4e+SqK51GUz27z/h72U8g95+smZg2zM7gFqwEPlmRQkg/EUzJi9c71lsiZVVbt+vv8nTXrSpldjgxxQps6VKsvrD8te6EOXvj1gd0XwN8/BwAHu8eFO0lEssqeB02XYRTX4SS/8vUN23a5y5eMjJ/ke1U49cOs3o6ptjKsU2ybW8ubSRsDy/dbWzomDviqyJS4u9OmjpJdc0ExnHfrjt3huOjYm9Mu9MsE58O8Gekdm4t3dNbYeoB3bo52i2Zkx+igPjBh24OeGbrPFu8ynV3Lng132o6/VOC/y1wzMla0GzUh6SqStUxGJV213iE7bvOh41y0u7YTDt9XqxxagN83N8L24vgsUcbzKds4/+LdxlPyoJ9z7nHfpePglGdx+VSkSfIllc5Q/vX7XT3y3i/XPLkN9SjMv/R7onDD6/a57PDTbvIyyA8Js6o824TfB6qI5dM9/PJySMmeXGIiGaiUVZHvQj3KZc7EqV5dmeusOTdNvDxS+irnvHDcI8gbtx7hY17yv4pwfi07UT0eUHbdl52S/otFy3fqvrAOr3FPhRyHR3ndkXpfqNNuXRDGNzz8eiPVni8jnDbLBv+PTmj+vRqpn3d68guAh4XXgDniCUASyAloG8hUAM8oPT5X/SYehex50T3EGvcFAPIMwGoBnQbrhCvvWCoCAAAAgGL0+nqlDh4n1qWnEKPF3vAWRgsAAAAAtAIMFwAAAAAoRW8uNt6WT9AVbagpn2UVT4uV+BoMAAAAABYCGC4AAAAAUM3OK+2uORkr1WMDRXT0lBqbHdPhaQEAAACANoHhAgAAAAD1sQaMxAGDBQAAAADmAQwXAAAAAAAAAAAAWFg2+BOo8rfmP92f5S8AAAAAAAAAAACAh+Hbt2/6X3wOFSws7udvACgCcgLaBjIFVgnIMwCrBXQarBOuvGOpCAAAAAAAAAAAABYWGC4AAAAAAAAAAACwsMBwAQAAAAAAAAAAgIUFhgsAAAAAAAAAAAAsLDBcAAAAAAAAAAAAYGGB4QIAAAAAAAAAAAALCwwXbfJjqPobG/qzLfr4faju5BIAszB+48gVH2/GcgXMyt3HPuVpXw1/yIm6XJ3m5bEquu7UYadXcs5jrE7pWv/jPaRW529VuZj43Lc+aH2cosyNrInMrKEOe+l3j4XNi0Dea8kkWEqk7mtet0kdpI8lkg23/UodqfoteuaUUp8T9VO8w8kbr6/sh6Hh6+g/rzy6PSgp57LrYVuS7K+EY7KErBXJrB/enRr+7l5P6Xl4T0FdEuhQdX0T97lq65mLzovVaLtguGgLForHB0oNb/W3ZieTW3WmDtRWqlIGoDamMuwdnaiRlis+RurkqLc6g+WlhMrl3aFSxyNTJn8N1KZcWWbu/jlXF2pP7e0rdfjugeVr5xXl7bkaPJLfC0T39TRlPlYfBpS7to143ZXza4B01rYG2049Zg9qK79QfUbXmw8a501XvaI4nj9dBe0G8+Du41t1qGz7vJj1VRkn41Af6fh+pvY+Uf/VMSjqgWKXUurcPzo+VD1nMKTrRTccPjgsvnj8UvKG2s4XB+pC2k4dhteX4evnqv9uNdpUUAC1CVvUHhZScp0H7lsDpc6+5zJ23Q3aD25zwjHZPsurOya7Uzdf6B/bj3OOVzvmDi2Pv2/RaO5M3cq126FSB49dIwAbF/x7OE5qsOUZ5WMdGqnt4J6Q8Zse1S8+9fTMheJHeVGS28sFJTjjv+N/5S/QlNGxmqj9swkJbc73swkJ0oSEFExBIJ7rSZEMjU8of/YmVHGvPbPKye1wb4q8HE1O6L00CJXfq8Dt5Gyf6rHjUUmeLFq6TXw4zm0yl7pnXduDunWV5M9C69SS1rtoS2swpfwl+37LgJbl4vrIbwPytsGnqj2Q59z8CetBHY8TCkng3y3X56vIMuu01hmKvz4SulN6vUBPjbxaOSqQ16gNNvJb2iYn9STodxS0C36cCvoqBc9q5N18lNdLCT2zOGEsY9tl4fhb4HHREtPNwAFQwaOBOiedza2/LhfqZgXcvhYT1/03cL/Ts8fGCn7B1nK6nrsVljzH6GdP1dBxc9TPRi6NKddH431TfE/uUui7Etb0+rr6oA4+UTP7a1dtPn2pTki+zv8pnwHX7/l9qMae26akWafVnkulp05eBeeCfOp/vJELLmG4dLS8FMGm28udIL3udT3TIjMeh12+HspT+jnGussOszJN52+UV0xF2HkeB3nWVn5xeekZJjsT7cswy6px+aU4KKrrxiR1g+dBOirkXmTi9CqVhuDZMP2VsmKuN/YECfM9ys/wvX7ZmTwhvQ3CSdUVi+elskqUyZ4pw94R/cneCXw9K+d6dfXpR6csU/KanXepF/bU7YCH7WNsqsFf1Mct8BK7+JqqhwnbprwI+8Z7quPNCl/Leyht767V2R9r5I22ZrBM9o72tLfE6FhOOlRdVz9uSCr3VP8XX6I2f+nT2UN1qevIS3X+icII5SjsT1NY15EsTkGpd6jItn6X6V957OwW9LVIj3XbOaLrFRTpGbcfFMYee51Q27oyiAFDA4+LNhHr2jJa4heEQDyBw3ReAqvJrHIS5aVY5V3LeJzfiZmmOs9Z63diBsoLK7LCJ+oTCSt/Tu6hI5xRqFMPmVmOfOYr/G3w053NjGRpFst/8M6p8jjMgyi9zruycIrLxTtXAYdZhk53lD4332vMNBJ1nrP3uHll8yIOKy+vwrDdMpVwUuea5FcROp+CsimXFXMuf3dCfsO0W1lK6Zl7X/T+OrIS3KPDdfUyJs734L2Fsp8/k5W5k+5M1xJllb8rDd8DKigo+1LZI8K6oN5zco8nS4k6Q+6rE6foHjqi91WkxcXIW7msx3nmkkoPIc9k79XxMDLNcp8OC4Rw2S07se74JK9reUnIpSuLmUw5bQwfQVimniWZc++Jwo7lOK7j0xgdkvo6lPsM0U2nPcjeqc+FdUBIgZ6FFOXbksD5bfEkH4aLNnAVZXmFZBFwBRU4SAXoV3Try6xyYhsvq6teY5MRNg5xY1LruVRnsUaDYuIYhh2+M9UAFj/rk2gcU3EN7kulOcxPTdBo188rG05R4+ynuTSfqhp2hyqZ8sNL57vXkXJ+5/lZ77lUflaXaaI8mTBOyTKWvJ65fuE4VOiVvN99l06bV56xbnhhhWnSpPPWLbd6shLkY6WuFuS7fs68yw/f4st3Mt3Jsip4X0CVPAOiht4xoRyH5VnvuZR8VpdlqcyWhp14NilPQkIvY0RmE/HRFIbv1y95/nG8JSz7/so4rC+cN8tOqDshyetROyqIzLD+GFk38pPfF8ur0RtfV+2zYfhumIUy7+LEx1Cg35IeV859Xa2oFwr1LEDfV9Z2LTacRguWirSOuNRRPk/G2+rgMVw5QZuMZZOdEzVap8397o2xumTX3+Nd5efuptr9jZqXTzcq7RTb5LnANVFcBbmuiN2CDTdfL5Ta76iO/LZ0f6UmLXOzNez9FN5VjdlgLnC/1PGqsUlnIl7lTJPHdO4Tpe23Xd8Vkt7c2Zc/ic2n51T3vjLhOi712p17Xlxd6mVDkQvoo13Vp7gVu1E3eW7bkxnrFtsTl/AIcUvd7vi5lQ67BVfZFJy+/b7a1WGbMt8bPvPL/FGH3l4ks3fq8jPLvQ0jJyX3UVormIusFOW7diXmd8lmcE86gRynZN8vc3CfNJO9nGbP+XLfVbvHpJt6+WF6Wcc82gGzdC04rHt5SR9j/GbLuKePRYcCxn/r2k3tRstcuY8sG4xrfaO+zF8DpagNuub6IVtexv1ocx/60CDj0UC9JD057DrL60RmQliG82XWJHfveAPLQ/VW5Mlscukv8dh8+l6duZuTS9uw9fUl3WvHdqq47WVsfPbP1PtsY+euejbc0/rtLTcLN82kZ58PqIdfoFchxXq2usBwMU+oszLSDdGHZCMEQDN47SrvrcA7mNer1MCUSKfKPUp3wLZM9Zz5cgHXFd7zznppPdiZiaKONiOdbWs8yeIuu1l/OleXhc/OQJO8kgFhzKbqPJE/NWZ9tw6POwTZzvVyeY7EAwDTsa9iquf0Wl3eJd0OdMyzWUeK8quGtJbz5cZ03Kbk7oZKzA7QxUhTZFxwz+vBmYvdP8A9Ep3U5sxBVirz3RjgwJIwrexN+ZweSOm16MYoaZ61Roz5tAPGQCCH/TKBN+CKMfsQmGfT+28VGactps0z7+W+DH9xaVu95HdqHbIDMTHmfL6cqS4CqwXryejY6a+8UOo9G7nkuqWe4T5E+hRiRB7/mZgopLHdrTZCJMZ2bLTg9oR06DbY95CN5fxc3uZfql1pxw132Rd30noVUqVnqwkMFwAsA9rqC6PFrGSb3snvIvRsU9axco/yvJ/2Ocb9xBU3bnpgr40X4eC8ZezGTm4H1h66I1u9Sec0NMqrRx21LX/6+J35sf50GOuIhHVvXklmM7E4LXSUxmHa5xjHu48OYyTfMsYL8WRYLGLPDvP5XXe2yHTEPC+UxKfqzDHbpycfRlZ8DyHwQMgsqr+pZYJpZW8WmdXeOXK/rn/tJxzn3A4wbBDld7LhJdrIljEbg5YbLYgib7ICWBeVzDBrg6dD56fFq8nAw+P2l/SHEfTkhvEa3eykewtTk/ByMu8IDIG8GWaB0cJiPP1s3FnmjTFb64reVJRu8iZ1zARS0hOroZ6tCjBctILs8pzY/Vl3qhu7UgPg4FpwYbSYiWRjo7Fu2cUzPMkvSWRM+1wa665oZ7115y3h+WDcBGdzKS91NbQzFK16jU2TV2bAFz/jzmAX1bcyKzEvynYFp45HoTvptM8V0H1tZpz0bJIYeg7/DkpNOkbTLCeaCuu1oQ0p4VeQeJb1wisvvWSJ6rlnWhZl+cTRZSR7dQ2QxcxJVmR51fVNUHbZQFkGn1Ga7BID9BXuBdGPqJwIM0s7rey1LLOPBuo9G7GlzZpnO5Bh38nGC69Py/1c9gYzxtayGWFjfKjpvk668faL1XnbRudEHlhgvSkwOhojuOiAXeZa0P6Zgb6M26L+hrQNrhdDYvmqkXFH5+QLHtpomTRaFLTr2vggRn3tSekYZPRh2nUz0eP3/xvp2SpBGZOBzTlnILFBykhv/FJj0xSQJBDPNUU22irZwGjdaSYn4cZl4W8isVlSrN+JDZPqPJfaIClRd9iw8vATciDPhfd4cSLMRk9FmzIl0h9gnrfx89+h67hANpPvCzfUmiavojyR9zvhmN/+u7N7GugQ319GmG4/jwzmvc4mXmEeEHWeM/f4m4El8zjIvzjsxGZ6YR5r/I0ip0aHbd8VhmnjQodXdn466Wws96EcJPI1ey6Qa7fczPuqZCXQqWR++RTmuw0zIfvhM6kyD8vXEMSvAH4O+ITyFstfDdkjXJky1HkuVW7ynCezod4kwha5KA/bypQju0l5suT6aa+n9KWIOE+K4Xu9OHj6nE4LWA2drpKTouvR+YQsV9bDTKQ7ErYr54n6OnoudU+CqF5P1CcxxTpQlX8eOs719HcRceXdk3wYLmbECm92hJ0w0ARXUNcVW/kWHWjQp5CTUE+TjY10ELMjrPCLGpOK54oaD2kI3SMO2xns6aNenKIOq0PZtRxJk24g/XekGs5kmJLnXgd1mryKyu7M5IlThqbjkR8c13rpzOHnykh2GMIyDK8n84CoeM7EPW5LzHnnOToqww5lPZXH9Pawg2fytLzDFeexKd88Tm55m/u8sirs9IVyH6SzTLaCMMNyq5YVX96j/Erkg6Yq37284MMv32SZS5ipdEbvD+DnQEgoV6n+WoXsEcm6oPK5onIL5YKOyrBD/U2HHelnUp5cbFzomf83qHfDw4ujxC+KdwKOQ0rvXf0prBfWG86bZSetOzll1/26O9QBIayHU2GFfYpkPRDrpas3YTsSHu69YbtdrH+WorqigZ4xOi8K8mkJ4LyybPD/6ITm36uR+nmnJ78AeFh4fZcjngAkgZyAtqmSKb053ZfidazAwO7xW5/7jfLJbPyHvXzaBHUkAKsFdBqsE668Y48LAAAAoDayBjb6pCUI0Xu1qKKN/mKM0YLX0MNoAQAAAAAfGC4AAACAOvAGXPpzpTS4/gND62rMl09GT+TzkNEG1oLOV+tpMdvXQgAAAACwmsBwAQAAANQh+1QhBtdNsJ+uGyn3M2/O0VXyWVJ4WgAAAAAgDQwXAAAAAJg73rf3vQMGCwAAAACUA8MFAAAAAAAAAAAAFpYN/gSq/K35T/dn+QsAAAAAAAAAAADgYfj27Zv+F59DBQsLr312xBOAJJAT0DaQKbBKQJ4BWC2g02CdcOUdS0UAAAAAAAAAAACwsMBwAQAAAAAAAAAAgIUFhgsAAAAAAAAAAAAsLDBcAAAAAAAAAAAAYGGB4QIAAAAAAAAAAAALCwwXAAAAAAAAAAAAWFhguJgbY3W6saH6H+/kNwDTM36zoT8HlB1vxnIFLARXp7pcTq/k9zLyY6j6qLPaRctFXw1/yO8VJaqf5FhcWQra5zUpJzAlS12/G1n3dPP3oYo1804Nfw/uc4/kMxbzjmT+SN7lxyndDQBJ3Md+qVyVXdfXHLmKZS8h9/oI5E/6Pdn1WrqRaiti/Ynbv5pxiu6r0hl5d2JcUJ1PywcMF3Ni/KanDuVvAKbHVEi9oxM1mkz0d4wnk5E6OepVdCQAAGC+2E5R78uZus3qp7ye2h5sLWhnqateURzPn27KbwBWD6OfPXU9vPV0c/TkQG0V6eV+WpdPPvEzqQEU91HS/V39/u6hOhnnYY2OD1UPRkJwdaq2BhfyI0HJdTaUbw2UOvsucvX9TF13A0PBjxt1Tf+4smeOV1T7C2y0eHygVKYft+pMhXLO8r1FZ3O9uB0qdfDYlWE2NPj3cJwUt3+uMaFOnHRYpE/Ho+y60Zli48Xdx+fq4JP8cKiVT0sIDBfzgBSudyR/AzALPy7VOVVIJ2O3YqNO9/hEqU/n6hKNPwDgAeBBydZg2xhU/xqo2ARgjAMTqqsOqbO0CjM9ACwNMvDbo0FZaKDrvubB1x7pZV0DgvQ51KG6dPVYz1bTgC0xaOIB3+VnGnjSAOzVjpwiuq9H6kRdqPN/MO2yrmgPvW7x1G7pdZK5tzS+2hu+V4NHcu7RQL0neb4YfMgH9z9uSMpO1K4jeyHjPw/Uxf6Zep/px6YavDtTpBm5nF990PJ98iJv4zafvtQyfPCnvO3qkp7YU2fvnHZQ4qSOLhvF6e7jWxPWH06P/w8Tp7cpgwPlx/OUgaduPi0hMFy0zlidagszV84AzAhVNOfU+Xcb/pwLdQPDxfKgXWbDjqK4+AXeM6F7X2Qh1x3G/Hrqnsh9v0UPnSjsxGyAnwZK95WJsz+ADV0iV3smzuRJmFeSB56bp8hFSb5Ul0EYBh1tLTHTgyKeybEGVb8cuYxN/ChOO69kkFSQ7uzw05jlldab/D4tP4H813LJ9dJurjedearUyyCuoc7pPKFz41A3ON2pdILlYcHq9/HfNPDzBmU+0eCrikcdGjwpdX0jb+E4PqaBH88Mf+eBVQgNAv+aqMnrfADmcvH1Rv4C6wTLbe+IBubf2ZNATjpUXTeD/z3V/8WX681f+npwbw0OdzfXJP8d1TE/k7ABL210bwi1cZPJeW4g8LjO+ul14tQMql9esMfISJ3tyylLzXxaRmC4aBVupIyLT3qgCUA76AqQqp9OsqIEyww33KF7H7scZh1X6TBuu+6GY+qC0j12sGMaf3d5kbhAtjBw1WF7SwMo7P1D1XM6znEa+uq8S51cua7RnXPfJdK4YK77oI0H1eWuqdVlwG1R4LoqS8yaDtZjKOx3h/lMjpRj7o4+oh4hyx9dO97Vhg0zSHI6S4VlHw78KE3vOlkauCPL3hsbj2/USzkXyr7Jv8A9ngdWM6a9Si/1YNRzi0+5HROfDlTv68v8nn0aPJLMbzjpbDYbDpaJKjlqp34fq0vWvyedkkFZV+3ywNCdES5DD4SU2u5IiDKpUmSYKITC0b2Xn9obvoHlQRsLCgf51derMIY18fZR5+p5iXEvhtoONsbtn6lndgy380wbBQ7f5c8arwilTn4tl/2br1pjpJ9eL04pg6L2DEkYIcZvTBv//mlzXcoMkMsIVXoZ/x3/K3+BaaDOxoREeUKNCTGanFD27g2pKwKmIhBPYPl+NtmjvFHHRtLWnYWQk/GJjgcNWorR9+xNqMPqcDuhRnGi9s/oL0LKNgxH1y1yDw3e8vszJBwtE+7fDZB3l9ZZBfHz0lYQjqkf82dL0xGdv19ak6mgzP02wmLaClte6XtMvug8rVMG82x/9Ptt/NLlZcvafT+Xt/2ty74gjTYsE0agL0k989Oazj95ZxbPIH+SuulQkOf6XTrMgvwOdCGV7mQ6i8p4SlqT53UlKXcBSRkK9KNSjkI5tUg4dev3QO6K8OUxrcsGqaOS14ja8irvSOgnaMYq6HRa1nOS14tkTXTUyHxKXstkz17jI90OmHra3lNDfr34MM3iZHRTjlQeefWNhOPWCbXyaXngOFvgcdEWP8w6I38vAgDaRizC6kSNms50gMVH3PtCT5rNp+eZS6Pn3pi5l28564w31e5v1GTxBq5tL73wli6JGzS/312PWuSi2NmWv5g7dfOF/olmBCXun27UujoS61mayJ3UuF3rtep1ykBmU3mWNrWMZxbu/jlXF+JJke3B46z/ZWxZZ7OzHjIbbMPISJW9na2qj9YVu9mZ9uww+TPTvlNVeimzyFF6H+2q/n7gFt+qqzBYKha9fmf0JpxSp2SHeEfZeE2JniHm+gL9ZDAt1P691J53juxzPR+0f3p/JU9e8/0r4r0iZFkTPzPe1h5wngcU6cBW5iXH9yjVo3OFHnw2Pt5SrZpxEp1/+1PuMXj723mwmS6NAyh8b/+KkFr5tJzAcNEK1Hl8Ydb6YYkImB/GBfqQjRbeLsRgVTBLgCpwBmM8WN3TLvHsci7XCd0R1uuOxQ1d399OJ5fdlE143AkVd2W9cZuhMA2yRtpAg9OsIw5yxKBTQVUZMHoApM/xjuT2/tmNGGxYsW7e2oiRGIgZ3POJdOmBl42XOUp3ma8N15MSpl2DT/kzYrf4KanUSz0gBaCce6vfqa5l0+FU+0gkvypCx4wTJWZ5CxstivbsAqAe3LaNjh3Zf6HUe14KKdcLqaMXO690W2E3sDTLNIKJQtm3KbnJJeuvLDe5rWPo8+JklmH6Bg+j7xwnu1xlzF+tDO5JMXU+LTgwXLSBzDr5HTEeYLLwtz/jBdYQ3ZmB0QKIkdTpXBZ+0tGuQdaH2ck93kOgIVfmi0nc+TThxrLoe1Y4eIO7juqEm0mBetQogwy9aZjcpwc65Z9Vm47YK8JsDNhXu/a8biN9LxwzILNpcI/Z6jfdqdP1pIR3H55pnlEOgGlpq36X/Su+3OiBTpoiz6e2MV5hMFqANtGGeSv/bCDQXm+xp2crJLzkTD8n33hTw94STYwWRST2pun8ZL0RRW89zyjxyEp4Yd1rPt0TMFy0gdeA2MNYtUznDANNMAOuBReytGL4ngdmx+fE12K0+yA3SHJ/2LBZ42kh9nN2s32JpmhTWD1QtehBXPy5O3+2cVN1ntA/0cZwsoHVOrnT646EpXipjPay+H2o/r86ZZCC2in9ebawszUFdsYq2Xmj+oo/w+bKqJ61On4pbq2yjOXzZTSosmksHmxVIZ4dkfxIZ29KKvWS3sY5cfh3YBISvcRGhOvKw9Xv+hOKNLh5XuDOnvrsYvuw0YIHVeYrETBagJkRj6RwA2/j/SdGdLknWsohba3ZVNMY1OIvbSXakER7bPozjtGedZiXYRQtqaoVJyFhcMyXkMqSE+8QjyztXSgbm9bJp2WFEp2BzTnbpGCzLlCbQDzXlIpNscBiyIlseBRthOQhZelsoJRtwOSUrznnbhDlPpfazMnZWMq9J5AZE27JplJ1NnRLbewk59w4R2mQsJPnnPywG2CV5+P84Ti0greBFhHlcVh2TELnXfmqVQaxrBXJRVPcjQTj98jvLH4F70yUvZdGwshCIK/BPQbzTpsfsf7Yc248/GdMuP4zIeV6aePrxs2WbZ4GHUaQF+a54N2SP23pAccLzEBS7kJCXbAy45d5uRzFMpOfC+4J5MiE6+uLlUmvriBsvPz0FOhqHQrkNU4raAsuv2VHy0eJvBVdj84n9DOWPdGzWs8550raqkyvUvckaBInV2fjtiVEdDd4f518WhY43hZP8mG4aBMjkGGDAerjCuq6YiusogPytSByIg1C+nAaKtvAycHlFzUuRFjufjk7HVk5uCEyjaLtuMb3RIPAkCBu4ZE1dmFaOe7ybKqxNQflwZjvCTux0nBnR0Uc7wmOSyvovArSHOTfyTjV6QjLrzyMdBmEeSv3ydXsuvNeU2b+u3y5IvR7nHs8ueH7/LgX11Fh/Pz3mrgE8iDp9jtecVtr4pwffM1PW/BMUE6pfGB8mU6kLSyXqo4kkXyX5GlbHUyOC5iBsFy9wyk7TxeMfDx8/V5VD1gkzOS1ClLyGuRFdEzzHpDBebjspHTDpey60Qd7xHU1E+pZ0rAQyWlKj2IdcmXdj0t8uPdOF6d0+nJEdxNh1cmnZYDjb9ng/9EJzb9XI/XzTk9+AfCw8NotRzwBSAI5WRK0K6Vaij1aIFPl6I321KjB/hHiMq5mXPsLpgLyDMBqAZ0G64Qr79jjAgAAQHsk13Kaz3fNfyM4cB90X4/UCW8EFq0PTmHXuZ+oEYwWAAAAAJgSGC4AAAC0B29WPD6RLyrZXa976po3Kr6PLzyAe4A3CLtVZ1/Ml7SKvmd/97FP18XTAhsLAwAAAGAGsFQELCxwhQN1gJyAtoFMNcF6VMhPl1k/CwdaAfIMwGoBnQbrhCvvMFyAhQUVM6gD5AS0DWQKrBKQZwBWC+g0WCdcecdSEQAAAAAAAAAAACwsG/wJVPlb85/uz/IXAAAAAAAAAAAAwMPw7ds3/S+WioCFBa5woA6QE9A2kCmwSkCeAVgtoNNgnXDlHUtFAAAAAAAAAAAAsLDAcAEAAAAAAAAAAICFBYYLAAAAAAAAAAAALCwwXAAAAAAAAAAAAGBhgeECAAAAAAAAAAAACwsMFwAAAAAAAAAAAFhYYLhokfGbDf3JlvA4vZIbAJiSSLbejOUKuBeuTv3818epmqYU7j727/XZWd6X5k4Nf5c8SMrhWJ3Stf7HO/kd48ep+v6V5sdQ9Sn9Ze2El1817r9vitq+xS3TQOa0fvfV8If5CUAdMrn/fUi1Yoy+XnBNE8hd5f0N8fWyvA0wdYy9t44uGB1K10NOG1Hj3WA90TJXIu9l1315LZBDaSvry2FRXySU55R+hPcUtH9BXzLdRsZhhekL02+PMLzwvvT7lgsYLlrjTt18oX+OR/pbs+7xasfcAUBzTAXWOzpRo0ymRurkqNdqBwcUYRqyje61Ovvu6/Xo+FD17rkh2Hx6Tu9+pbry+0H4canOPym1t7+n1NHbqQZ7C5GOJWJR88t2inpfztStoxvmGKntwZa+vkhGFkNXvaI4nj/dlN8ANGWsLo+kHvx0oD5MI+M7r0hPztXgkfxuETZa5P2GW3W2T+1VySBwa6CyNm50fKEOHpcN8rhf0lOH8suHr22pgyd5X9i0lTBeAAcawG8NLuRHgpLrLNuuvE6+n6nrbtAXYwPB4wOlhrcih6IDJXI4fpOSaZFnlbdxt0NF+uEaL7if6N/DcVLc/jmTO7q97B6qk7HcY9tIbwIoDut2uKcOKX1uO3rzlfJmP2533TYt1Gsbp2U3XsBw0Ro36oY68ye/oisOWkQGiSdjd9BCne7xCXWWztXlFINGUB/TkHHnL+5cdl9zh0ypi8GHteqQ3f1zri4oT16+66s9+uv8H5jP1hHTKdo2A6O/Bio2ARjjwITqqrDTBcDSc3VJbcOe6r97SbWhUod/L1IrYCfSdqXfsKl2f2MDC/VT9W8fMwjqq11p47q/coqu1U2qf6FnsWlgRf2SFHcfn9O1PXX2h9NjeT2iPDpUb1dgthfMjvYEogF8EaXXSf7essFw+D7vkz0aqPc0uM/7Yndq+I6ePx45A/lNNXh3Rhp7qC5TbdHVqepRuBFXH7Ssn7zI27jNp6zzF+rgT9F5qQvO3jntoMRJHV1KnMbqAxtiKE75ZLb05Z0JoLuPb02f02lTN5++V2f7bh1j9Hvvt938fRH2fS+9fHq5An1WGC7a4scNVfN7qjMHyzlYY6iiOafOf9pr5yLdsQDtkDWQzxyjkU/3D2oIjzuq45ZD5J6Y9sq4kdlqe/gDO3HD/eiE9WZsLPbhjEHgeljHE8eE4zxT203eNobUIbaN4OfLyvflcTRxT6bDJbjfIN4vjeP80ITxpqNiqVdWPlKWVfkV3m+YY35R+ZiZHGtQ9d/Fsmzc1CnOO69kxiiMf3n8sjQH8q31JNCxWL+q8txcbzrzlOWzHNHzFbqo84TOjb1wJN2pdIIFRQZGerDfVc+8AUoZuVzq8tVlXqaXwf0angHO5SQtK5uq84T+yQZETr3NPwM6P7leI27a9OUc1rvHB+qCPYu/8yAwJjSCGLpqt25bAVYargN7RzTI/24mfkKqrvNY64INhr/4Q/bNX3giRYwSesLPN55pCvvTpGfaE4INbFNQ6jklBkA9RkxMbu/saiOImQC6U5efKXVRn3NTDf6aqMlre9ZMlG93is0WqwwMFy1hZiGVOn/hNijL0rEGy8bdDVeBMJTNE6PTcQPpwQ3h64HatOUgHbvtzBXQzDhfDLaCzuWhOrCz1XJPalb6cHCu+tbNL2u0cvRAynM9vFVn6kBtlRgv+JlsplyOatdgQc8s5I2vnpmrcpPmzjnPnuhldDWWO6Tu1wPVnjrU50ycjbvmog/weODRU9eZuyod3OE/6hUOmk35cOeFnkl6Mvgk759rfpmBTTbjJe/K0zgiweDOJ12TgZKZoXJmugrjF7aZh6r3rpO5w3JHlvVk4/GNeinnYv1qnud14A51mdttoS6GBifSl97Xl/k9+6x7lCYnncbQg/7DwmKXy8mMpx00lXsUGLk0Hnx1lhCn7udzgUu6tB2hbBsvB5EtDofdyhNtCJPN6LJuaW8Kf8Y3QwZ+qbbIIJ4eTzrpeqvA4wOsD+ypWrY8qup6Fdc3pAfauLFN/ePAyJfsF/E9pi1K6uTOM6Mb7/JnjVdEtYe9NuLpeJjfZVx8Zc3IDRK6PSkaS4qHx/U7J210+G27Nag6y3mp3eXJuCID5tJAFV/Gf8f/yl+gKdShmlAzNqFOTQZ1PuicmlBHBkxBIJ7A8v1sQtXRhAZ2cmK9mZecGJ0+mTTJZf3M/tmEOpUOtxNq+LLyMvWCX1cw/rOjyUmijM2zNk7pe6x80EBW/0w9Y69lyDNVdVWcvlQcnHeMT3T51ElH2f2l+Rqdn522ZMpPZ46XHifvzf1x+Xjh1Lh/rvml32/TlA4zFS+Ok/2t4xflix+WCSPQE5EPX059mfbyysHPk0APdLixTmYU6Id+lw4zCM8iz5WlO5nOgvdNS1vyDAyxjKX1IJc5Ix+RXAZyV3V/qWwn7+XzNswSbL2bimMRSRmVfAjbJKIo7mA6VkGn/To5Jnm9qG4UGea61pX9/D6RzVKdKqjHCU+f6sixEx9DeRuhdcb+bX8L9t02LeFvTfQ+wQ0zfGaJ4Lhb4HHREikrYWbFdix1AMzGWJ2yqybPwhTOeoB5Ylzg/cPOdul6wM5UZa7fqfXAsRXeeC/4+5bs/dSRvxIE3g8Zj3ZVn+odY8EP8TclzNKiZaoCsdb76yqNC3Byk86vH1SfPSdKZvo8Cu8vmsUrX7e9CHibamovA5PfybW0f8tmZMfuutwSCu+fb35pTyQ7Y2P34HHW/zKbnW39b9qV1WxqGM/6pOJXb7bKpVGe10Xck8O46HexvosbcJTelC7ud1SJVoOFJ7XswspuyvvsRn3QG1my+3sNj7OS+80yjFh+wj0pjHeQeGHxGnqK15YsldIzuc6yKespxPUIDXK050i2iSe3YSXeewDcO7JE1fNI43qeZTiA5T/3osj3uMg8o+i556Qn/h5yAdKGbGVecnSQ+pRuzG7jQ32Z91nbbDwgIu/AVN8r6AOFY0nTxgVeWzuvgj3XxNvE9U4Ub8hl12kYLuaKrDOEexxoBdd1tE4HCMyCXvfrdAYtxkiZNwTcZcxwBkrcGdQdR+0OLtctLQ5ejHuve6QMJTmuC6JdS2o6rOXY5XDc8LrvMwPCeJPOi6ND0yBTp/l5qQu1ofh+4z65nLDOSl7ZteEkN9zBCDmk9GuOerWWcxTfP9/84sGTNajZ5VRp44J7XowpLvxlJEeO+NCGmJmpn+d1MUvzStCGDbAWiME4lF8ru9EmnZ8O1aHWxwt18KLGgKHw/oQOpaA2yOzNdGsMmrLHDMe3/3Gs19CnNgzUyz94KYhj6Bj/TSltaRNw4zYPwOxwH8wsbxX9e6HU+7AvRpQbkmlg/8K0D2XLtsZ/smEhmCgUnUpucsl9QG532PgQLLdigwM/l/fZLtVuqn845aSD12e1m4qGG/tzXy9pYF0eYLgAYBnQA2IYLe4Ts265yVczpCHkBksMG4Uz560ZM8XwIO/zjpSXA8kRzzAYgwrfV3ctqdPBDd8jDW+48Zp9h5kFeF65Xr/4/o7qhA37kjDOvkojeZUqE+FE741g8jLeyDKm+P77zq/YK0IPeNwN+mSzNHe/mFwGw2O2+q1JnrfGo06l4Q+sAlTH640r8zrePbRxLNyk094rBoFKI27h/TIRVoV4B7m6xgMmU6/2/MGMeAp5XnuOoYON0t7XGyqROH658dqCDHgbgZbwJpAyrzcj99bjrxTxFvQNkNx2sJ7w5IzTpibk1rwjmNhiD6UCo4XFekuYg/XQTDRoHaR2pEbMG5CYVJB36L1AlhQYLlpBXHIi9xuxkC/7RijgYXEtuDBa3B/iklj/01Ey0x1ay20D6RF7ckSDvSq83ahdzIxz0o1RZobDmQjrTVFI0bIUTZmbNHcwZJM4++mwCuL77Q754a79Zgfuxe0MS/0fxU+WSiRJuLOWkrp//vlllz4kO28y4+vqgZ61yj7LVvyFAb10aSY31mnyvBprxAx11iwH66shvY1zIpptt5s4li35AsuDLc+CzxCaJRsFuhu5cleQuN98/SP2gNBth2dAjGVVfwFL/xUPZsJBjNlM15Be7lWMiWNomDf6V/75RgBqoCfx4k2mTR9GdED3jYrrY2MkkI1mvcN4bRijutPXTkw0GS88R+fcTcWTRouCfplstGnCsUtvC9puGUuaJb7x5Eb8RZ9EmyXGyqZ6vVBQYWVgc84ZSGyMQo0OnSvZ8AuUEojnmiKbdFVtrrXGzFdO7IZO8aZGdoOkXMdTmz/lz1ODZs7Y55wytefyd6Q3cjL35eHHz9l6J7xHfrsbQVmczZvCNFrCMCO8cOO4h/H001F9fyreqbS3BYfbBqk2wJyjw5a/pC0uw/y5VBmW3T/P/NLhZLIr9VP2HvlNhylPkf+CDdY8OZQ21MbPS7MluMfgy0+tPA+eMeH6z4TE4fppj/M3rg90GEFemOeCdyfKeBY4XmB2kmXlITIhZRyVdyj3gdxV3h+Er4n6nol2yIbjHFa2CuXaOdy6OaNQRuM4mncEugxmgstl2UnVhy5F16PziXahsD4ueZ+VXU/eIx0kQp1L3ZMgatPkuar3RfVO4T2J9Hp6l6g/lgRX3j3Jh+FiRqwwZQcq6llwBXVdsZVR0ZHsUKwZnA9zJ9JtPlIdWNtY5Ac3JG7HzTZeZ17ZhmElGlAiavgYaUSzI2iUomeS9ZQ0aKmGV+6vkjWTRk5HKu42X0w6/ThV32+QOGZHkA8twuG3hcmX/OB0mvRL2iR//QGATatJo5dfNe43VOWXXC/rIBGu7Gr0+517PHni+3wdKJabMH7+eyO5ZRIdVBuO+57KPA+f0eHm70/lA2PO++F6hLoY6JOOV1I/g3cly3h6OC5gVmJ9SWFlJKv3k+UtshPIXeX95kzQxsRyyoQ6kMe7SO+de7M4yLuCOGlKZTSMY1j3gFnhfF12UvLuUnbdl++0DlT1jWLitsQgOuMcrtxHuhYc7r2hrqX1J3xfKn117knEraL+WlQ47pYN/h+d0Px7NVI/7/TkFwAPC685c8QTgCSQE9A2kKly2FW1p2RDv1rwcsotdaCK1/6C+QF5BmC1gE6DdcKVd+xxAQAAAIDa6H1IeFMz57OKxYjR4tOJGsFoAQAAAIApgeECAAAAAA3oqlf8RZMvZkf2ou/Zm0/viqcFNhYGAAAAwAzAcAEAAACAhmyqwV+8T9at6n/mz8fZT8rlx9bnvvm0IzwtAAAAADAj2OMCLCzc8cUaPlAF5AS0DWQKrBKQZwBWC+g0WCdceYfHBQAAAAAAAAAAABaWDf4Eqvyt+U/3Z/kLAAAAAAAAAAAA4GH49u2b/hdLRcDCAlc4UAfICWgbyBRYJSDPAKwW0GmwTrjyjqUiAAAAAAAAAAAAWFhguAAAAAAAAAAAAMDCAsMFAAAAAAAAAAAAFhYYLgAAAAAAAAAAALCwwHABAAAAAAAAAACAhQWGCwAAAAAAAAAAACwsMFy0yp0a/r6hP9tij9MruQTADIzf+HK18WYsV8B8iXWaj/7HO7nehLE6vddnazxzdRqlLT9OKYQ5wu9edTmW/J1LO7Dw+WfkL5arvhr+kFsWjLuPfYqflXvRfdS1a8w09X9C7n8fUkgu6XDtMV0bURd+9/x00O+rpN9j9Oy+0gsWFS0HkW7klF0PZShuY4van7BfE+tiHFZ4T0qu43CSch30uaplP+7HReMB73DjVjNOSwYMF63BwrWlDtSZup1M9Pdmb4d76rAL4wWYBVPx9I5O1EjkajIZqZOjXmmFD2bHNIyk009Gku9yfD9TarBF1+Y8sPfoqlf07vOnm/K7XU7GTvrkGB0fqt7cBpkk1+8O5W/QnEXOP9tZ6qnr4W0kV5Pxtjp4zNfvU3/qsfn0nOL4irQNrDvT1P/mmVDub6lXeKC2UnXpft5fjMKfl8Hs6oM6+CR/twwPqHpf3D6wIl330815tDVQ6uy7n14YL9YMGsBvDS7kR4KS6yxnoQxd01jLk6EfN+qa/on7Nm79Xmfcxu1ZeE8o13E4KT3W9UP30InTSG1X6Pr4TU+FLX33tX3eOeh9e3zx+KUaPOI/6sVpKaHEZPx3/K/8BZpCwj4hFZnQ4NLhdnK2rybq2D8L6hGI53ry/WxCldGEKjqf8Qnlz96EKu61Zy5yIvm+N6QqP0XV9SSjyUnjZ2ahxvu0HCXkSyP1V1SvtcFi142tyVRp/s7CouZf/XiNjuclW22xOu032tKGTFP/16lL98/or9TvAAlrLm3FvPoOyfSHOmTapFCnFr8uWDyWWadNecuR0IHS6wW6GY3BtDyWy1StcVtSrgM5LtApP/y07Jfqo7ybj/K6IFGf1IrT8sB5YIHHRSvcqcvPF2pv+CyYqdlUg78mavIa8zdgSh4N1Dnp7Ksd+e1xoW7mMhsOxn8eUO6eqJdFHg5ULi+P99R2R34LsQtfalb5Urv+ZfcEnjPaKk/nhllYbNmP3QXNTIATDh3tendR/fWCmlp1qC7dcH8MVd95Jx9evLQrZB7n7L7Myi8zATzrx55D7kxkVdhElMcL5HlkZlxt3ChdN3LBZZ75p685z3jPCYGrqv/8bIzfyAyPbfO8d7EuSPwoTt3Xt+ps/1D1gvj5eWjuzTHP9z+OfdkXGfBlo2hG3L3HT7u53tQTJMzz8PkKPRV5OL0KwtHpDp6Fl9290Lz+p3JiD6j9M/Us2VZvqt0XI3X7bld+V7DzjHSDWvjPl155l7cvIiskN1E9JDKuz3d5/vbCeD05ulWlG5Es8uE+f6Pnt9Wul35K9280zDy6bKhTYFVhGe4d7WlvidGxnHSous6eFDTaUv1ffN3c/KVPZ/O+ipbH/Y4KumgOLY7bdl7RqPpcPB1Crk0/3XqA/BqEu7NLWnOhzv8Ja3ZqD7R3xoiuVyBeVCcvBhR7oU6clhUxYGjgcTEtxpLGFjljzTIWMsyIz0YgnsDByBnki2lfTgos4xXoWQJvdiC0gku4dOTW89hSntUh3vvNs/lzElZkYXdnBsJnEkTPBISzG/Lbuz8MI5slCGc/Eul201gjbDMT484WJMJpAX5nU0zcHJ2U9Hh5M8/8S5V3WH7hu4jWZmD0u/L0R3VUlq4wrfm7ozyUNOXplN9uGE4+R/kT6ZWfzlCe/HtqyJZ9t3OPH2axnmZxzeJfkVc2rClkncMBdZkmn5s+E8tnSCib+rd3fxiG/KZ4RHrgyr2WLVfH6K5K3UjF16TZviuOnyGsB6J6IaFDoJpV0OkimbEkryfkVyNyZOTRyute1jboIyG/XL8ambT3hWHHsm/vd9vRFJ4OSfziZ1J1h7xTn/P1LCalm8X4er08cH5bPMmH4WJKso6HL3x1hRukcQUVOKCh92hdTrwGsCZFjZLXyBZ0boNno46dxm+80veEjVJVg0fIAKm4jvLjnO5ouI0skQwzuCf6XSfs+Jl50VimimQmyIt55p+RibhD4r6z6J420GHb+CTzQ+LsyS3Ll/yulYcpHZJwg3z101qgC0nds8/EeRySLk/zLg6ztEzs+WS6U+ksel81jeV5nSmSwzIaP5OWWRcjO75u+HUCoXXD6lNBmN49id8ia+W6UXCPQ6FsRu8jJGyWy7iuA3VYBZ2uqs+S10t1wcqo1J/es7b98etdLYNROxqHb8+bI67TI7z4MOV6FsfBvqNC9+Q9tXQoitPywPG2YKlIm/BGS4570ebT99rd7/Ad3DtBW4zV6WPjxjrCEqT7JeHin7nqekt6HJda7Zbrs/dT4Lz4aFf1uZ7423Wm3VadpIsfY1wc1X5f7Qb3dH+lJm6OboB6U6i/xB0xWwYgyxY89krin6Y6bOt2HC6PWAAK3FfVo47ZMEuYZ/55G0s6sto70pc11p22R+fDJTizYWTSusHe/XOu6yjf1X5TdZ7wv2nZNs8k8lC70pJU3+TxjXSoEn9z28zlXtel03Knbr7QP086pjwzzLu4Lrj5ynoauyun9HS7E6QbLBZl9f+8adC+xPJYRR3d6KrdY6UueGO/mdIscX98o17SO2kMQseIgqdzWAYF6qCXaVF/qev0AVg3PV0wMp21tZpNNXjHG1geqrdu21c1bhO93/r6UuSVDlKA0jbUxofCfp+1gV31bLindShfKmj78w707PMBtZ7jeptEj//mdIdLtBIk47ScwHDRJlGDIR3tTzcqtdQZgGbwGmjeYZi/MIKd7+cGDTa36Z+Lr4HWSufRNl631Ai55OuPeSAqX4EZ8wDFp7UByifeqd6+U45UR3YWZF1mNlCURty+a0/vns97FZjLlXy5Ke6c1ghbD8717tmyRlvf//BGDLO+O4HIUsY880/XDxI2d4aOzdcQRu46YS3D5n1mEGLun92IQW3cJ2tssYa1gvXF7nmRrxy3XO0R76o+De4afruG2sjStHCa5c8kYtgAy8U09X/RMzOgjV6Oka9u+5KmfD+sOrqhja76fcbwae6vNmJ4daNdi+8NymiQye+i9uxDq3s0gVWFZXF07LQVL5R6z1/bk+uFpPS0Ytxm97vxJgp3Xmn9vxh8iOWf23huf9kg4hlOTP+Fn+Ovlhj9uVS7Xvt/p4YvTNud3tcuZKwueWLieLd8PFASp2UEhos2CDunALSNHvDAaHE/mNmlRhuKXZ3qme2T7DNXxWXkzhzPhAxM46NoQ6Yp0J4E1tgijSo3fvKu9j7P2iBsbwDBnRXuwDys8WKzU9ACeAPzeeYfD2xs/SB5U+iRJZuPyX1s2GAjRrseGETUITSdrL3fdrPz2svC8xxy4h8cM+UV1Z88i2UMRRxeizpSiPUwAcvFFPW/fabMsCgeVvU2UBajlzXyNWhfGtNEN/SGfxIHbdhgI4YxXnR+ygd7Ma6XVcKbTPrQrbWNYOXRhjQrizwY121twmOviCbjtoQR3rT5gXcr63iFgcB4Rtq4sx4bA7j2Vvxxqc7ZGK69Sq1xwxjuk95OV5f6WrThp0uNOC0bMFy0QlFDJzNPVdYwAMpwraUwWtwL3T9Mp8xzKSzBzCrFHTLjxucTzcpJY1Xa+HgU79RuZs7acl+mgba3U77MMIcDUtvYzsS0YXfVKz0L+MBf2KFOEHuBRDuDi+HHMM/8CwY6GTIjU0L3tZmpmn222JaBDNiDQdzdx7e6k5V7HI3VB3aJlZ3Qw13hM7TRdsYv5ngGuByzPGVaigarpDfydQczmDtXl4FsmnqhbDkYeEia1v+MXv5T6DUgdSlpWqVLNxN8JaBJ+9KYaXXj0UC9114nZvCWHMhRuuM+cKKuFgNva96IYHUpaA+MvEqdKvdExniRM9PXajBuSxjkjE46dTgbCNjjlSeUkgYC4xEZxUkbH0S3A68uc5j22RgW/f6/iUNJnVIZpyWFMiYDm3POQOEGK8GmRKA2gXiuKalNhoDL3ORENjKK817KhA+r76lNj+zzWR2QP5dvpBSXr6k3ws2fwg2aEnIhdVB4jxenkJKNnfTGWF79FWxupbHn6PDyIqz34o3j/I236oQdh8GYeNbYLKsB/M6mxPV9WN510khMlX+p8rLn8vuSbVKJDNTHxC+TtTBM+Z29O5JVQ5yGMN0pmY7zhvH0KNE+Z+fosPH0dU/CdZ8JqWz3E3oqeZGlQcLw81+eC94dlnld+H2gIVZmo/zO9TosH1P2BfJJ5/MyTsusJiWrocwwoU7ZMEN5lfuyd4fylnqfPZfdl5LHMA02nXn9Ftc38T1JHQGVcNksO1X1WdH16Hwo40TcliTkLCH7kczW0cfUPQn89oWQ5/z6IsTEO3VPaf7VjNOy4Mq7J/kwXMyK06Dpw1Ua0BRXUNcV2xEqOsorvPWA82GemAYwOFKNQdaRlIMbFK9hsg3QmV9PBGFFjZsm1XjZTmB+uA13+pmAMM7ukWwQ0+80eSRx1mGGdV/YySWcd5t41wg7cU+cV7PD4U5DqK8nVNZc/nm5zDP/bDj5wWUfdsRSdUoeP3vdf79fBkSiw6Wfc+LnvYdl3Hak9FHcNkbx8/SjRA8CeTXhxHHOw+Zr0mbLO/xnJFzn/VE+aCQML1yXsMyDtEu83DLIwgzqBv3+pF6Ww+8F0xHqlD6CcvGI5IyOqMziesA9fFkQwrqaw/T0MJZXjTyXh+m828arhm7Eck5HQhb9/ErreZSnZfkJknC+LTtV9VnZ9TpyVt6WWEK5ToUVy76ro5E8B0fcvqavpTHvjvtxose18ic+qt+7WHCcLRv8Pzqh+fdqpH7e6ckvAB4WXt/liCcASSAnoG0gU9NgNg9WY/v1gxrIMjg1vG11vw/gA3kGYLWAToN1wpV37HEBAAAAgBkx+43wjum19qOwe/ccj2C0AAAAAEAlMFwAAAAAYHb4qwPfz9S1/txb0ZdeZPNK8bQo/voJAAAAAEAODBcAAAAAaAe7M/r3vjp/bD/p5h5b6vw38+lFeFoAAAAAoC7Y4wIsLO6aJgCKgJyAtoFMgVUC8gzAagGdBuuEK+/wuAAAAAAAAAAAAMDCssGfQJW/Nf/p/ix/AQAAAAAAAAAAADwM37590/9iqQhYWOAKB+oAOQFtA5kCqwTkGYDVAjoN1glX3rFUBAAAAAAAAAAAAAsLDBcAAAAAAAAAAABYWGC4AAAAAAAAAAAAwMICwwUAAAAAAAAAAAAWFhguAAAAAAAAAAAAsLDAcAEAAAAAAAAAAICFBYaLVrhTw9839Oda0sepGsudAEzD+E0gU28gUcXk+nh6JaeSyH2/D+mvWRmrU3pf/+PsIbVDVZ1ER6sytGjpB5qrUyrrvhr+kN+tYco7lqt5vKslgry4+9in32ibV58iWc2PVuutuelcXWx6q+Ig97XRDnhpbtIfDsumWh+ht6uDLsuS/lfZdSMHuezEfb0ivQ9lJ5bXOKzwnrRuhf30ZP9T60p+T7ruCd+XkPcfQ9V3winU9+B97fR3HxYYLlphUw3+muhvzHrH+ERf3Rs+U139FwBNMRVY7+hEjTLZGqmTo95KVEBzZX9PXXeLOm+cr1vq4JP8nJmuekVlc/50U34/NAV1Eh2jY3PHya+olVaenVdU5udq8Eh+z4ztUPXU9fA2kq3JeFsdPObrCziwaD0vwHJg6uZIVie36myfr++p/i+LUm+3CKXt/HGRHvKgrqcO5dfMeLpVtz8scTgeZfeMjg9Vr8zgQoO154ML+QGWGhpQb5WVZcl1NhBsDZQ6+y6y9f2M+nqBEeDHjbqmf07Gck92vHLGYyyD1A9UZ+pWrt8O99QhhZUbHaSv6N2jqJ3z5ZTj5PXTSd45HDdO2tjSPXTiNFLbg63AeCjvexLqhaPLbIx4fKCU0wabOPnGktT7Tj4dqK1lHztQYjL+O/5X/gKzM5pQNT1RxyTGYCoC8VxPvp9N9igfqOLxGZ9Q/uxNqOJee2I5uZ1Qh3Si9s8mZ8dqsjek5iaE83X/ZHIi9yXuWE203BTkyUyY+q79cB8G1D0pRK9qtGkj0jvqMpJULC7UQV34OLYF5DnGlH+ibZ2VB2+bbd+T2j/S12T6OI7H1P7p++5DA+L+cFr/ytoRqX84nDXR2zKWWadN+yBHov9Vel36xKGMRPKk9bBcTtIyGLRz0mfy9SiQ54J+uk5HFv9YBzRBfWHiFNYfvl744VrC9rlAlx68fpoOLgMLPC7mxN3Ht+pQ7amzPzCrCWbg0UCdk86+2pHfHhfqpmhmAmh2fz1RF58vI+vy3T/navvFM9WR3y6hC2LogmfdF4eZWyBfN26JvttfwlXRs6znz/guhvEsWVWcasGuhd1DRQ2eeh94htQLP0xPajbvRmbki++ZJn//z//N/8Zh6XxzZg+q02E9BpzjvpZdiWvn6VWQj/r9QbwSMyKhG6qfH+b5/sdhHjaHod1Ep5CVBOM3Muv0Wto0zwWV4yLpovR0X/Ns9qHqhXnrPUNHkE5bnmOvHCX+wbORG27kOhvo41R5EcpL/Hwkc0kdHyfLt0rvwZwgWdCzucejqG0t1zNLjbowlMdEPdNcp/+P+n/43ygsK2euNnXU7m976vDvxHv/vqa+6a788plHPZPqD28+PaeRiDv7Xc7dx+e6/hkNaYgIlhaWr94RycL33PvTpeo6e1JcJLykNn/p09lDdSntwt3NNfV1Osk+nuFOXX6mkCKPePEYsu1cHUr76YL1AAk9XXd2FfVS1fk/RndvvlK9tN9Xu55nYFftUl7Yvmz3NcXvrwHFNMGXG32Purqk3DhRL0Mv4FXwPBQDhgYeF21RYFkDjQjEEzikrbLrSSwnucfFrbaEh/nE19nK7txnryQs8Mb6n58z94T6HVq3E9buaKZA6gk6cku9nGsYp2okrYlnaoUvcXfT7N+TSkuL+Vsy62HzszrsOD5hGBZ+V+vYPHTlUdLlp03yMsxrL95hWmz5BnnU1uxKoEcmryvSoc/F5VomH6a86MjSnqcrliPn/ZK3cdrD+IRp8OXFp0gX8zBMfJ14RM/IbzcemRy4cpeSzfbgdwFLXK6Waj0jqurCTBcc2ZJn3HpmWp323mXxZNupPwIdNNB1/Q7nPmHaOIW65RO/J40NO6GTTvjVerserIJOx/Lmk7xeJGuejlm53cvqWn14YRm5ZDm2bZM5wrBDHcjv93QgILon1UZpXP2QdyV0Jan3Hr6e6ffrOMt5e1Tq4WLCcbd4kg/DRTsYgS2qxEFdXEEFDomO0zoTy4nb0Ji/vYEp55/bSGQNkqngw0Fs2OCk9dt/1twTNzJ+Q+w3NBb/2XpxqsI0esWNZlX46Q6Gedbc015ayvLXCz/RWS8Pu+CeBHOpeyQu/vvT+ebld1FZe+mPO1ea0gFFfXSZ2Dgm0yHv997FafPLJ0xnGFaqc5aUhyBP0vIpcbLvDPLCl82Y9HWnPiktF1/m/HSny6oqPrOAttSSklOhlp4VyZopZ/2sV/6WQBZrvSstJ6nw/Ti5MufEy0LPG30LZHPmOCXylEjqb4DRe3NE75d42jpinnqyTKyCTqd1KSd5vaLe9WTbe9bqvsiOhKPlzqmfjXzF4dvz5iiRP4lHGG4oxxk2HvreoJ5wqJJ7o0NBPaXj4epeKl+WA06LBUtFWse4H8WuPgC0wVidPj5QF+pEjZq4sq0tm9pd1l0uMv7zQG0nN6b0N9jMXGZ1fodsq06JfntusI7LcO9IX/bY+6nYmbFZnAq4OtXvpQYz4cpYJ/w7dfOF/nnSCVwTzbNumOm0XMuSplnyt6uesYvw0WXmtjz+m5e92Hq2TtjibsmbYT2gW/52x8/FSjw3VGfpAi/7CYnKqA1Mm2ZdXHmZFdc/vgvqpuo84X8L9EK7rVK3K9S7R7uqv09l8vVGThCl7r1pPNfZbEnJ1kyb7xqX3TAuxo1Yy5m4LEfp1a6/JPU3udt+uY6D+0IvNyCZOBknXKVr6VndujAhF4x1455Fp3ee6U1F8yUgY3XJ9ftvu0GcGFPn5ffSu95dpzcjnUs9U68/rPWX3k2DOL3JorsUZvympw4TyxvBmkJy+pJl2t143S6DzTD66C+noLr73ZleTvLWXVJFspUtfyQ2n743+vVOljFK/23r60sjo3yQePbonL80S9BLMfi+W3X2pUc6ZPsapg/D/Y98maPtz88GL1c0fbz3Ub3m13WUL7xJ7qcD9SFcarlEwHDRNj8u1Tk1jOlGBIBZ4HWsvBM471xcf23ouqPXPn46V5e6keNO3onazTqYPu56dbvOkjtTNGRuiLMGmhsm2Tl9lFqzmcQO9meMk23QSzp+1eHfqJuWvr4yS1r8NaxxZ71O2LqDrHe35126zb0PacSoS2aI0YNx2blcdumfP1z+diBmByIFxgX3vKzpdeFd1m0Z5emRi7Pg7idA8s5GOt1x1F+NmAYZoJag11CD5aFkXwtLtZ61VxdOr9PGGJ8ZcbVRsPjLKN1fKUx7L/dPVbERofV6pml/mAal77WB+m22r02P6/J3Bev5wVrC7fjo+EK+YEXHC6Xe8xcz5Hohjzpqm/7xDOWREU706xPpOv3iia5oonDnlf76yMXgQ0nfITaU8IQWP5e3g5dqt2Y7pQ3pCbjfw/Uat3l24iannmF92YDhomXMbNSKfl4LPBy6Yw6jxVToWV3Z/Ig7ece76fyjPOZPrZlBD3XYZtjASM8S6bLicOiY1jtmpjjdqeELaXSLNnJqMc2VzPoumZ3Xs4dhZ71J2NmMCB3asBF8amzREI+Zk+yTZgug/1FnL2FI4rbQm2kVY5LNe/eYyXtM5JxnziS8uAPXPpsd7gKD5WCsTsWA686uetynns34LteI63ueJdADFXMv66QqMiLMIf2z9od12iiEbIBKh/lEpjE8J2e8wVqQeenwwf0bbShvIGtixKhFwlBv6v98gqkuxhvX1TFjDDXeiOK5aD2zQoJ4sKGxyGjR+anOdNByAsNFy6R3hAVgBmhQ1udZe90xX4BBy9KRLxcZUkcocle3aNfv2JXfdL6aILO1UWNnBneNmCFOuVt0iczUCt+4G8eNqbgTJ3bLTzJz/uYzjafcoT1+mRsnpg3bzvBN0QG5L8zMfjxzYjr194X9glG6Y2W+GuDm/1h9oA7VyQsxmAU7p+cYz6TZBiAyCx4aU2S2dzr8WTcXPSvNX1Kgji/VKnGaZFlMKIvg4TCG5PKZ+3p61k5dOLNOZ0bcU92mZHqWxC4XGarLz6pwYDePeqasP5zpkfy2mJlls+TMG5zKwTPWlGI9KXAfBkqwYHB/mNqM8KtSpq2XpYpyT9SuUD+Bpdz0AUWXneWnBvEqdCe4Eu2A0Rd531XBV3W8fklBWyeTMFbvtMEhel88McD6Yw2NKT0wxs2i9mm5J9dhuGiVovWPAEwLVXbWaFE0aw4qMctFDtRByTIRtsBzl8j7fJzM5DdDBnfZ8hSD6Tw3ZNo4UUNqLfFFbtGamuF3/zjT+bfldMyNYYQGA3U/+dxC/m4+falnDw+5wXYNULXCluU73uBi8fckMjM7QQdEZkfvh47q0CDJupZq13N3jazIWjbooXxn77BrT/ZS63utTiQ+2dYIEz+/A2q9jabHylrPHVzZWWkeKMpa64vBc6fDms/sPyvTO3BvsCu16eCXe3jV1bM26sLZdXpTDV7wEhCqC0lKC9s0wSwXofavZJlI+/VMeX/Y5uNzZyBnyyr+RCUAgt3jwu5BwUgblE3SFNXN0pe2dbOWQa7jS3Q5dY99Xyanet+ZC3XwwokTt4NeW2DbQGd5idzj7k2RanfCdjKv09x9dQLK2id30mcJgeGiVWTmB4CWsDOZPFDY4kFXcMBVsiY0sOVumWdFD6GK/pyXDhzxhkqSx49v1EtZO+kNiiuI1mDS8fanWzNbFBg0SpkyTnaWzGxEmcfBP07VuG74fB+fc+7bGmyrUZPlHq3kr8yS0BNeZ71W2Lxhl58GvZZbLbhRkJe2jE/8snzXUbec3nCgUYU2Kvj1hlnX7i6VCQ08uceSfkrW92brdP/elSU3Iu+Pz1X/ezwLpF1kKR3uPhe9L214kfGGmbxO2LiPm7C31M0L2VMmmlFLE+cDywuFSxKS1b3da73cxXYWWc9vh8rRc2OwKfzGPrhnxDBJxPurOAcPEurqWRt1YRs6LWvVS9s0ixh2S/eaaLOe0VT0hyUft533bQ2U1i94UoAydP/qSXG9zKTq5kPea8ytm5O6zDLo6HLiHt5Hyfd0MJs2e3F6fKBU0BaYPS6u83aK7tmOPCbidqd35C4RN96MTLpOy9uwwjyYaWnmw7MxYd8r4d+rkfp5pye/AHhYWNEc8QQgCeRknWCX7C118GS+jS9kKoSNGdQ3KJvhCWEjiXTeMBB5WCDPK4joFw98auskWBmg02CdcOUdHhcAAACWA71vQYPlKaAlzGfUeIYnXFucRAZV/DUdGC0AaB+9ph9LkgAAawYMFwAAABYbWeJgXCsbuGSD9mBX8u9n6lq7pyY2ItPIJoXiabHsLqkALBr2s896eQqWJAEA1gwsFQELC1zhQB0gJ6BtIFMVWI8K+emS+jQbeFggzwCsFtBpsE648g7DBVhYUDGDOkBOQNtApsAqAXkGYLWAToN1wpV3LBUBAAAAAAAAAADAwrLx3/G/nsnuP92f5S8AAAAAAAAAAACAh+Hbt2/6XywVAQvL//7v/6r/+Z//kV8ApIGcgLaBTIFVAvIMwGoBnQbrRC7vSv3/4A535TI8rMYAAAAASUVORK5CYII=;" vertex="1" parent="1">
          <mxGeometry x="2300" y="130" width="858.02" height="170" as="geometry" />
        </mxCell>
        <mxCell id="xRZ3aG0bhwhxQagtVehW-5" value="" style="shape=image;verticalLabelPosition=bottom;labelBackgroundColor=default;verticalAlign=top;aspect=fixed;imageAspect=0;image=data:image/png,iVBORw0KGgoAAAANSUhEUgAAATIAAABsCAYAAADpNT72AAAAAXNSR0IArs4c6QAAAARnQU1BAACxjwv8YQUAAAAJcEhZcwAAEnQAABJ0Ad5mH3gAAA8vSURBVHhe7Z2xbtvIFoaP71PIQBLAQNo0qSzvTSNgHyASvEDk6iLldkY6OykcuQvcpQy2sgIksPMAAdzcu5KrNGkDGJsEsN9C95yZM+RwSFqiREsc5f+AiSWKHA6Hw59zhsz8GxPm78sR/ba9QwA0ge/fv9ODBw/0GwDF+O3kX+ZfAACImI3/jf+eyId/t38zCwAAIBb++ecf8xehJQAgSjY2Nojly3xGaAkAiB4IGQAgeiBkAIDogZABAKIHQgYAiB4IGQAgeiBkq+DnkHobG+bx8W3p+HJMx/y39/5GN1wil8eFZbLpmMa6WjVuaPgHb//HkD8VMe33ZaPleT3f0YLlASFbBff6dDaZmHdgTPpxSl1ePBh7yzgdbLfpgP+ePWvZ7VZAWCZJo6ND2tno0fCnrrS2tKj/gY/5ZVu/g6YCIQOVab+8ptPdc9q7P2/PDIB6gZA1mmxoefO+Z8O6IOw7vjQ/Z7DrpuvkwqOC8LYon2K4p7I/4L+HdJHZxpY3zbOGXlsuxPXzLAn9dJvM8RQcbyZkN9sc09Crt+PL4vyn1i1YOhCy6OCwjiOdkQv1xgM6bGcv2vHrDdrsE53+cOHgiAavdtKxJ7mo7+8RDa+TcNHmU0F47m2ZcPjLlYqBEYodOjwaJXleD4l7bQuImYhL+zAT3to8K/YE9Xgf+2EyH+95fzMQ70Pa+9Sja13nYFsXe0ytW7ASIGTR0eWL6ICSUZvtAxod8SV4korUm1cytnVG/XtmDaZNB3zh0sc9eicX7s8rOud8ek+8sTfOZzLxt5kCC9lj/nP+7cp8Hf+1x3kOaOSNJ7WevbUh6P58F/nN1Rf+d0AdT1Baz864nN7xz4Ap2+4pPfeFafs5l43r7XNWEgf7fe5vljBL3YKVACGLjse0FYjN1kPuG308owvp+ahIhevQdoclQXtQ5rOMcdUVFo3pgi9wOuoEAtOizlMp2xVZuatG60mPj0QeLCz25Lb9kntOH1SgklB1k/Y+mp89CurNZ5a6BSsBQhYbu1u0pR8drS3pG1lsL2Ya9mmo9ORIwqJ5xnr4opY9dR96pfHz0rTZP9cf58A83ZUHC9zz4zDQ5VlZ1EzYq2XiULVrQmqbbxVmq1uwCiBksVHQu/EvMF/UpmF6KjoedD3knpMI0axiZnon3D/cSgMxKxBpnmlyoWCLth6ZDyXwsUkv6dGWF97pKxCal4iviNrsYnZDw30bWrqxr3lfZ6lSt2C5QMii4wtdBYPnV99YUnZ71JGQxwzCn9PZf4ML/fKCg7Ss8PjY8Sz+8PVqhvEsFocTzi0Zd2pTRwTm00VuWxkc9wfCM2FwiPbyBr+Xj4C1X45MGOfG5orI9pyKxJH5eUFnudByCnPWLVgCfIeayCyxYIX8OJ3w5T0ZjPV7wmjCF+2EezrmG/eaZBa5CQvIxC5Jl/nbcq+Fl3Unpz90geaTbDce5LZxZXD7KlxHyefP6PZ0NNIFTGEe1xMWTF4+4FL5BGVk7LEF+wnyzK3jypGsU7Q/t4yTK6/JN9iXW887pql1C5aGnD8HhKwJVBKyweTUCZpJ4cVnSURPUyJQDhWE0nUKfk9S6UWrF3WSissmWEHIplwZmfA4JIX1lM2LBStXn55waZLf7HYqcDMKmTC1bsFSkLp3YKrriJAXMTf7j2lU8fUDANYReXjD8mU+Y4wMABA9EDIAQPQgtAQARAlCSwDAWgEhAwBED5zGAQDRAqdx0Fj8sQ8AysAYGQBgrYCQAQCiB0IGAIgeCBkAIHogZACA6IGQAQCipxlCplMRT53107f58qcvviXdpVu3mTTwFtftab8vHVN/cRrr5izYCpPUdXi+xdKt+jEn1nv6fSpoj9WpsT3G2yOLyK27MVR1SmoQ1j0pPa/XMjU3DVJbPJNkeqPgfF++KzAZuQPQHqtTY3tEaAkAiJ5GC1k2nOAuaPk07bdwh27dVSkIPzL7Lexqq9t1YABrwwQ/+SGD3ab3fpg6f8v2hfnfgTv4SknPtzl/bZlN37e+0/oMz6W2h6J2kBC0mflMeeNpj0nZ9LtF20uw71W3x8YKmVRMxtH5R4/O+tIo66AGt+6qSKNZ1N1bkbLtfE1dgSbG2oyPKSjbeZ/350Ib5+voYxpykTv4lAs6Ekw4Kua5HOSZ8+iZB1fFiWIaKnKd0x5t5i70eUB7NCzQHpspZHxA4ujcHb5N42cZgzCNsg5qcOuuipq7LuTuLbiyZRyxW9Tfl7IF7kShu3aAc+C+zrmDe3UBmDG96/PZ44v+IKlPrvMTGQc7pDcLD9yjPQqLtMeGCllBJQvGjqsOanDrrkpd7t46qGwvKA2TpAtuQqiA0AItww1dfeU/uXUWcwdfS9SmLmf3dq9DPTEPvsWabjbQHhdtj40UslJHZxayWixSa3Hrrop9WiV32rndvRXpytvtxfZfn9xV7q2q3yOYjhGSOwTtkVmsPTZSyEodnfXOuDA1uXWbu2YpeocJGulC7t7C5THtmDDD5TOvoxKXSwx5wXRqiwRKQHtkFmuPzQwtyxyda7sz1uPWbRvYIV0UjlHYO0z3aae0Oz2bu3f2TmUbeD7MGH+u+iCkRVuP+M+ri2Cw+oYuPkld5HsJ68ytvR6NBA4/Bxe4upV3Hy5aUxG1x6Az0Zj2yCq6eoPe0OWasSaoBY7OnFj981QyueV8FnXrVvLrCQXu1oFDtiF33LqPnLO1t1/NJ2MKm5jpunIUG8va9byy6v799YrqYtnI/qdhyxm6lQvZ813ULnJty9WDt16Yf75eCs6xzzq0x/B7kg8n12ZW2B5luaOxQiYkJ1nTYFjWOJhKDacmt24lXM+k8KQJyQlOUy5PdzK9303j9BtsmI/8lqnDGRuOQS+IJJVcmEtEyjENdx7zZQ2EzL/4vDpMbhDumIP2U5h/WO9F59ixLu0xWGcwLmhbK2qP8rtjQ/75laa6lveB4NbdbGTgmJulfltv0B7nx28nzRwjAwCACkDIAADR88uFlqD5/EqhJZgfhJYAgLUCQgYAiB44jQMAogVO46CxYIwMzALGyAAAawWEDAAQPRAyAED0QMgAANEDIQMARA+EDAAQPRCymjHT/i4yBzq4OxLLtSpOQToP/bxuRY5C67MpzLGNtL87dcDSOmyayxaErEZkShaZ9hc0EzNr6W7XzLa699eSbzbzOBRV3UYdjX5FIGS1YO/am/16JuIGd8GYLvgi7z59Sy+M4UY4pTKIGQjZwoiIOfcYMSbVxaBR3Lx/Q4fcFxOLwfZ/rB9l8dz2gdP16wtdrnCvR9y5jy/D9UQWPTs0SX44GoSJiYu35ue2cQ7khlxoGeQvyQ1jyLr394ynhZj7un2b/fDnYeJ0lOaXuh+5lDcbtuV0v/O2oUuKYYo7uDmOYxp6edUemsp/UVr5VNdrQ8mUvqAS2ixrRM9LMtV1+F1x04x75y/nmeDW8ado9qZ6Tqe21imbXV7BtM7JdNReGdyyJI/MNkVlDqb1LpheO9lP0CZz06cX5J+b/z85dm8fBXVWfBzh/hZH8nRAyGoFQlYHfgOthdILPDtfvL1wwznigwtc88rObR+IlpIRi0Ihy+7f5ZPkndkm+K2IGY+zaD2Dv7/C42RUlNy2eUEUgjoLtqkLv50gtARrj7HipwF1PLv+1pNeMOivvo9HnWDufLUpC8i5js9F3mG8nDZ1jojO+5smTKs2vhfsZxZ3cHU3v93tv4o7eIFTeo1AyMCaYwf5xe9xJxnD4aTjSemgf9Y/1Od249v6Of9WOBBlzXSNg7d/LFVFzTLNHbzU51M9Pi3ldbZsIGRgrXGD/BwuSRySTSoKdtC/3OnamOU2BfNKhpb/h31osVNVzC6nu4PP5va/mDt4nUDIwBrjXKrVsTtku8MBJ0vZiTzhK3e6NuFTE+EQ8e1Qeot5p/LbmMkdvMzdPOP23xy3eggZWF9+XtAZhz7dp51gDMdhx53o4xldsBC0X45Y2LiH4/3PjJv3f3LopV9Wir7ikPlfI4FQa9j35er2/4Nge1uBSGkvLUFF8rz/p/cqBZfBH0dj3KssRXU22O+X1Hv9QMjA2uIG+V88K7+c7IXoBv3bdDBhMXu1o+NHG7T5qUenInYrJ182M75Fp3T9wQnGjA8EJDzlsNqup3mdbNG1CVVTgWs9O6PrIdHefbe/HaKhrONhHhwEdWYMh93DhOWAqa5B45CLQcZuALgNv52gRwYAiB4IGQAgeiBkAIDogZABAKIHQgYAiB44jQMAogVO46Cx4PULMAt4/QIAsFZAyAAA0QMhAwBED4QMABA9EDIAQPRAyAAA0QMhqwNjd+WmOpE03/TDIHYK7NrQFpYChGxBjO9f+9CbNnhCoyOZfjjw9gPrjbmZbdLeo1HSDtK2cAc+jiADhGwhdIbOo1FmEjk702jBNMFgPRGTXb6ZdYfXNHmZnf1eDENGR2Kai57ZXQIhW4gW9T/wnTdovI4yNxywXkybibb9+4hGk+e0lXPf9kJQ35WcMS5HvGwcOn1LHsG2aW9PQ9vMdNiMru/Wm8nlPDIgZHeBOs10Hy7LegGsDjUnuc1oY7tNbb7ptdTsIz8ccU2ntEeb4Xjaxz3a+fYiXWf33E47LdNSa+h6Pexyb2+eYQwOefeJ3nr5yNTXsYbAELLa4bvi/vS54sG6oN6OOZPaMsb0rn9uwtB0OIJ79ifWxONNplc0oFHS21fTW17r9CQ19XBGw1VclCxBPs9e8N6mG5c0FQhZzYxfi+GpeAbmvQIBcL31nFP5vQ71doPhiDu1U6vict58IGQ1IuMazvh0mQ4yYJWoSe3Xq8wYVykZX8jmEeu4LoSsFuwgK0TsV0RDvo8cYuqSHDqobgbTjfEtqBsI2cKIiEk4aW35IWK/HnacKhzfSrFPNbvUe8LhpJroHn4Oniw6M+E7eEBkncXXGwjZgtgxMRGxM+qv0ZgDqICY1DrD2+DVBzfc0B2+1fbRpudD7pO92sm+NlHLAyLtHb56kz7F5N7gn/0mB7P1ACFbBG4kb4zNvD4W997JMSl4NwisMeLenXMCFxEbGNftM0+gxMFbnL4P22499z8CFn9AJHmPjrz2eP+KXhgH8fUGU12DxiEXoLzbBMBt+O0EPTIAQPRAyAAA0QMhAwBED4QMABA9EDIAQPTAaRwAEC1wGgeN5fv37/TgwQP9BkAxaTsh+j9tKuT5XbXktwAAAABJRU5ErkJggg==;" vertex="1" parent="1">
          <mxGeometry x="2310" y="330" width="226.66" height="80" as="geometry" />
        </mxCell>
        <mxCell id="xRZ3aG0bhwhxQagtVehW-6" value="" style="shape=image;verticalLabelPosition=bottom;labelBackgroundColor=default;verticalAlign=top;aspect=fixed;imageAspect=0;image=data:image/png,iVBORw0KGgoAAAANSUhEUgAAAm4AAACjCAYAAAAzQZJQAAAAAXNSR0IArs4c6QAAAARnQU1BAACxjwv8YQUAAAAJcEhZcwAAEnQAABJ0Ad5mH3gAAC9zSURBVHhe7Z27bhtJE+9L5ykoQF6DgFOfQJFIwAkBP4BJyIDJaOHQmeFMtAKZyhbOHC6+iBSwAukHMMDEAKnIwXG6AOG1APEteKpvw77NcHiVhvr/gF4PRzN9re6uruqePZgxZPHff//RH3/8oX8BUGwgzwDsF+jT4DERk/f/o/8FAAAAAAAPHChuAAAAAAAF4eDXr1+Oq/Tp06f6CgAAAAAA3Cesp+krRbDH7eDggLxbAAAAAABgx8R0MrhKAQAAAAAKAhQ3AAAAAICCAMUNAAAAAKAgQHEDAAAAACgIUNwAAAAAAAoCFDcAAAAAgIIAxQ2AR8mYLg8O5FHzrNC4mtL0qsHXl/zGrplS73U8XyKIvK3C+FM8vnloUO9WP7xLbnvUeN3jUgMAQDpQ3AB4lFTobDaT3wdSYUQdvlvv3Vn3ZtR/U6LSmz5fn/Eb98Rpl+6sPMnwu0vUPKSDT6uqkx0a+XEmoU/NI/3YDhn/r0UDfQ0AAGlAcQMAFI+jJvXHrGqeV1e2vAEAQBGB4gYAyMRxlQp33sEBXd54rtao5ct3x4YuyMBtuYyr8OQtdU+JBl+Hzjsqv1acq1rlbi7l+5c3+rdB18FcYQxduu47qh7E8255jftZvV8958vrFh1672+sPACAvQCKGwBgadqVKusjxrU4os551VUopHJTpfbFKHFB3vWIWk/mSolQYqrntsvyjrrEiktuxaRE5ef8z/WEJuqGjPOwSdT9nZG3vJzUpPu4/c19d/q9TwP+y4c3Jf4llLJDzrXlzh13uH5ChW/QPKThSytf1KaqVFRL1PxnRqMLfki7hc9O1Dup5cFeOAAeLVDcAABLI/bCGeVC7peTbsu/Eoua3K8llJCP851xpTdfpIWs/VkoHVOa/OSbFzVr75xSYGbWO4soP6vzf3/QRKTLyuJf5yJvX6w9aiZvVU+RYqXJtmLZIVHyKvS2x/GfD7VlTDCl4ddBku/p1V8cU526n5uce83JmVTC2hXvQAcrsXadybgtpTNAl6cztvfc6fJct+hvTzEEADwOoLgBAJbmuJyoKYqjMqsvA+p/F3YgrZQ9L8+VGUmJaq+MsqKvhfVoQ6c4lSWsTo0XXt605ezHxLZRZRxOsJXNFw2OsU1DoyTdDql/zW+/lGqbUuJOG1TzDjNUXsoUlUKpqT8r66uc3E5kecr+QYloeQAAjwUobgCAJYkoE6y4HetLYrVswsrNIuRp1d9dqfAJF6qyeC2nxE3+Fecwj6382HGZUGXVa0WOatQQVkLtLjVu0lpiOWP0vjQnzUreFF3lzmY6+aGvAABgDhQ3AMCSDEJl43bCKoihTGVWdnIhTocm1i6x70soXnmVN23ZO+X01A0m3ZImPm2yPMYyKNylysJW772VbtIEax+fG9b7rEipPFeFAQDAAMUNALA0gZtOu/WUm1IfGnD2hgmMa9FWtGz0/q2YYhjj5m9qCbfle7W/LHBrGpKTsPr3kpTefGB1kOO9Em5S2xVrK3UuG/loseN+trgZSgti4K4GADwKoLgBAJZm0Hw3t4oJxUi4Bi8+JBamyp/CBdqmqnWac3r1zlK09Cc0vNOR429CJfFckTGSNK0N/0dN+iAPBdgWO07nvToo8XZRnKlUqCbibYp43P1sRqlTp0M1nLd3zYhlbgHyoIV9WEGXx6lrVgUvRbnXKg8AoMhAcQMALE2n16C+2Uv2pEUk/o8L9mlQ6QLVn67Q+74Om8fSjakULXGCVH/+Q/9dBPV5EO//0hDbQ8ZpHovPkXgnUCsf558dUc8eUuv5iGb/WKc+JRmnSjn4H/VVhw2I6q9qXjzi/0DhlUPnbVnXrLEYinyZ9MPyVOmHqOugPACAx8LBTGzGsBCDg3cLAAAUwtKlFZP5py0AAABsg5hOBosbAAAAAEBBgOIGAAAAAFAQ4CoFAAAAAHiAwFUKAAAAAFBgoLgBAAAAABSEg1+/fjk2uKdPn+orAAAAAABwn7Cepq8U2OMG9hrIMwD7Bfo0eExgjxsAAAAAQIGB4gYAAAAAUBCguAEAAAAAFAQobgAAAAAABQGKGwAAAABAQYDiBgAAAABQEB6c4ja9atDBQYN6t/pGlCn1Xh/QweseXxGNP/H1wYIgnr255OtFca+Czk8sXQ6NK5HL5Vlcrm2UJQe3PWrougc7QtR5VAbccHmjZfHTWL+o5OjyRv/Iy9J9ZUyXkfz4oXH1/4L8bQyZ5zBNFS45hyuQp963UZYcrNSu+8w22n9rqP6y6tywMrnHke3lL3NeW7UvPbJ+uhcWt8rHmfzOiQmjC7552qU7697snyaVTs74uk/NI/XexvHTFOF3l6h5uIbQdGjkx5mELZYlg/H/WjTQ12BHHDWpb7c9y1Wdb3fG1j0OZyclav7D1x8r6j0e0P46V5fbpUJnVj5msxFLLlG9d2fdm1H/zf9187cF/DoRYXTRpuoaCx2/HE7YYllS2Vm7Fo9ttP/mUf2l/6akf++I3OPItvMXm9d4zDivJgaZVXgs/RSu0m0jOsqYpzAWyJ2vrgAAksrHO+qeDqj15KFZXsAuQPsXAVYWhSJ53aLDe7KOFYWCKG6eG+bTUN9fEsf9Y0zBY9fNGdX2fTfQkiu3k7c8aBANvg6duJVb2Ip3RWFVpudwQArdzqFL1zXhzs3jrjnbxK3er4oVhOhczvuL4ga7wXKVCnl/oqyj7Qrf07Kt5MKXFy3jmTK4Zj+QeK5c7eIwrpkk7lg+fFfYUivzEjXfCxtgm4YRmZ/Hu6pVRpcrkqegfy4oR9I+nvsnWfiltKtiU+XZN1Zv/8C1F2ljfyy3F+nyb/xOL4lHpKHSdRfz/hiaIy+RcX+9fmJw85fIpBd3bIz362Kpee2oSR+Ex+x86JVrQ3Kt+5Rb7wIdv5XX7HLMxzH3OStfWf10zTZ6+IqbrOgqtS9GiclzRC1qXeu/r8mgWaX+K2Ne5VUZx31oV2Ik/bse8cptGcWkROXn/M/1hCbqhuyAh02i7m9txjVm4mWEXFN5GRuQpjT8yiJz8UG7U4VgHnLpLHfuuCMFyi/HoHlIw5dWvjjuqqwT5YazXdFnJ+KN9LjDDgJ2htgaYLtCxHYB9Zfl2Ug/SKddqbIYadmJ9AU5OFbalktH99XYxJXGUVnWxY+JlsnUMq0yKZSo9opjv+7T0Hl3TENe6NR7b0k4alLLEQzc3OfeE31J8lWX/VLWdVq7brmNCs8K7S/G6eq57dbT7WXJZjCWc9uI7THO2McL3RbPXCqO2BaXcAyN5uWnvR1HWBHN2KzYSD9JhdNiIU7qIjJ/pM5rSygm5WeylWhi+tEm++lRjRoRIwrdDLl0der+qdypuednvveOvuhnRHtYVt2UfrqRNuIXHSK3dgoPUJyH+owrTMJKAv/uzFhYLO5m3VO+f9rlqxD5Tuxv444V92jG6s6MLtyYuaJnXNEzrlRJPC4//ez8CJxy6TTqPe9pmT8vbZHHtJDkXadvl8Urh1+vBrd+43Wi3p23gV8n/t8Nbtz3g6invcRr3zmeLESei7eX1/ZOXwnbXJEl9yq+QMZT8hfvC25fDZ7x3/X6T4hbxrh8emXSaTj9zgl2n4rkc4kxx7wX76te3JF2Xb6Niomo9ygbb39PVmNE2kEg21DXeZ72jPdJlb58JiWdlfqJTVq80fz5ZdB16PWVeB7n9+P1bpHr+TX6qVNnilg5gvpy8pXSr/y4gzpZvo1Emj4P3OI2pclP/ueiJlerc7QFawPUn5X1lYZXZcf8T/ub0H11+s/LnqXCrK7nFrRlmH7v04D18MYLz/5xUpMbupMVoSTjcEKy2VLnxzIvqzQ6VJMWMW19O21QzVvpKWudtbphgjpZwORfEXeZ/LdicYMisp1+YHNc9vqCtI4MqP+d+8LthKUo9oxePf+7SurKEhYbW2Jl4gE13gcd60mFahfuan78rT3vd3JVzz36pZtivBzHVA6sMllsv432izztb8bVqusCs2HZFGO531alN33Pwp3dnvExVHk45AEBfahAeTgsl2pFSJRmK/3EJiyDtI4ZK3NKXcTntbxsoZ/K/OixRaKt4q9qsr2Wmp+D/raADbXRA1fcuFFSXKLKnLo+QQVy1ylzBSrS018W2TEdwRcmVcvHLUNVDuyrUHrRYFEz7lLjJvWEXe9Lc9K0O34maQqYnjDAHrO5fhAnMtjrBZRETggbQA+azsJETspunzhsrp6aXKwk7lJ3QjDI/S5Omoe5t36kD+zbbqM9YIX2lwqYdHfZ4/VciZtORIzrkm8MFe47lb6QF72gFwffDJvqJ2lEFuelctJLN1QXJh5vTNhoP/UWWNpN6ipq68zPg3RjxYba6IErbrYS5aIUofUJVwH2AJie/nLojukIfrolbaUj2Fpjl5bC2yH1r+f++gRrj4Ab1vmsyOasn+Chsql+kEZkoNOTrETvTVobPWjai7X0FfqZt8LPib2alxNChz44/Zn7ZbJvxgtrfa5g2220B6za/s4nNMSeXzGpr7C/ah1uLuWhsE6yLyoin5vqJ2lErLa2smYrcesQGjk230/tBZa0iid7wQ0bnp8NG2qjB664aaUgOGGyOStPsILVE4ZyZ6Snr1yPtiKWwc3fckXdea9M5651zEJuwlx1I7E+NcV57QlTr+MWNSZ/vxxcEnkiZr2Nq4653EJ2iAUuAvBAsBWlgA31gwyCBZScZPUqWFvf1PYFC7lA4UE9l2t/Sr3PLI+nXXor3U2hW9MgLRtLbKZ2qdBbcZCA4+3JCcGyegcuGoM60bbeQZ7tt1Gx2VT7V+hMWrnUYkON5ZGFhzw1mFe5S3dnm7z8v5gVilFjrGYj/SSL0OuiXLx6rpFKSUS+9RaB0LsVgedA8d0zc5hna/1UfulB5LUnreL29oXtzM+aTbURa5AOkVs7JdwE6W4oFahnIhsDNc5GQxtn46COl4O/cdB512x6jKQ/fy9lo6Ig8r5Abbi0yxnGsXATZ8C8TLxC0fcM6WWbP6ue8d/120T9tvMViVtv5AzzsVtEHvaSYNOrQctRIm+RNg3aXb/D95L3UjbZZvcDm7gsBfkz8S6dlsmzJYfO5mGXsL8xkXSCOIK6ykFSpjAvsTrz+3nYvwS6jyV5TW/X/G1UTER5omy8/cMxWeC3Vxi321ZZ7TlvP/1OZAyVedHXTnvre3baufqJja6DsM7c/Jl47fzFZCu1Lqz3/PqbE6kDwcJ2YvQzy/TTpEyRvITl8GXBG8cMfr68ehQs20biWZ8CKG4C3aAmcOV1RcX6DayRlR77m6xUE7ep0K4bt98QEi/9oIJNxcdD2CkUc8HRwUtbCU928AU1FDibMJ9u3kIhEwRtYjqS86wfd1oedovIy16SOuCGA8pcjiy5TQZ9FTpj7z2nrxgW9QObuCwF+TPl4H5oZEqE8D3Gy3PQV/2/2yFlrAjL5JXZkvX0kDYepNSPn08vb6q/+e/qfC5qV/NcErLaqJiIckXZRvsnbWmHsE79sdyW36z2dOXcT8vLS0xuYgrLon5ikzqOuPkzZeg65YyP8Vl1Icia1/xn5yxop1X6qXknpX78crjPeeOYQde9XZ95xt+sNhJ/9zkQ/+E/JIhNeN6tPUW4J6r0o3e3+//tCNgZj0eeC4pwPzxp0fHYnJgDIBv06d0jttQcNo9ptOreT7AyMXl/+B/gBQAAAAAAEihuAAAAAAAF4RG7SsFjAPIMwH6BPg0eE3CVAgAAAAAUGChuAAAAAAAF4eDXr1+ODe7p06f6CgAAAAAA3Cesp+krBfa4gb0G8gzAfoE+DR4T2OMGAAAAAFBgoLgBAAAAABQEKG4AAAAAAAUBihsAAAAAQEGA4gYAAAAAUBCguAEAAAAAFAQobvfFbY8aBw3q3erfABSKKfVeH8ij6vGwQ9kWfel1j3O0gJvLSD7d0LhaGMtCplcNjgt9++GzSIZFuKSxfnqnCFn9tK2Udbnz9Jks5Bzm15cV1o1/GXLW1/hTJJ9O2ES/HdOliGtr7QfF7Z7ghn3SooH+BUBhOe3S3WwmvzPkhj41j/QzW2b8v+X6Umccy68K/Tcl/RR4NKTKsAhnVNGP7Q5WrD639fXDp967i9Qbh3+atJvetGx9dWgUy68Muxu31gGK266Rq/4qFadbAgAAAOChAMVtlwilrdJWK5RxR98EYJ9RbpnGVU+5D0RIXCihq+ryRv5Bo1wOwn3pujiM+0q9Xz3ny+sWHQbvr4FcYAm3iXZ7mBBxf/h5G+r7YH9QbRy6TUO3uCcvvuttoVyJ+4fUuubL86r3/qL+koafVlxCVVns5zbl6lPpX/IYkLhWnfJaaW60vtZB1zWn49ZLJH7PZdy4mug/bJGZR+QW2AbjDtd1fdb9rX+DrQB53hZ3s+4pzei0y1dZ6Oe4HTpjfUsymvHSxX1f9gma8cJG39DPOO+G740u8uSD0fG7+UhBP0vU4RQ1Qf5M2cJn0Le3h6jfzZBXhpmo7Oj3L3Tr/+7O6qLtzW/mrld3ZWEZubLiyddfIkTyJPuLF5e6Z8usTs/Jg4eOOzN9ienHXp9IrS+rnleurziqnFZcqZi+na+/h8/ky08eRFw+UNzuC9ngGNy3DeR5W1gDVBBsudbPeZOjGqDDAdQdWOOTh//usopbeggH5MyJOvqMyR/69rYQdb4ZsmRYhUzlQCsepv3jSoEn/3nkKpJWvv4SkitPaQpYinwnGMUrFpz+GO/H8X67mfpKQ9VHRvDj9PMn82P6dsozKeVdFZEvH7hKAQCrE93YHdng+7zsbFSe/Dvgd8tU1r8NlZc85NEPmljuiPoz/6n14EnAy68J/kb0OpUzNipPJz/4vx2qnajfhlL5WF+BQpBxOGF+WKVEtVesppwPyTjppt/7NEjaf0xD4bK/qHkypN+7ntDcgZYtVzGW6S9zpjT5yf9E8lR+ri8ZVY46NV54RwlOalw6jn2SfTaUFb6w7iIHE9x+rPPmjQubqq9sMg4nfPSOogT5s+E8XnPuXtW8Z7idTvXlloDiBgDYMXrQXou0yYqn0ODI/4Y/6fBzwiXQk2mMozJPNWDfKL1ocLu2aSj3lU1p+JXb31eK5D4rV/4OmznPPGu5Clm1vyjFIkb5mS+hA2o9cfO93UN06XnLTWp9+fvmOGxsv55goMae2wmPQjFcxXgbQHEDAOyY7Q5slY/+Sno7n3QIJz8ND+g5p2pQJI5q1Dglan9jJeB2SP3rOnX/dCUran1aWwZX7S/plp9w0ZFuhdrOJ3K2aZWq0JlfDt+Stgl4gRa3rW9iYZoNFDcAwM6RSs91n4ae1Wz8TazxjzfsGtkOyiVqLDBzlAsV7B8lar7vSHdpT7gXTxtUS+S0QrULosHXYWAFkhbgNT9Gu1p/0Qqf5d5VuIqFa0m00KclN3ZS2yE9b9KSGXELPzyU8hm2+QasiQuA4gYA2DmlNx94jT+g1ntrQru5lJ/2qPfeLmWdUJOavSdmR5yc0Ygn63bFcsXyZPcur2sMFA+576tNLW5jf29T5c8u1cVnaWy3nJbpzvtlPkarlRrLFbhqf6l8HMn8Vq08Ta/eqc9nGI6a9EHKsffpkfctVk679Nbbw7kpZH2l5G3d+toNrMh/Vm3+zvo/row/bf87rVDcAAD3gHBn3FGX1PfX5D6Uyg/q/l7eNWMsBlWOI8//sqpd0enFwpKWEeGWHV2otOX7T/rU6Ikt3aAw6G8ABrKgg2txUpY1sWE+2MzPClB/xoqSvc9Ny/TZksqPPHTgfJtw1f4i3nPzdPi1QV1ZhjlCju96ZO1zO6TW89F2/+8Hkfo6bB5Ll+369ZWF1V8jYan/7Z0ow+8uUfMweb/KrdTd8uGEg5lwAFuIhL1bABQWyDMA+wX6NHhMxOQdFjcAAAAAgIIAxQ0AAAAAoCBAcQMAAAAAKAhQ3AAAAAAACgIUNwAAAACAgnDw69cv57jC06dP9RUAAAAAALhPWE/TVwp8DgTsNZBnAPYL9GnwmMDnQAAAAAAACgwUNwAAAACAggDFDQAAAACgIEBxAwAAAAAoCFDcAAAAAAAKAhQ3AAAAAICCAMVtp0yp9/pAHu81oXE11X8DoGiE8myHyxv92AaZXjU47ksa69+5ubkM8ueHTfRFlb8G9W71DfDAyZZhFVaQt00gZPbTtlIe06Uo27rx3/aoEdSXCdupt/Enjvt1j1tuOeR70XyasIl+q+VphfwtAxS3nSE6yiG1qEt3s5n8Lsvsd5eoebjFzgnADji1ZNqEcYfale0ob+vQGXv5tEL/TUk/BR4dMRlOwhlV9GO7gxWAz219/fCp9+6CehtdtKl6X0pvKh0aefmchz41j/RjDxwobrviZkhtqlP3c5OS6eGoSV96daLz4QMTbgDW5OQtdU+J2p+3u/IEADxMKn92ecZr01/wKm0cKG674uQsQ6P/QRO4VsA+8rw8X6gwobsitiLXbpzMZwxzV9fGth1It6pwm3j5iFjG3fJc0lDfB/uHautQFkP3uC+/ngtuoXxp78w1X55XvfdD124uq7bn0mxcTfQfbFaMewHHZWcE8OqGQ6RfqTqdP5Pdt+dxbsrCn2zJCOrNz4ffhrsZAaC43TOTfwf832MqF8REC0Aubv7miadDo49zJ5OY+Ko/bZfUHXVP21S194PIgbJK7YuRfibL5SImGjHB1an7e9OuzgG1ngypZvI67shJdD5wq0muem65XjiDraboz2AfqbxkGaA2DR3lYErDr9zmFx/Uojwiv3c9losnnvKWKV8VOpN9gy9lPGbBrxU6e7uN3pKQqdgIRfFJiyhxZ95R42uLS2KTHveqytD4fy0acP7PTvQNmUaVfthu1d9dqjv9So0Th02Sfdo8I7YUxcuo4mxrF+g8rU3A4857oi86r3e9Og04H0l9xMYqrkGpcG8bTswhcgtsi3FH1ne9x10FbAXI8za5m/HkIus4HjozHkwVv7uzOt/rjPVvg+wD9RkP0pLRBb932uWYbUYzntbkuzx46nhN2vN3M9F9LT1YedXPunnV6V3op6LPmPzlzBNYCVHvm2ORDNvjsycDAk+upfzasiTR7xm5ziNfkbTmsu8ST9PgpZ2g+pSJP01us+NmdPn9OktC3vyb/KWME/Jd/cz8eV2GrPxZqLJkhCCvfn2o9Iw8xOsmrb5XR+TNBxa3+0Jo6xVe85x26Qs2RYMiE9vYLVbSYsVqrGlHTerzfbUitlwyog8kTGnyk//x3KvKAuGupoeflCupM15uQzFPCG4+k+BvQK9nWsGnkx/83w7VvBV+qXysr0ChyDicMLfklqj2yt2TPP3ep0EiB2ManvM/FzVPlvR71xOaOyiz5SuG9M6clqmsfxuUJTBtuw2nyf2k/qrm9SmOR1j0JNpqeNqgmpen7LjnxA4nsPLjWKlLb/p8X/czywVZFXVmuJ1wfYZ1I9/9x9ofzuX6+7WwtAlr+zKHRzIOJ1jeAUWWJ0yPVZG2Lj/Xl1sEitt9IIT2SYsGYrBwhBGAPYEVtQ8X/O91n4Z60J/vBxNKlx5AhYsoQU0yi2lTWw/27YrrQnX3nImQtT9uBX5OpCKqtjhEOCrzVAL2ldKLBrevcZcaN6k3ect9aa4cHuZ1oWv5CtGKwrKwIiSWGCERBeO6RYdevt2F1XKU3nxgNYlo8HWoy2TtBxPzn3YxjsQ4oVELohxc8xggx4oBtd7bB6CsNEzY8FcbBv8K9Tt9rCo/2/4IAMVt1+j9BlDawL7jDGAs92JlPbd4rfOJBa30GaueNTBXPpr4N5FOOqmDs7QYgL3lqEYNcVr6G8vc7ZD6Yn/ln66ExaxP68viipYcXkjEbcARRdDaq+WGVT+TYVv1xKJqvhdNxhtYuJbAWEjFwo8VznfJ/jdlnXfyv046qbhls0ld1G0QKG67RChtYgUjOgiUNrDn2Adv1Eo6dIGMv9kr+grVxOo7sDpo16q/ck4+p/OXt/F7+yiXqL9RfQmLASgoJWq+Z2XhfEg94SZ13ItKfucWpjnSErzmR1nlYsGyYBtUH0pz6ykFI8yTbTEKXcCGlT94LdFpyK0PWlEMXL3avaxRFs1B6JpNTuLq34aTM2mxGzT/XjGPq6IV6aDOVrSMLgkUt11h9rQJpW0rKwAAHhDawlbvvZVWBqXoDKj/3Zo+9DM28ttPwmVjKWnTq3fq5Khn2RAod4zvLtkBesJwXLXcx9/hVOn+c1JjmWvLE8T+3rGY/CbW5vfLLNa1YmAtYqKy7vWzEFY0P6s8za1Sxvo1R8UdnvAW8pwedzYqDdNvdXk8xdPPh9li0a7YStqYLuXcqU/uepjvxdmW911Q+ThSdRaMVfrHNpl5RG6BDbDoRIt/igZsBlG3YFvoE1SeLJsQyLR/slOcvNKnyNyT1ea0mAnzk1vRk2kmXutUWICfdiyYk2DyWf9EWfy0mNuv+Z1e7F2wSURdb45sGTbBl2XV7mnt7Muv91xe+bJkdp6+n9+csuaf/rzoqnicPhPWxcJ5KfNUacoJUusZ0e9jJzjVPfc5g4zD64fmeXcccVk0B4tg3o+OM6ZdnTrz2prz1Y3kbx1EvD4H4j/8hwSxmc+7BUBhgTwDsF+gT4PHREze4SoFAAAAACgIUNwAAAAAAAoCFDcAAAAAgIIAxQ0AAAAAoCBAcQMAAAAAKAgHv379co4rPH36VF8BAAAAAID7hPU0faXA50DAXgN5BmC/QJ8Gjwl8DgQAAAAAoMBAcQMAAAAAKAhQ3AAAAAAACgIUNwAAAACAggDFDQAAAACgIEBxAwAAAAAoCFDcdsz404E83mvC5Y3+AwBF4+bSkeUgfBrrB/Mwpkt+p3E1VT9l3A3q3aqf6aj33LQj7932qPG6Rzr2DeHlGRSPRTLM4X7ad0q913nkfzWmVw0u2/rx+/OZH5aa37w+r/J4yb1sAbE2jPR1kdeNz7diXFm2nBsAitsOEYJTPe/QaDaT32WZjTvUrmDgB8WmM9by7IePFf3ElpCDZpV+9O6cdO96RK0nbr8a/69FA30NgE+qDHPovynpp3bIzd/UutbXDx5rTvPC2Yl+ZEtI5a7yg7q/7XTvqEstOrQVUx4r/jrX13sAFLddoQWnMz6jZDo7OaPRBdHg63DDlgAA9h+pjJ126Ys3sZbe9NGvANh7xvR3c0D13hdqHulbkhI1/xmxOjmg/vf9HAGguO2Koyb1d7ACAeDBEXV7CldQ3KWxFNcTmuhLm8pHXnn/0+QhXKVTFavta7EKt90aETdrxL2rXDbzZzIt5InbJoeLBxQH7RIL217LkCU3vry4MqXlnu+5z3kuwkqbrwbScuy877sFc/Yf16V5SUN932HFuPOgyur3ibDuVmHwb3QEoDOeb6W1VJTribK4Cw+XUy7drna5wzbWbZY8k+1iTtp1g/XnA8XtHhENLCaUznsxwQAAlqHyssP/bVOVB8n0PSZi9T2TFjg67dJdsngSk4bnZv3dpfp51XWx8oR32KS5K4afoeZhXHkTE4SYcC9G/KxlWQfF56hGjdOIFfdmyBJYp+6fqrUDeZmNqMMyFSgnfO8dfdHP3FH3VChpSrERFmOxjYZEvCIeveXAKHRzt65xCWYtEszCxd6iQ9RquhsHUuPeovKxPhWqiX4t6jerDk7OVN/mS1k+uaBjhNLGCt2x7Sbneh9w/3YXd4dcE2rsEM+orRhx5U3U46G0AvK4YtLZAlDc7gO9shENLAZ5WOFAkZGr2GQ1qsOaq+hc8IB81xPDsZeHHJPN9OovnnA79MF2sx416YPtYk22N/Tnrhh+5gunGU7gltK27b19YONEZVgGoxDwAuA9K1PXfRpaE/b4G7f5aYNqQj60vLiuuwqdCSWMlQtnceG4+HXc9IMmqZYc4xa8s+YLfu+zUEja9FeaFVjvlfO36Jh+o1Bxu3ORjvu6Re/S4k5Qiye/7naxYb/yUSi94srNQ6ZVXGO2Wry159+TtzK+9jfV6macGFlKWOnNF6lo+25YW2nb9r5IKG73gVgBmFXNzwWrBQAeONGN3TtSXqR1QqcprWoC7RLNGrzVe3oys9wl0qVquJ0QD8NUdvbP6Hft1fS/f1NDKG3CogelrZCkH06wFZ6at29qTEOhqL2qSVmYfu9LeWm88CZt+R6rZRNLHp+X5/KTB5bFH/zPcdl7y1gCo+5CztNEvNWhmmccKJWP9RUjrYb81EtPdhfEPSd+OGE3BgllUVdpin1tCmE1W+TSnG+nYBI38aFzKGTyLyu0p2Uq698KlaajnH27TAwxuzjMAsXtXsmxYgIA5EIOxNYAPmi+yxi4rf1tYv+LdG9ayh+jJr3FDM7bcv+MUBgXWydAcVGuucTaqt2krqKm96UZ2ZKhKhWjxQzSLW5yEbE8UvGIcVTmnLuEVkdXiXn4qH1tcgyQrmZui/cZ1nd7fxsvvKR7U7qt9d/5zclPfbmANo8BEt+yuiWguAEAiocedOODpHZPZUyE409iMrUsBWtYytSAr5S+bGURFB25r1K7S6Wb9OKDd6Ixbn0SYS1LTETRykP5WcpbgSKo99NF8v1QXf9yX16at0p/sSHt8JJQynrvlavU7F1bp32UxVYpfe3K9j1oUNx2hTTFRky3ugMFJnAA9hoeUNdZzWs3Tvtz1n620M2p0CvpwAWiXF+G0osGxxBR/lL6cuWj+gRB63/Y+LC3yD1Qwl3ak7JiuxeVvLRp6C8mMhcZOWHFTTg3zd6rhNsh9bkf1Z+5kmxQLtEwT441OXABG5RVOs9+sZXQ7t9VMfWd6a0K+rhBjz++y1rXp6JEtVes+EaUP3lKN9hLu0MPGmuaDpFbYCPczVgbn9Fpl680v7szFgv3HtgokOctMu7I+uXV5gJGs46Q84uR/s13Lvi3I/vqmXpP9wQZd33W/a1+RknrP/p+Ehdz16tzfB1ORaHSd+MP8xR7zi6Ll2dGpZOnTsCqbLRP55bhOaaNbXkyhPLij/v6t9UXJH4+tAzb+QplS8cVyYeNypP1jOk3Vj5jchu8FyHPM5KgT5q8czB14fV5v8/GMPm2+6BA3Q/7bZi+HX8kT/o9Z4yx2yrSTqEMrIdIyweK245RjToPvsCBzQJ53iLLTHrJZDGXe9kX1lHcJNZgm4TIe1b6Jo1YXwwH/PnkYD+nCBW3eX42N3ADF9EGG0PLcGZIWRgEypfGlxf3OS0fixQ3W64jSkM87nRcWWfZ7EX6lx+3X+4IKt4cipvAi78z9upC/n2eJ1WP+ZVCO+5Y3ud1YOIMxw5R/2GZ/OeseosobmZcyF0vCxBp+hyI//AfEsRGPe8WAIUF8gzAfoE+DR4TMXnHHjcAAAAAgIIAxQ0AAAAAoCBAcQMAAAAAKAhQ3AAAAAAACgIUNwAAAACAgnDw69cv57jC06dP9RUAAAAAALhPWE/TVwp8DgTsNZBnAPYL9GnwmMDnQAAAAAAACgwUNwAAAACAggDFDQAAAACgIEBxAwAAAAAoCFDcAAAAAAAKAhQ3AAAAAICCAMXtHpleNejg4JLG+jcAD5abS3ksPR52KMMmH697NNW3oujnLm/07xzk649T6r3m9D/pp2Q6Derdqp/gAZMpwyo0rjKlaksImdqeDCm5Xj/+8ad4nclg+sMOUOVZnOYq5ZZlzDW2zOO9j3kcitt9cdujd82B/gFAMeiMZ/KbQnYYXbSpumPlpU59OkwbuMXAWmnrH5umRM1/uNwfK/o3KBoxGTah/6akn9ohN39T61pfP3g6NArqbUSd8+pihWej1Kn+s5qqaAtl6nBb8+vJGZe5T80j/fsegOJ2L/AK632LoLaBfaDy8Y66pwNqPdndqvP4VYPq58NoeuNvbepcdPQvAMB2qdDZ7y7Vr1vpi6kt0HjVocHXYURZnNLwK6uYF3X9e/+A4nYPTK/eUYu6NOrtr2CBx0SJmu+FotSmoeOaHNOl41KxrHK3PWrwvXDFrN9ZNAGUa9Q49dMTjGn4s0tvX+qfDhn5sZgYV4wOrrvVc5VGyZcOeKCkudkjMpu47Uxw5GIuK+5znptNWofFwsd9PzvudFyX5iUN9X0H3228rrXsqEkfLvhffzGVlc4S9RzlRY06130a+n3rdkj95x/o7TP92yZnuYdOHXr9V8axoE9vun49oLjtGm7QwyZR93OTyvoWAIXnqExiGfJjoocnOfhWqX0xSlwqdz3iyUkPeEdC8eLpyl8x3wxZ/atT989FrsgSlZ+zqvjNm8z4/R+vavxXj9T8+BNHm1rN47k7aNyhdmWJvXKLyg0ePiesEPA/vmxNv/dZverQB+1OFQqSHMt/a1kxLkNfweJ77+iLfsa1Tpfe9KWMCdefjEe74FPjzlQAlKJYPbfcmZxIy3MZGmVx7jLmPFGLDtdULsrP5AhAEy3nC9PJWc/plKnMddn/7uZavH/8Mhw/UvPj70+7blGLF393ug6X7b/bql8HjtghcgtsjNGMBXVW77FIMHe9Otd3h++CbQF53hDjjqxLHoxSULJNF0qaRxd8Hcj23ax7yvdPu3zFyDjrM56cEuR75u8x7HzIazeN0YWOz8tvPF43P6o/uvkRuO/qd3Q5/TLkKjdYi5X7tJaJ9DBvt3Bs9tr9d3fGakoylic4cpfS7p7MBL913EFfc+KOkPJ3V67dfpqQVh6LuGxbOOnnS2dhPUewyyOvnfoV76v4YuUOyuflJ7P/pvR5twyr128aok59YHHbIeNPvBI/7dKX+9gAC8DOGNPwnP+5qJG77i1R7RUPX9cTmoifcsVtr5jVe/WYxSyGfN9yl9726K+fDaoFm4anNPnJ/zwve/F6+ZEcU9l7v/KSh+KYSyYgZ7nBvcKKhZgJI+EsabfSiwbVHdkaUv+a39WWHGUVqlPjhSep2oqUWJ4Fgdwt4HYi4/blMBq3xXTyg//bodqJ+m0olY/1FSMt2vNyJBgL+L8bktCc6Syq50XI9+2+KQ56PPf7H8N1KmrnuOy1RKzcp2XPG6b7b8qeWocd1S8Ut11xc0nV87p0kS7ViQEoAnpgrD+zhjzh2rH3eXBwT3pVqHZhuUu1mzSYDFNR7xtXi5hMKar0scKU99ReMGivwMJygwePnmht2RLuO1cp0vvSnLbmxbn+azaDxKXooxSw5Zn8myJjehuDjXD/u/k+XPtkq8q3q3AuTCdXPWcg358v/uTBpJjSJ5XhnCyraEfYRv3aQHHbEUKg/I6uBnPxKYX7+n4QABtCD4z2irbeu4tYNVzLhm3Nkn3k4sNSx+zl+3IlrE6SxZU+sRdGXy5iA1axPOUGDx3byiJka8Dt+tZrv9inMVRY57MijoVsCdQeswiB0qL300Xyvc5nbpTiaFus86STp56zUO+rxZ+weKcofRHlNZWfE7WQXJnt1K8NFLcdUfkYNuKdPFWqOv+9fD8IgI0wpd5nVrpOu/RWDpqeJc0i+MDlyVu5Wbv/vSfdjHldJAnGXXo1pD41Im5SgTrIELo61EThWtnmm6sNUqE8TYvbZolygwdP6c2HuWxdu5bgwMVn0Ccicx9miSGVjHDTvXHDBe4+jVL4wjw5Frxge4JBnYRe2YAgtimIbQ5G6Voinax6zkPiLuX328E2BQ3Xqawd7yCEcc06noJg8abHibS4bbZVvz6sQDhEboEt4W5qBNsA8rwhMjZGqw291uZqgd6M62zSzdw8HdsUHCESh0rf2/jrPxfJj0nXPJPkw9rs7D/DdzI3Ki9TbrAaoi5XYoV2MLIVO1gSyr1/GCFlo32KbNr5CuPWm94j+bBR71n9yMhjsJk+ll52/0t/Jp63ZdJR98M4Yqh4I/XupeU/l9qXrfwk+bDaTN2z0vP6vIp3Hscy5c6DiMsHits94jc42DyQ5w2hJ5toSB1s9YCeBHuwtYgpO2lEJl9/gJZEJ2k/P27fM/2xqwdeFfw8L1DcJDnLDVZC1OlKZMmwCb4s63fSTgOaSToJjgznVNwSBYKDlb4fd94TiYnyIQPLXi8io35d5FCY3HjdkJq3vOksqGebWH+PKUZZ40ISvLaR8XAeu05ZvTlaxjGP14wb4TNWHDnqNw3xvs+B+A//IUHsvfJuAVBYIM8A7Bfo0+AxEZN37HEDAAAAACgIUNwAAAAAAAoCFDcAAAAAgIIAxQ0AAAAAoCBAcQMAAAAAKAgHv379co4rPH36VF8BAAAAAID7hPU0faUIPgfy33//0R9//KF/AVBsIM8A7Bfo0+AxEZN3uEoBAAAAAAoCFDcAAAAAgEJA9P8B1vkjtUoaBKIAAAAASUVORK5CYII=;" vertex="1" parent="1">
          <mxGeometry x="2310" y="457" width="431.2" height="113" as="geometry" />
        </mxCell>
        <mxCell id="xRZ3aG0bhwhxQagtVehW-7" value="" style="shape=image;verticalLabelPosition=bottom;labelBackgroundColor=default;verticalAlign=top;aspect=fixed;imageAspect=0;image=data:image/png,iVBORw0KGgoAAAANSUhEUgAAAnwAAADtCAYAAAAlSKiZAAAAAXNSR0IArs4c6QAAAARnQU1BAACxjwv8YQUAAAAJcEhZcwAAEnQAABJ0Ad5mH3gAACJmSURBVHhe7d1Pb9pY2/jxi+dVgJTeEtJsu+kKSGcTaV7AgFIpZjXqsruou9AsEthV3WU5mhWO1AjmBYyUzTQ4qyx+3VZCuYsUts8L+MnPOccHMMYkgB0g5vuR3GJDCNiXj6/zxyc5X7m57cl+qSIAAAB4+XK5nKgUz66p9W/ejVl7W943GwAAAPDy3d/f20cq4fv+8//7/zu4pYUPWyNaKwHiECdIGzGFLInG8//Y/wEAAJBRJHwAAAAZR8IHAACQcSR8AAAAGUfCBwAAkHEkfAAAABn3bAnf8LImuVxN3IHdEGso7ruc5N656lFoPTdnGb9ux9y24vdHaKldprxnBq7UdnV/hywWx7Ov8871cWmJF6zOeOr5tTMx9vT3xKo8aelz9fyJI27P9datXdfnYeg8j12ees9noctq4mU1Nhamlui+DF4TLtd1mTGOi5fqiXhO/TqGKdvZwnfYlgffN/PHTJaeNK/qUtimi+SaNb3oPpksnaO8fVU6vL/q0rWPsQNKJyqOOuLs2XVslar7MHPOj5dPZfuqNbr9U+pX9jEWZxKeitxFjueDK1J/FU54ynKito/LdfVzn0+Dh1kQG89eU7pOYUMVmN3wgrp01QmgAkKkIdcvvZYDANg5piJ92JaLSAU9f9SR3plI9+/r3e1VUZVOvQ/k9HpnG3We25oTvkhT9vm13b6gvaJU1X93fX1KBN2/tUt38p6PdA3PNIXPdJPGdE9EXxPbxRltnp9tgQy67x55TUwz90pN99HuoBH7/uHm8qALMvQ7x7WqYN9VdG3StKiG32+B/bojpo9pS5aM5FlPxEBwvKKxFddNGNNdNPX8nPMmtks3+l504aVt+jxU+7dvn1hWzDkemI2R+ee+Zs9xtW3ms9ljb7aXG+pR17RKTf38QmXmjrvqS9xhLn/yxf/qSJAKBsfNHE+9T18FPS6N8mSfplcmBKJxEY2lmbiJLQ+SlRnFX8wVXvrmZ4L3aqmyalw2jj/3079n5robE4sz3ymyX8b7OFI+z55n0WvjAp9n5tg9v/UlfGaHVaRx1hs34fakvly3wKBvgv5NcVI76jp1tSdtk7A5WXQgFNQ7h7qFvaY5UcYXUH0CqQIr3EUaNKlPDoA50FOveVDvqBKgcNDEfaezhlRCB1If5Mr3cBe1ep9D9ZrR++j3UCezhJu4zedd7kQxSgdi2kD/iQTtvx2135ry0dYq9WcqOCLtn6PP1JPmacUGe16cr/p7qIe2a/2kZH5q7n6dDf4sGyXETemN94OKHSdBB3hqMaCPUaS76GdbqurYRo/R7HkTERPbo26nXU3y0zZzHv6sScfRidQK9g6kdhjTQnR7LQ1VTW7/EXT7Pn7uh6htH+TCvkaXWTq5C8o13Rql41P0++r3sV3Kc8vMDVzYtlX5t6CXqqIu+AufR3q4hT6P1UOzb+PO17kWKxNmY7Et4hTGr9HHtuC8mZR5aumdTWLCSKHM6P8wV3gphoaWNJyO1EafS8fa3N8zKS/NdTdcRo9iMRTnC58L+ngdi1yMf1fVdD1PvtPstTH28zyWB6yL/lu637wb9RnSpXaKrwoEX+1MQyUQar3pqwMQ8uC3D9X2w7Z6FLce1vPVqfLka6O/dyT8+4PXRD9LmP1dZ5FX/Gz76qTzq27wG817znzW4GfViTl+vXkc5jUnnzH8eB7zGv355y2T7zL73ex+Gn2XyHcYs79j9Fmj323ePos/rsnoz7EtZuIpsp9Goq97ar9MPb9ADMTv/+k4ffQYPXHeRD9D9PgHHjs/12+b4uRpkTJlwfNw9Dq9LX6JxuZ0HE0dx4V+52LxMfu7gu83897zfueW0vvhuQXnafgYxuzv6P60+zFc7qRWJsS8t2Z+1rzm8WM7+rmFyozH4sHG4eS5yDljmd8z853Cv8c+jvzclHmfY+pcGO2/6XNq9LlGPxu/j4PPYF4zZ//OnkPp098lbE0tfEPpf1f/nR3I9PDivBRf24dhtitxuvnTZvTR2s3rYmh9KNd/qxrCYU0OIoPPg5pV0FSc/7WmaktBLSu2dcrUitUh/C0yGHpUi/6hG+Ttd5r6/Vow2Na0iu050hk9Vq8fN/ma7hDLtMrFdI3EUAGjj17McjLer6PvNh7nOLiWztXkuwStfVWp/RqpI9rWwaC7fJapeR0WpWjXR8L7dRcM+3fq36YcmGM6kS++sY9WsEQMPMa0vIxiwdSCg3gz3fNRM3EbNi+283Lwuyq65nRJYQmmtyLmPLTDVqLUhSNyzo+W0I02No46/47OYU+u1bGv/n5gjuNS5/6j8RFDfR99ZoR7X4ypMhNacJ4Gx08lLwF7zUu7t2ShMsHGYrhVTTM/a6630zeQ6NYqcx2z3cyB5coMc3OG/SzjxbYOR29ArP4SvuoEMR2XS0x+j32sW+vmdCkvdx2cbnGMir82Bj1l5rsskgesyZoSPnUQ5nTdBn32EbF36apl0bvR4hLG8M41B0A3qU4HXvRkM+Mlwu+hm23H32P+dwobnxzmZ20Ts+kOGQlOJnPimwC1r1/1wm8L2FG37qg7dzpBscnF+HvpRSXU9tlZ9mSG7XKIMedCvZi0YkB3Ldif1YWx7fIYX1QWtlhsY3VBxSGGiqPVqw5lOVDHetyta7tzpy9qy577Yd35FTs73AbLMeP29DVBdyeq9a7zYfmhPI96ukyYG4sh4bFulVPblW+7mQPLlRnzKjBBUrSAcDlpl0JoWI1JVs3nC8d7NPlLci6onw43/Dzh6TxgPdaU8KnsVyUhceZeQJMI9e1PL+FpJ4IMfPScPgF08jdJ+mxQT/28XRZNPG9bpiY1aZmbtMRFTU78YIyACeiVkr5R7Ubf6RS0eFbd95HfGx7bML3ET+8ypyV2B8VWULTIBW/u6wxbSERqhUljwDvXhVXo2K48Xcf88xXpmNsibFvKVmVa3K86cq0ubN4/6tJ19jEy1c6y5/6CElV4doRtYYsfzzaaheKRpHoFqZQJ6nN/UMnUJEmLm75pvWXG/Bbv0DXWtqwF23VCrRO8cNL3TOdC1BJ5wHNbU8JnE4aZ263TbjkKJzvTxnfb2PWo8idbw9JZ+0zXyEhQWwqSwqA2Ld/7QW16LHSXm6k5zTaVm4L4EfmjC9P6OPvei8kffVSfvyHXl7o7d7qGP9PlO/JoYWQTGHshCQu+y+NN3lkSXKhn91+0ljzvdYGgNjzqaouzUAxMJQfxSaSOWdMFspT552swZCL6O7A0kyDFlDFJW8pK780NFp1/XXPcw8NSVj33F2JbJqM3jI2GlEx3y+2oUe/Ll8cG6s9eL5ayQpkQxEVMomnuuFYJ0l0Qk9Hu+qD3aGRdZUakFTvEtKLNvQliOqFO71yI77LWRp/n/62YBzyLdd20ETcAM3jNaKCl2RI/YDjWvIGZ9veE3yMyQHP2symxgzWnB1r2ztT7hgdn2ved/U72vWcGoSp2W/Q14d8T/byxr3lC8Fkj+8EKngt//9n9HnyP8EDUmP0a9/1SoN9zW8TFytw4iH3d9Lbxvg7//CIxEF0fv49abPzF/b7ZOJhz3pjPEPrZubG9XBw+p22Kk6fNK//Cx8u+JryPZ47700bHafr8DTx97j8WH7OfKxwLs/ERE+tb7tljanReRcvlmeMcxML8dWXmZ1YtE+JeF4rX0WcOx8Rom1qiMTEb46vGc8x31uI+z1R8RmM6EHzHSSw+fS6MPn80fkP7Jrwe/n3hz2MfT30Puy16bNKmf0fYGhM+ze6Y0aJ2UFvv9PGOij9Q8exrwwd9LBT4dpkUQoFJoTj/NZODYpfYzxX5TtHgiHuPaNBHXxN+Tot5fmaJfjb7M/NOrJnvH92PoRN68h7R/fo8warfe1vEx/GosAjtB1fv79nXxcVZbMw+FQNa5DVNb/YcmP5cwXtMf4c554157+jnfyK2N0x/ppcjepEIROOj6QbnXfQCGX7N7BI5LnEXxJDHz/3H4iNcRobKgnDZE43jOZ9hW+nP/Pyi5ahe4s+9cBkwObdDxzuVMiEQjYup8mcmDvVniIvpJ8qM6LXvUbP7YCL6e6L7L24fz5Zfj58Lo+ejPxf3vaO/L/J5oudFXB7wDPTvCsvphO9/B7eyX6qo54DN04NbVWzaNSAecYK0EVPIkmg8r2/iZQAAAGwECR8AAEDGkfABAABkHAkfAABAxpHwAQAAZFxOT8miH7wt75sNAAAAePnu7+/tI5Xw+crNbY9pWbA1mBoBiyBOkDZiClnCtCwAAAA7hoQPAAAg40j4AAAAMo6EDwAAIONI+AAAADKOhA8AACDjSPhS5p3nJHfu2TUgGRNPudBCbGFFw8uaiqGWEEHYuIErtVxN3IFdx1qQ8KVIF6iVU7sCJDIU911OxVNTer5v5lLy/Z40TyuSe+eqZ4ElqAvsB6drV4BN8qT1qi5E4/qR8KUiuDgXKFCRlsG1dK5Emt6JlO0mUY9OvKbIVUeuqRljYap8OuYCiy1w25JcriINu4r1IuFLTCd7Balf6ZaYB2kf2s1AEnuOdHxfTkp2fUpX+iR8WNDw8oPUpS09t2q3ABugk71yQ6rug/i64oq1I+FLLC/OV93dFm6JAZ7HsH+n/q1KcS9YBx6lLrIFR6T9xZGi3QRsROnEDE3pHOXtBqwbCR/wUozGYZ19FIeED0/ypGVaVC6IFwAkfMDLMBro3JTeJ9qS8TTvvCKNw7Zc0KICQCHhA7aeSvbMQGc9TpShA1jAbUsqp1XTlUu6B0Aj4QO2mZmvimQPy/H+0fdBdqX+ajKHYzCLQEMq6nHtkol9gF1DwgdsK53s6W7cw7Y8kOxhCeVPo7kbJ8uDuUs3mNeRgfPA7iHhA7aSHbOnk72vdMsBAJIh4QO20PDyczA56VVdCqM/qxZa6JIDACwj5ys3tz3ZL1XsJmCzdEKju6CAxxAnSBsxhSyJxjMtfAAAABlHwgcAAJBxJHwAAAAZR8IHAACQcSR8AAAAGZf75t2YWzjelvfNBgAAALx89/f39pFK+HyFaVmwTZgaAYsgTpA2YgpZwrQsAAAAO4aEDwAAIONI+AAAADKOhA8AACDjSPgAAAAyjoQPAAAg40j40nDbMrc/T5aWePYpIInhZW0qtmqXQ/sMsISBK7VcTdyBXQc2iXjcCBK+hMwFudyQpueb+W700jtrSIVgRkI6tgqOSPunja2fbRGnILlzqhNYhietV3Xp2jVgs4jHTSHhS2Qo13+rsD3ryUnJblLKn3rSVOHc+ZfWGKzKkz+drlTdC3H27KY9Ry7cqsjpNS3IWIzpfahIw64CG0U8bhQJXyJ5cb764n8q2/Vp3R99+whYVllOfF86R3m7DixJX1zLDVVpeBDfa9qNwIYQjxtHwvccBn25U/9VfykG60AaVIFZMK1+71U6CDyhdGKGAlBpwFYgHjeOhC91Q3GP9fiEpnwksJEGM8A5Z2rHctiWC+IKALAkEr6UeecFqV+JNL0TWmGQjj1HOvqmDbX0XtelwA1BAIAlkfClyDvPSeVUJ3v+1E0cQFpGNwTV/+K2DQDA4kj4UjEU9x3JHgAA2E4kfInpZE9341bNfGkke0iFHbfXurXrI9wQBABYAQlfQsGYPZ3sdSbzpQFJ7Tny8UykUQ7/1ZbRhKXcEAQAWA4JXxIDVz6f6gddqb+a/Pmr8fLOFaZexqrKn3x5cO+kMo6pijTOeuL73BAEAFhOzldubnuyX6rYTcBm6eRG35EKPIY4QdqIKWRJNJ5p4QMAAMg4Ej4AAICMI+EDAADIOBI+AACAjCPhAwAAyLjcN+/G3MLxtrxvNgAAAODlu7+/t49UwucrTMuCbcLUCFgEcYK0EVPIEqZlAQAA2DEkfAAAABlHwgcAAJBxJHwAAAAZR8IHAACQcSR8AAAAGUfCl4aBK7VcztwCbZZ3rgztU0BqblsqvmriDuw68KihuO9C5ZJaapeUTNgC5ppJWbZuJHxJ6cB9VRdxH8x8N77/IG2pSyHXEs++BEjOk1a5YR8DT1HxkiuokqgtD6ZcUsvPtohTkNw5JRM2ScWmumZ27RrWh4QvIe8vFbiHbbk4ytsteXG+tKUqDbm+tZuAhLzzioooYEG31ypeqtL+4qgSydpz5MKtipxeUxnFZpheCsqyTSHhS6j8SdWcv4YKVSBtqpCsnDal5zXtBuAJpRPx/Y44e3Z9yp306UrDuulkr6yqIbo3jLJsI0j4Umebqw/b8r5kNwGr0kMGVCHZ9E6kbDcBq+r/0B1pb6QYmwgCz8hUQnzpjHvDsG4kfKkZDZDWzdWRrhRgJSqmjlXl4awnJ1QekJRpKRapuu+pPAA7iIQvNXlxvtrB0d4bqb/ijjgkM7z8IPWrpvQ+cXlGQralWKbGGwPYJSR8z6F0Ir0zka7zJ4OjsRp1gf7gdOnKRXJ2JgE9zOSB8cbAziLhA7bQ8N+OmbagUQ7No2amZema1mOm1sBC9EB5kj0ACglfInbc3szFdyj97+q/w6IUgw3AUvJHnWB4QHgxd7ZVpf1TPaabF0+xd0XKWY+ZBACQ8CWTF+dYXYRPK9IKzbnnnRekfiXSPKaQBbABozF7OtmjcgBAIeFLSt9q/rMtd6GuNzNnmu9zZyWAjTATwusHqjI6HhIQWsIVVAC7IecrN7c92S9V7CZgs/QFSXdhAo8hTpA2YgpZEo1nWvgAAAAyjoQPAAAg40j4AAAAMo6EDwAAIONI+AAAADIu9827MbdwvC3vmw0AAAB4+e7v7+0jlfD5CtOyYJswNQIWQZwgbcQUsoRpWQAAAHYMCR8AAEDGkfABAABkHAkfAABAxpHwAQAAZBwJHwAAQMaR8KXOk1YuJ7XLoV0HVhXEkr61fnppqWeAp3nn07HTurVPAJs0cKWWq4k7sOtYCxK+lHnnFWnYx0Aig77cqf+anm/mUposJ1IOXgHMpZO9ymlTeqO48ZrSKFMZxaapiuyrunTtGtaHhC9Nty1VwNrHQFIq4etKUw5Kdh1Y1MCVz6osanqhykHpRHpnIt2/r4WUDxuhrpG5HI0im0LClxpVayk3VAHbU5doILlh/07ksChFuw4sbM+Rju/LCZUFbAud7KlrZNV9MK3NWD8SvlQMxX2nai1nPQpYpGQo13/rTo+OfAiNwcq9c2mdwUqGlzXTA9E8diRvtwFrUzoxQws6R0TfppDwpWB4+UHqV03pfWJkFdLSl/6V/r8mF6MxWP6DtKUuBW7awDJMN1pOCo6qQFApBXYWCV9SA1c+qIJ0aqwMkFhZTnSS9zXcGpMX50tbqtKQzwy8x6Jsy4qpMHyvqOSPCgOwi0j4EhmKe1yXLrVmrMteUd6o/7o/+sE6sDAqDMAuI+FLYnAtHd3tdqprzaNxVsEdSF2nQE0aAABsBRK+JOydcEF3yWgJ7tI1dyIxXxpWZSYmjZkzbTQ3329EFh5hxu3FTGxrpvoReVNk4Dywa0j4gG2kKhMf9ZxpzofQRdtOWHrYlvcMIcBjSu+lfdiV+nHorm5diSg3RIgfYCeR8AFbqvzJlwdXpP4qNFzgrBe5kQOIkxfnqy+91/qubhs/qrIguueB+AF2Us5Xbm57sl+q2E3AZumLk+4eBx5DnCBtxBSyJBrPtPABAABkHAkfAABAxpHwAQAAZBwJHwAAQMaR8AEAAGRc7pt3Y27heFveNxsAAADw8t3f39tHKuHzFaZlwTZhagQsgjhB2ogpZAnTsgAAAOwYEj4AAICMI+EDAADIOBI+AACAjCPhAwAAyDgSPgAAgIwj4UuBd54ztz9Hl9atfQGwqoErtam4aolnnwIWZuKoJu7ArgObcNsKlWU5qV0O7RNYBxK+xIbS/67+O+uZ+W7Cy0kpeAWwEl04vqqLuA82ph6kfdiQCkkfluJJS8VR164BG6HLs/KdtH/aa+TPtohTIOlbIxK+xPrSvxJp/la260AahuJ+aZiKROcob7flxfnSlqo05JrWYyzCtKhUVMQAm6QqHWVdnn0UZ89u2nPkwq1K1/mTCuyakPAlNejLnboEF0dBDKRhcC2dq6q0/4hUJFQh2aH1GIswLSoNqeoWYq9pNwIbYK6Tsw0j+V9rVGDXiIQvoeG/HdNV0jkOj7NirAwSUgVkV96oisRQ3Heh2HrnCh0gWEjpxHSdTVqIgQ0x5dn8hpG7PqXaOpDwJdT/EYyMqX2ZjN17cEXqr7hpA6sb9nV9WI/XK0j/eBRbD9KWuhQYwwcgC/aKqlqLdSHhS6j8SV+IO5NxCUr+6ELah+py/YXWGCSju+Mm3beTMXyfGegMAFgCCd+zyEvxtfrvqi/9YAOwkjfFSHfc3oHUVGWi+4PIAvDC2bF9WA8SPmAL5Yt0dADIiL2iVKUr/Tlj22cqtngWJHyJ2AH1MwPpR3PzHQiTtWAlpQPR91U2/omM1jN37zINEIAXxI7Vi96cEdz02JQDZh1YCxK+RPLiHKvL8lVdPoTGVHnnBanHTakBLKws792qyGkldPOPqmAc16V72Jb3FJAAXoygPOs6hUl5NnDlg9OVqvuehpE1IeFLSk99YGcMH02dUTltSi9yIwewrPxRx8yf1iiPpmVRFQlpy8NXR1U1AODlmCnP7F8RYtqg9cn5ys1tT/ZLFbsJ2CxdGOhpSIDHECdIGzGFLInGMy18AAAAGUfCBwAAkHEkfAAAABlHwgcAAJBxJHwAAAAZl/vm3ZhbON6W980GAAAAvHz39/f2kUr4fIVpWbBNmBoBiyBOkDZiClnCtCwAAAA7hoQPAAAg40j4AAAAMo6EDwAAIONI+AAAADKOhA8AACDjSPhSMRT3Xc7cAj1aWrf2KWAVA1dqoXiaWc49+0JgntlyqXY5tM8BG2TKt5q4A7uOtSDhS8yTVq4gdWnLg++bOW8e3Ko0yiR9SGDPkY6Np/DSO9NPVqX9R9m8DIg3Wy75P9siToHKAjZMxearunTtGtaHhC+h4eVnaUhTel8dydtt+aMLaR+KNP6hYEWKbltSORVpeh1x9uw2IM7ttSqXVMXgy6Rc0pWIC1UZldNrdckFNkCVYblcRcUmNoGEL5GhXP/dlar7XqbbW/LifFU16k+0wiAtQ3G/qGLysC3vS3YTME/pRHx/XsXgTvp0pWHddLJXVtUQ90F8r2k3Yp1I+BLpS/9K5E0xL8PLWmisDGMTkLLbP6WuYq15HGqxAZbU/6E70t5IkRZirJuphPjSOaIE2xQSviQGfVVXFjNer/Dj43ic1YMrUn/FGD6khdY9pMAOCZjtkQCwC0j40qAuxA+h7tvxGL4vrrpUAwkNrqVzpS7Uvx/QuofV6Lsiy0Gl4YIWFmAnkfCl4XUxciHOy8HvVZGrvvTtFmBVw3870pWq1H7lQo0V6GRP3xWpK6ahm8sA7BYSviT2ivLGPgSeR3BjkBzW5IBxV1iWHihPsgdAIeFLpCwHel60mWkO7EX67ICxMkgouDGI7lwszd4VKWc98Un2gJ1HwpdQ+Y+2VKUhldBkpsPLD1K/YnJcpMDeGKTvBAcWNhqzp5M9pocCoJDwJWX+IkJPmqeV8bQsBUek/ZPJcZEClfAxIz2W5f1l/5JBqFwKL8wgAOyenK/c3PZkv1Sxm4DN0hckPb0N8BjiBGkjppAl0XimhQ8AACDjSPgAAAAyjoQPAAAg40j4AAAAMo6EDwAAIONy37wbcwvH2/K+2QAAAICX7/7+3j5SCZ+vMC0LtglTI2ARxAnSRkwhS5iWBQAAYMeQ8AEAAGQcCR8AAEDGkfABAABkHAkfAABAxpHwAQAAZBwJXyJDcd/lzK3P8UtLPPtKYCkDV2qxMWWXcyILT/POp+OmdWufADbhtjUVj7XLoX0C60DCl0henK++medmavGa5tmq+17K5hGwpD1HOtG4UkvvTD9ZlfYfRBYep5O9ymlTeqP4UeVSo8xFFhuik73ynbR/2nj82RZxCsTjGpHwpc6TVrkhctaTzlHebgNSoArMyqlI0+uIs2e3AXEGrnw2sXIyqXSWTkyFofv3tXCJxXqNrosfJ2WXqtReuFXpOn/SE7YmJHwpG15+lgYtMEjdUNwvqsA8bMv7kt0EzGNbiE+IFWyDQV/u1H/N36avi/lfa+pq2ZBrhhqsBQlfqjz50+lO12KANNz+KfUrVWAeO0K7MVYxvKwFLcTEENZNJXxdldoV51wX7/q0Oa8DCV+KaN3D86B1DwnYgfIFUxnt0eqH7bFXlDf2IZ4fCV9qhnL9typQD2tyQOse0jS4ls6VSPX3A1pmsLzSib3p50Ha3ysq+WP2AGAXkfClhYsynsnw347pDqn9SmQhibw4X9pmzNRn7ozENrBj+7AeJHwp4aKM50HLMYAXbq+oro5d6Q/sesSbItfNdSDhS0n/BxdlPIe+9Gk5xrLMuL2auNELrBk8zwUWa2bH6kVvzggaSppywLjStSDhS8VQ+t/Vf6+LXJSRLtvlwQUaSym9l/ZhV+rHriqdLP3XW/RcaNz8g7Ury3sz515h8tdeVDx+cLr8gYI1IuFLRdAKA6TOtsgAywn+ClDvdV0Koz9l9aou4j6I/5VpWbB++aPO+K+9hOORP1CwPjlfubntyX6pYjcBm6ULA31XIfAY4gRpI6aQJdF4poUPAAAg40j4AAAAMo6EDwAAIONI+AAAADKOhA8AACDjct+8G3MLx9vyvtkAAACAl+/+/t4+UgmfrzAtC7YJUyNgEcQJ0kZMIUuYlgUAAGDHkPABAABkHAkfAABAxpHwAQAAZBwJHwAAQMaR8AEAAGQcCV8qPGnlcuYW6GBpqS1ACgau1IgtpGB4WSN+sB1MuVYTd2DXsRYkfInpZK8ijbOeme9GL72zhlQoWJHUbUtyr+oi7oONrQdpHxJbWIG6wH5wunYF2CR1zVTlGtG4fiR8CQ0vP0tDqtL+o2y3iJT/aKstDfl8ObRbgGUNxf3SEFEVic5R3m7Li/MliK3rW7sJeJKKpWMusNgCuhKrG0jsKtaLhA/YRoNr6VxNVySMPUc6vi8nJbsOPGF4+UHq0paeW7VbgA3QyV65IVXdY+E17UasEwlfQvmjj9JUdef6X5NONu8vXZuuSu3XUcsMsKRBX8XQGynuDcV9FxrD984V2o2xMHWRLTgi7S+OFO0mYCNKJ2ZoyqTHAutGwpdYWU70uD2pjC/Kle9tefA74uzZlwBLGvbv1L96vF5B+sfB2FAzhk/qUmAMHxbiScu0qFxQFgEg4UvMjEnIyedfRgPrfXn4vaMuyjlpMc4KCenuj0n37WQMH+ND8RTvvCKNw7Zc0KICQCHhS8QOrI8UqvmjjvTORBpf6H5DMm+KkYv13oHUDkW6P/p2AxBDVUQrp1XTlUu6B0Aj4UvD6+JMoVr8pSpy1Rcuy1hFvvjGPgKW5/2j74PsSv3VZPxnwUzLoocJ5KRGCzGwc0j40vC9P9OS1/+hCtfDIgOlsZrSgej72Br/REbrmbt3RZq/Re7eBULKn0bjPifLg7lLtyk99ZiB88DuIeFLJC/OsbosX9XlQ6jGrGe0r5yqovWY7hSsqizv9QX6tBIaC2rnUztsy3umZQEALIGELyl9q/nPtohTCHWdiLR/MlcaktFjQfV8VY3yqFuuYOZTe/hKRQIAsJycr9zc9mS/VLGbgM3SyY3uggIeQ5wgbcQUsiQaz7TwAQAAZBwJHwAAQMaR8AEAAGQcCR8AAEDGkfABAABkXO6bd2Nu4Xhb3jcbAAAA8PLd39/bRyrh8xWmZcE2+e9//yv/+c9/7BoQjzhB2ogpZMl0PIv8H++9lCsRSE1iAAAAAElFTkSuQmCC;" vertex="1" parent="1">
          <mxGeometry x="3200" y="221.82" width="531.82" height="198.18" as="geometry" />
        </mxCell>
        <mxCell id="xRZ3aG0bhwhxQagtVehW-8" value="" style="shape=image;verticalLabelPosition=bottom;labelBackgroundColor=default;verticalAlign=top;aspect=fixed;imageAspect=0;image=data:image/png,iVBORw0KGgoAAAANSUhEUgAAAn0AAABVCAYAAAA8E1K/AAAAAXNSR0IArs4c6QAAAARnQU1BAACxjwv8YQUAAAAJcEhZcwAAEnQAABJ0Ad5mH3gAABnJSURBVHhe7Z1NbxM71MdPn0+RSgUpElueBSsSLptKfICbqEikqyuW7BC7hi5KukPsWKK7apBAKR8AKZt7Sbpi8bC9UgRUar9FnmP7eOKxPS9pkrbJ/H/S0Mybx2MfHx+fYw9bU4Ycvp2N6NHDpuwBcLP8+vWL7t69K3sAxIGcgGUDmQKbyP/IXwAAAAAAsMHA6AMAAAAAqABb/46/pcK7ij8aj+QXAAAAAABYZ37+/Kn/Yk4fAAAAAEAFQHgXAAAAAKACwOgDAAAAAKgAMPoAAAAAACoAjD4AAAAAgAoAow8AAAAAoALA6AMAAAAAqAAw+gAA18SYjre2aOvNWPaXyNlxKt3Lj23a2jrmJwrnfWo/7dOl7JbjkvpPV5RfAAC4AWD0AQDWHDbO3nXlt6H2bEDT6QE1ZH/89z6dyu/y1KjzaUrT1zYVAABYb2D0AQAAAABUABh9AIAbYhY+NeFY/q23NvXP5RJh/Maeky0J1aqQ8Tbtf+afh83k3ll41zyjecjnP+/TNt97fGbv26L2x3TA19xnnx8P76bzmpXG7HzsfZJQd+41AACwXGD0AQBuFjbWXtB7Uv8j5HR6QSd7p7R/ZzYfTxl8zcMejfR5uYbYgNPGWIMO9D3882jE5wbU2dG3CSZEOzrin3sndMH3Hzw0Z66Cyst2h+jkt+Tl9wlRZzsx/JTBt9154ORVPTv9Pnp+4VaTujq/5pqLPvE11iAFAIDVAKMPAHCzsDH2/llNdthIe9njv99pIt62yQ/+c7SbzM+7sbl2bKy9PSTqjR3DcqdD7/stOv0y5JyO6UPnlFr9505e2Sz964Ra1KWhGHR6fqEyQJ38156914Zr9928i00AAKA8MPoAADfL/TqbcVnUaPfPVip0e2OcT4hNOqqnPInKYBvQ9FOHc6q8jlMaiAGbhKTvuItIxIgN3lne8/OEJnIEAACWDYw+AMAt5FQ8fWJU/VbeMhUmvbk5cJeT7/IrG3c+X/OwZcLAOu8WNurU/EMAALgBYPQBAG4/Ox0ayPy36XREPW0A3rLFD+d9eqHDuxeST39+oaJOdTX/EAAAbgAYfQCANaNBB2M172/mDVwWk/+yv+ZXe9zW3sbgmerD0Mrz+F2Ff4ke1NOB28t/Bvq4oUb1+/zncDhb2KG5pOEXvmqPjUI5AgAAywZGHwDgFiOfTfH+N43xV/Ux5h7t6pW4Ykj9mGQugqjf8+fLNWj3iM3GzoeZ8cXGm/60SxY7HXrF93QbrodxTMcNzsvRK+o8qOswbverY86J98/FLuxopv4HkRf6szO9l2puIAAArAYYfQCAW4xaqSufaJG5cma+nPqEy+x/3Gg86Xnf4UtjvHRsaPF5+3mVxmv1qRdzTKf7rk4X2oOYTeP17PMqJi9N+q7CuWolrgpBq/l7etGJnL8zoVc6HO0YgzpUzcec6+xnXhb5nAwAABSxNVWTTxy+nY3o0cOm7AEAAAAAgE0Anj4AAAAAgAoAow8AAAAAoALA6AMAAAAAqAAw+gAAAAAAKgCMPgAAAACACrD17/hbavWu4o/GI/kFAAAAAADWmZ8/f+q/+GQLuNWob5h5IgpAAOQELBvIFNhEEN4FAAAAAKgAMPoAAAAAACoAjD4AAAAAgAoAow8AAAAAoALA6AMAAAAAqAAw+gAAAAAAKsCaGX1jOt7aoq03Y9nP4OxYL7c/PpP98z61eb/98VIOLI/xG+c5zOXHNj/7mHMqqLwU5TfAvOcq8ls5pO63nvYpWporlI2romRKyW/W5srb0riSnBZxSf2nnOelp1tRRK+5Wyi3UuZbbeqfy6EUcj5pD/b6jC2r3QhGVh19B9aEgnrX2xLq1e+LwY0DT98isMHw9lB+C7VnA5pOD6ih97hhvevqX/PRoIPplAbParIPFubzPr1YKyO6RyOWAfWdMH87eCiXLI2rymkRNep84jy/Nq0BXBXpoBvf6eS3Iwu/T4g62xmG2Sntv8w32FLsndCFI2NmG1GP2802jLrNJVrvdrP9GNgkYPSBynDaeZHh/QDg9jJ+s037n9UgYECdHTmo2OnQgA2/VtaAZuGBDg8+xz3+26UhPDUAbAQbYfSZkKp1SbepP5ETmcjI+c04vDdlFERc4DZUpdzWd/Z5PM0qscHHZbQ9C++qEK1S1nzwsDlLW7u7M56TjNhj4V0/L2H4JgwLRkbofoioIHyzKbT6IzrZK+v9COs9FZ6QkPDxmUw3sJuWDe/eSPmmZY63RcKfNnztbCm5SeQtlldFhpwqitJW+PKUkkspC+/9SskpMEg0odV/Hve67OzSq/EFvX8s+5a9Exr1W4sPdHbq1OI/3ydV0BIgzqw/SrfdsN2W64s9XRT0Zeb88UdH/6T0Vd69iuK+cqk6eM1Ye6NPCeF2h2Zhj99tGnRKhqq4k3tB78WVfWGMgjtWkJXgcGdIrvt7RD2+R3d8Dw90eEUpxN6Yz33qUDoYq0K0Kk3+eTTie71R+lxIx+zk5aJPnNeZMKtyaP5w86qe3aWmY3RoQW90TX7tNZxqNcI3deq8y/GKJIRlPR33tGHvGzzdxluqW7lTHhFtNG3T5KUcs+ExR6EE8ioydSWlo4wyHng8SOqTN87HaWfbm0Oj5HpIu841Kq/mfTLktEzayuBLyZOVy2x5KiOnwOF8ogeWD+pZUz1q1HhYo9pOeL7+7L3RafOEeX0Knw+qgmr7wye23bLeonS7LdUX64Fkk7pa15jr/L7M0u0MqG3TUlNESt1brq+M6uCq6CB+6RT/jr/Jr9vIaMrd1ZQ7J7P7+2TKRte01efqdRn31H+YOOXOyBBcdzHlTm7Ko2H+5aDva01ZGBjzrCBtF0k3eQ5z0W9xGj2+W++Z59j8KlLPsPj5ST87nabF3KOvieRDU+Z9ssrwlhAR0fnw3s+UpVP+0fN+WXPpHXH92OPRMvNkU9D32XrNKmtPXs2z4ptbx6m0EzyZ89uCxpfLUE7LpJ1VVjO8dOX98+X0aqh33EQCeS1EyjxT5rzzwb6LyHT0nCHVLjaMTZUpg9S7qt+MbSYzcd2Wav9z6TZfXnwZzNGlBffGdZK5RuctVwdFjm8g6+3p06PQFrUfe6NQCUkUcr/ueedcGrR7ZEY3Nx1+mvzHY+29OtVl32AmyevFHmpuD+soM8HfcW03nFEWl9V3/hOM2Hd2qb3H7/lfYUx8I6gVeD/iZc3S8ITVEJfgxBmNzuv9uPxnEJfXh7s8avZDaPGFHO4ijsZrPmY9zEmYVUK1KVpUn9PLXCbt2uM2p8yjfT4XhH1jlJFTsFy4zN+XCfPqBRtSH8kmXpUgigE2hpyFHP5CwtY9Xys6lOqLxzRUCx+Pdr2pCjXa/ZOv+jwhtxdKP6/cvYV9peQz0IdRHbyZrLXRdzlRZkwEFrQH8nN+TpOOXXd8KhQmHZtRhNdtAF7S5If8zEG5rE3+VMcsBoPOuyBhGsAKIDPMW66sF0OFWm1d2Y07Vzk7FzrcIWmw4cQjWVbWEqotw49J1PDVlElbG3HmmBkcmevzDMBCOQUpanWlyWY66SoUDXQ0WZ0/Vl6DXMxAeK6+WE+DsXrAbNudkr1T7r3F+jsznxVirY0+oxAjiFdrKai5e1YB6jl8ygC8ZXPgzo6pyaOgXjK3KrLUvqz3swpkej9qVL8vP1dG3IOntvk+0XNJ/Zf7dOp01sv7xM88actnWeS6kXjHo4ZfGTkFaUp4IIwhnaeT3IHO1T36+jmYewkizNMXmwHkTGfMtmJ9sMi9isx8Voj1Du9qQ+aUBv94amhVXi0xFvww3+JMaBKE5Cxx17fCKuH/06OX0GU9/ur4j2TE1f3qdQ3nQxrws3Nd9xtI4v1omBXYlvo9VdYDGnr1a8rywdxhUhcbDg0+fyFetfk+YCoy409RkPpcjKun3XitJniz4ReZLmBG2QVyCjzsNJMPcaOOZUd/KzQIe3kkA51mJPxfDtM2Qj0Umw4BKkapvlhk+cswGDgUDyjK3FvcV15m5fNsqKMtVViwtOZGX8xjM6bjpcwRkqXhqVWVlzT8wiK816Zd1XGJIZU9ChfPkRtG0yN3Njb+nqU7fpMf3qs9e8X3eCscrdfkZYf+V0JAKUGW8zMa9FwZrIdNx7gQjw6n/mppXqJ1QbwfsmcxZe2FwqQsMz+bURaW11esuLoNd7XZzKv2fK6PLnNHq0Kth0PHGLD1OS++nJZL23z2wFt1J8qz9yQsKRuqzJdT4NN4LSuc/bJWgwX92agejUqEYc1AR3augB20vLVeXDE4W3/upgcHoHqU7IsbfxmPs/tFA7cvy5OjMvcW9ZU10cHRfM6tg9eT9Tb6GPU/YJgl2Wyg6Rh/k6gfdubzoz5lIUu5Ze6AnoekloInE5uLF3voBQAySdoYW5yuChM76b69d6HDYtnIZzX051UkL/J1fj0pXoWg5XMaSV7f1elCh6Nnnaz+30L4Ov1dQX0dv899tfy9omE2UVRpsst6GeFTNU80La9SB3NPlldhVWsMzNJSn4vRspQy2IpJy2m5tMO2xxsrTxW+jf6vISXlFPiYEHpQ1mzwkQ53lW2/8YFOabi9DNz6k+cvb1oBuHakzScy5W3zRB9K9cVKhvx+1e3L8ih1b0Ffqa4IdHCTvqt2VJEFS1tTFRB3+HY2okcPubIAuAWoRumJKAABkBOwbCBTYBNZe08fAAAAAAAoBkYfAAAAAEAFgNEHAAAAAFABYPQBAAAAAFQAGH0AAAAAABVg69/xt2B50h+NR/ILAAAAAACsMz9//tR/8ckWcKvBZxNAGSAnYNlApsAmgvAuAAAAAEAFgNEHAAAAAFABYPQBAAAAAFQAGH0AAAAAABUARh8AAAAAQAWA0QcAAAAAUAFg9K2Q8Zst2nozlj2wVpz3qb3F9Rfd2tQ/l+tWwiX1n4bPPT6T02U5O76GvM64/Njm5x3Tuki8bp9O+bY/XsoZRpdd+ry75V4ba/NBerFy8uu9uCwzyzyQ3/Q1/runN1dmQllMvbulRBlkPdOX6/R1BfKr39O7Jrft8rawTo63T3ebu61ekfx6lO1pn3NcwKp1hScfURm6Evl1MX89SHrX2G9fex2q7/S5qI81g8W56LfUB56mdDSSI+AqRET0evh9Mm3xs1v9Czkww9ZtbywHlspo2ovJzbg3vzzpe1rTk9+yv2JMufT4Da6f+eTkYnqyx2Xp5lXKN1bfM7Lvm8lCWH8xeRkdqXTcupH79k74KQZzX079iYwGZR68SyTfMWx6Sd7DPIXXMCXKIMlDgfzqcildBvKckjIelnk+6p3iyLu45eIw73OWiV9+pVmlrvDTztGt85NTF4FcrgerrkMYfUvHKljZCpQcyCdb8a6YAsW0KsWeZzjNbVStUpFHmDt/S2QuOckolyJlGxog8Q4nfV2WsWMMFitfYdqKrHsVrp5xyzzjHpHn7A4w8i4Z5ZSu58h9TPg+5n1zO+BoJ53xPnKt2cI8BkTTzkddHyf+zjNiRu/1cPuMvnhZpGVoEfLqoqiebierrkOEd5eKcg1v0/7nHo2mF8QCBzaUxl8n1KJTGvzjOt3DUMMsvCDnIm564953w2/faRJx0deeDbgXOqCG7BvGdOw8r1SoLxK6MGHC/GuCEF6ZkMMtZPy1S3T0ijo7ckBovOZB8KcO1WQ/zZg+dE6j9+VTo84nTvd1utYsp/9N9N/Jf5z2Xpt2U2nXaPdPNtUOh0GdXn58Qft0QqM+n3c5H9Lgc4tO/vKet9OhAdsxBw9l3+fsA+st7oZfOu//8IDlbZDxvnEZzeR8wne0qJ5TdpeT7/xvj3ZTeYyUgZLDRpfYYCbu6ORgHtz23nGd753Q86z3XwU/JtI+TBv1Q5qmzaXDcUE7XFbINRLyXjjEmoQTPR3k6g5d71yrT9LyWHvcZmno0vA6wuD366k2HYZTXZ3ph3fNux1/dMqPz+l6Yv3XT9Jy6mlVenJJdQijb6mIgg86ZrBx7NTpAf+xnbZRDmzwc0fMIzTlItAdUrdhDT/pvD4PaJhS4mMaHvL4rP9cy4xRhqe0f6dEg9ZKoEndo5F5Hm+joy41U0qM02pM6JXN0282Vg+bqbSVEtzuEPEIUdIZUY+vcZWVVnLc0fbG9hoe1PDbbseMzFvNJU1+cHnfqwfKOW/+z+XHt9xF+cYUt/eXbHR83qcPyb1iHAYGnId0hjofhXgGFudb19e7DgV3c7qnLJn1HW8AktvxzGcUaQNVP0PtlSuDy38GnC+iwUsnT55BYwzfevhOGqcMtDE6pcGzuHkeEDNoV4nUrW9sFKHa2HbnAY1sW+VtdKR0wYJtTOmJO/v0IGm7vLFuOu1sL2HuocrfkHaddMnVL1oes43975MCHbcIut57NHIGXErXNX84Olo7Z1hnFhhm3c6A2lY/2vRY5vfJ6l4zOFqZnlxmHfLNKRDeXRYZYQkwFxERvR4K552kQwfx8Jy46pMwRjqkp4m55FOhK7uFoZB4GMAJo0VDWp5cZoX9UvdG8q3wymh5IZv5UXkth4Sb1OaWnbxvvL7jIaoZTpqZabhIHThllVV2Rn5c+UjXhX+f2Tf5mNVp+LwUUTnJILOc8ssgfI9ZXu1zM8Na+pkZYau8c5p0O50Hlbc4eWnass6uM4t5f3td/JrisHyaWBnGy1XyaWW6sBwjROWmbLoZ7zs3tryzNkfmc3WdzaOXfyvXXttP150lvw7Lvuuq6xCePgAW5pKGX+LencYTVgOJl6JBu0c8Nv4yTEaVOtTo3yeeDLWxcpGDyoO35YQdjMcq9CY06IDvm4XxMkbZNvSUNRJ/uEs652okLp6LB3XPb7GzS+0919u5TvRo5IZyucxZsfLI+UM4Ij8bcunzHV6ISmFCRW+pnnhJL6j9ZZuPZY/sx2/UFBBObzyLCNSeveIcpT0OymvQPJQdYfymSd29E3pf4OXiDsaRgRp13qnpCF16G/EeaxkMwqoRlLehYTyC7vPLlIEOnXuh4tqz93oKTPfdksJfMXS4m8vjz93le/k+Kw+O9VrazU7vyQqLZ2HarfVeJiHIO/vaQ7oIqWkLiXfbyODi5Ifsrw2WSTaIRP5kU1ENt02lpjg4nnAl0wXEPfLW2y2sUE8usw5h9AFwJSY0UQ3ONbpinYCnULQRmIR4JbSb0yGZeXxKickc0cOmuPPl+Qti5lEVoA3DDSMSRkwb6DMyjSI2gt7q0Px7p4NXUzxG2oCLGlgqvMT39Mb+/DrV6fN9jgy9oPfpOWus7JuHLR3WzZIXS/mOx8ggHe0mBmgUCS+dqs7VNZavUAYzalS/z38+syybA1FKyWgGJqzcovbjohK7Ap6hoQYNCteYnwcdGpS61/WsjGhtuCyIqjtJN5kLafXJqkjmM2YgBlIcf54yb7E5xkWwkfdK1YkzpSYxphPjnMvYbWOLsEo9ucQ6hNEHwFUQpZUaATpz69KbM+rXHjRZAKI9SD16lXhN4hO+DdZbs9x5MLW6mplYwE598Y7n1sDG3lyKstgoCgwseUbawDKehbjBZzHeHis3yuujDR7xBBvj08z3tJ3htpo7p7wZIjel6tMlx4uZoDwLMYPPoVwZ5FO/x1KWaQB6XpVSZHvgV4HyxijDbzaPdw64U3/BdWk6c09nLATL3UupO0eurg2tO04zF/2EcqNItwO9ZSyEKkLLlEUPmkz7M+kuee79yvTkcusQRh8AV2D8twq7WIMtb5WlGr27ob4GPe+zGvwypL5eReoaExL+jYUYHYyiNNeGI2oJW5QdGYtSTq9CZsQY0M+SRSvdr16aNnRWajHCbSFrQY0YVb6BIMZ9nlEUGuHGCzsrF1UnyrNgvDcxgy+UE4UYLeJNNiHS9GbC/8ZjoTsCCctn1ZX/HvEVsw7K4FPeajWgyTD4FPllIDIZTJaXKQrSBozB6ntapQyKPJFRJA+rCO1m0HitPJzK8CtedWsWxAjiJfKNILsA5uqYMgimgYg8rBzRHb58mPcqMaVgQdxFR0bWw3C0GUwtgZXpySXXISuOFFjIsSz8CaHgKkRE9HrImXzrT0A3yIRfd7JtVhpyPExDIekEk+4jE4ptOs6x1ATj6MRekUsnn3qScOq68F3Cd7YTqP1FBBmLBVbMfHISqavopHSmYHJ0WHZhuYTXxDB5cmXF3JdfnrEyz6yrYCK4PCNyXBORrxhlysCWb/h++fel5DlGXv1I/sM2Vo5smcouT428q3s+qEt7jc17rKxz9UScsD4jdZEcc55XIOdRoveEZRPIo7xXTLfOT05dSBknz/H3FX492PSSegjbpSJL12W2vci1Way6DmH0rQxfeMBVUEJ9IzgKN9yyGrDTEGWLK+tiRWA6iTJpiQGTbE6aJZWywioru0UVcqIgZfNkO0sRXgcqP/NRrq7MO+UrUr/sUmWbK0e8perBq8tYR+aRWeZ+XUXTisuCJSaD7uaWV24ZWIKyiMtK+rkFnVheRydlEG83xah74+SXmyIpj6SNePKm7vXzHi0fkYmS/UhoMCjism7KWeogIy+5hlm07DPKRurCbrnpzkX4bu4W1L2XD53P1LtKekl5z2f0afxnzGkDLK0OM9hS/3ACCd/ORvToYVP2ALhZ1LwlT0QBCICcgGVTeZk6O6b25Pn1zgEEKwdz+gAAAACQQs11iy+0AOsMjD4AAAAAOIxp+OOa/9s6cC0gvAtuNQjbgTJATsCygUyBTQSePgAAAACACgCjDwAAAACgAmypT7TI74Q/Go/kFwAAAAAAWGd+/vyp/2JOH7jV/Pr1i+7evSt7AMSBnIBlA5kCmwjCuwAAAAAAFQBGHwAAAADAxkP0/yHgPjI/FF53AAAAAElFTkSuQmCC;" vertex="1" parent="1">
          <mxGeometry x="2610" y="336.25" width="505.85" height="67.5" as="geometry" />
        </mxCell>
        <mxCell id="xRZ3aG0bhwhxQagtVehW-9" value="" style="shape=image;verticalLabelPosition=bottom;labelBackgroundColor=default;verticalAlign=top;aspect=fixed;imageAspect=0;image=data:image/png,iVBORw0KGgoAAAANSUhEUgAABMoAAAChCAYAAAA2j1OzAAAAAXNSR0IArs4c6QAAAARnQU1BAACxjwv8YQUAAAAJcEhZcwAAEnQAABJ0Ad5mH3gAAFE8SURBVHhe7b09bxvJFoZZ2l8hAZ4LCJjUiSNRvpMImGyToaABLEUX3mgnM5xJdiBTmeHMG+3gRqSBESQnmw2gZMaiIidOBxB8bUD6F9xzqk5112d/kE2JIt8HaFsku6vr461TVaerqtcmhBI+XV2qp1vb8gmA++V///uf+te//iWfAEgDnYCugabAMgE9A7BcoE6DVQJ6B3dFqLX/Q/4HAAAAAAAAAAAAAGClWft7/KmYUcb8u/dU/gIAAAAAAAAAAAAAYLn5+vWr/KUUll4CAAAAAAAAAAAAgJVkbW1NOa4xLL0EAAAAAAAAAAAAAICBowwAAAAAAAAAAAAAAAKOMgAAAAAAAAAAAAAACDjKAAAAAAAAAAAAAAAg4CgDAAAAAAAAAAAAAICAowwAAAAAAAAAAAAAAAKOMgAAAACAOr6P1O7amn59ePZ4M5aT75bxmzV1ciUfAAAAAADATMBRBgAAAADQkP7oRk0mk/Txqidn3SHfR+rta/kbAAAAAADMDBxlAAAAAAAAAAAAAAAQcJQBAAAAAHSFLNHc/XArX1jG6iRcnnl14i/d/HWk3KtuP+zS9ydqHCz7LMLm6384UOf051EvuL4mbAAAAAAAkAaOMgAAAACArni0o3b3lDr/eOE7pq4u1JHqq+F/zPJM7QTrHanB2C7dvFFDdaA2IofWkdp+odR7Wd55M+qr8/0NsyfZ1qGafBtSqMqE88e+Wqe/s2Gz042DBAAAAAAAWeAoAwAAAABoCDupvJlaxbGrRt/5jHW1/2Kg1OmZutCfDeM/j5Ta21U7j/Qn9fv+uVLHl+pwS/9M0HXvhqp/eqB+82aj9dXwnXGAMevPXioKXX2+zs0PM2HzXmpR2OpIvY1mugEAAAAAABc4ygAAAAAAGpLfzP9M7WsnGLG1owbqXJ39ZZ1SY3Xxmq79Zcc4vPTsMqUGPweb/9vZaP9cyxfME7Vpw23C92v1mf57smlda0IybAAAAAAAEAJHGQAAAABAp/TUzrGz/FKWXe7+5Duv9L5i3qy0DXVwKj/WkHV4fb/We5YBAAAAAIDpgKMMAAAAAKBjej+Xyy/1ssvjl+WMM01fDb+lZqbR8SqYadaGR5t6zzIAAAAAADAdcJQBAAAAAHTN1nM13OPllyO97NJbZhktzbSYN2PGb8xswaNN9YT+O/oz2Lb/+4U6O1Wq/+OmfAEAAAAAAFLAUQYAAAAA0DnraucXfkPlgTpSA7VTbKzP9NRz9+2VwvjNtj735bNgf7EqxDFWbu5vwlavt52wb9XoxYE6bxs2AAAAAMAKAkcZAAAAAEBD8m+95ONEufO41n/aNcsgj3dUuJhy/dmZmowH3j5l21+G6mZyGJ1bjeyHpuNl7h+HvaEOHl+qSeuwAQAAAABWj7UJb4YhfLq6VE+3tuUTAAAAAAAAAAAAAADLCz9YdFxjmFEGAAAAAAAAAAAAAAADRxkAAAAAAAAAAAAAAAQcZQAAAAAAAAAAAAAAEHCUAQAAAAAAAAAAAABAwFEGAAAAAAAAAAAAAACx9vf4U7m1P/Hv3lP5CwAAAAAAAAAAAACA5ebr16/yl1JrE+cdmJ+uLtXTrW35BMD9Er6iFYAU0AnoGmgKLBPQMwDLBeo0WCWgd3BXhFrD0ksAAAAAAAAAAAAAAAg4ygAAAAAAAAAAAAAAIOAoAwAAAAAAAAAAAACAgKMMAAAAAAAAAAAAAAACjjIAAAAAAAAAAAAAAAg4ygAAAAAAAAAAAAAAIJbWUXb7YVetre2q0Xf5IsmtGv26ptZ+HdFfhvEb+rxWddSFOSeuTtTam7F8ABHfR2qXymf3gy3JDJyPdN7JFf0t18Rl7B8nV2N1Qv/Xhj0FlXqbtrwljVXHPNJSD9e3e6o/c2Q2W3OiOq/VrGvnPnSnQL/TlYNJ5xziC2bD1vecvXBt3kIgdUFsUfq4J52hnV0a5tK2zgtdR++nbVzYPm/UjoGlprLfOn17wPpu3fY1GRvckw2ZKj2gU+r67nW/dw1s+HzBjLIkA3U5mahJ8jhT+4/ktDuDBhbvjuRv0BmP9tWZW7bfhqpPXw/Gznd0HG711CH9f/Zs3VzXOSm9XarB623PsdKWMB3uMb+0VHD1uzo4lb/B3Bj/90Cdy9+GQL9TlsP6szPSziGFBhYSshcPqgO9N1Q3gV0qj/vQGdrZ5WM+bWvnbB1SvO6jb2lZtD5vqh0Dq0Cq33p5fKS2pxns00D97Wv5ewr6o5soLsXx6h56QjOmBywzsOHzAo4yABaSnjpkx93pgdrADAcAQAOOepjxB0A1aFsBeEj0Xt2o4d65OvgB7RsA4G5ZMUeZWYJUTEd8cyHftyc3tTJehhXcM3wqUky5D+NmQ+bvN8wMEH4K6l0fL2HBlFwfUx42fyjvruWHVvhL14olaMFU8VTe+/eno03H/NG+enlM/7++8HUWTlGf9sm4TC+Pl2GKFp24VqdDdEjfRfktWtXf93i2Bnd2guu7Ss9CEdbnBram1hYIYX4V+WzKYZufOPIgkH4zmiz1my6Hsvw85D5W16ZsA5sXxiUMI7GEIdYb7FgXDMaXaqCO1HZYBkkCjXntilPWQfnqcgnKdH7lKeEk7EHU/oY6DK4p0pONO+dHrp2tzivwAJm6bY21Hdm86JxYSycfHB3y9fq+ga7qbGuky9Q5VvvV5zSheZ+3rv6beHPd85cM2bDN9XE7xtSFDZaTdbX/YkD/H6kLt7yr+hdcf34wM1qOevSbW5cb9UsaIOHE10rddOpadT0UXdN3/nlOvapKT63dAvdOTRnpcqfvRoVNLMs+XloZ2+EmwIZPycTh7/En+evhczPqT5TqT4bf5Itvw0mfkquOL+WLyeTymD7zd3vDyY333WBSnpVhPNDXDsbyWXMzGe4590jcM4qXhOPdU77rj2ysgnA1lxNqNry4x9c9bDgtjZG8dtNuyjKhATr8chPk9/g3k9c2bFOG6TJzr43unyizOr2FerH3Lu8j2kjoIJlGj8S1jL6+vGc2HYUeJRz6LtJslEduOBXpaVIHBb7+Ponq9LS2Rsot9V2Rr4myNfcvr9HhemXq6zcuB8lzz74Qwb3C+8RlF+giVZ+i+Md1IkrzPcD3fzC4eRrlLxF+l9BnWJb2c6xXPmJ9NinP8pyM3Ulg4uHbjFDPsQ7j8FPpyV7n1oMGefUQ4PiuGpF9DQi1Va+jlG4D25rQv38f+T3UtK4jVXGR6wodhvclRKvudyYP3HvF8avLp4KUbbF5EsTLy6OcjUh9F8YrkdepsO+zrbgvON1LRVJfDqG+m/QvUue0uK5eVymbQOjwynqXrYdFvZFwvHva75y6mYh71m41qdMPCE7jolBnM8Pfm5SRPcfrfxCxHYw1VxefgmQdk/Bgwws4Pi7ep2V2lKWFlBNcxREaNlfUgRFrdM9Gwo3vZdIXV4zGFeYBwPnSmLBhyzV0yfwWEo2QwVRuG1aoLYtnFHJhBfevLS/vfDEyruaYMK1yTf5w7qfP9dOSSkd1Psb1SBOGHd3Lz9eC3D0zcDzuk9lsTVgWoWb8up+r9y5e+WmCfI7KIbYvmiA+/r0zZaevMefE8WCapSedh3fHfWuqFUE51emqslzk+6SNC8IxtLCNRZzkXnRd7ih1ldCZjoe9h/m9ziam4xWGHdeDJnn1EOA8XTVqbYin5yY6SmgxIG3PjF7cMNK21td0dB99jgm70m5aXUrc/fpKBPXY5FPFUcQ1rh/hPZrV/3QehGkK615lmhPfLztcNktFoMsYXzehPgyBRhN1oM11Xj3wDkfjXt01ePfwbIiDl95MmxKGHaUnYyty93zAcF4tCsbm1B2+vasro6TtjMpbCHRRG5/C1sKGN4HzzGVFll7equsv9N/xTrBB8LrafCx/elRsilds4Liudn4heTlT92//OlPndO3OFn8aqwuedpi4p77u9FqVqwD7arPlRnvX/5wrtbepNuWzpfczyVd9VtfuFP5V5Ps1lUVf7f4UbFr/aFNv2D87T6Iy2/yRy/VMXXDey/2jct3aIYVQCV1PMTH66kLxornBz8Emoo921O6eUuf/+OtKyfClNexulK3jc67O/rLxMbrt/7JDSrWaTuRjKh2PN/U1jaE8+kz/PdkMyyidnodBW1sTUm0L1n/apTN4Y9splwp0Ra7s9KbURl+9V6S1P/aNJopp57K8TYAd657eq6olmKLPqK6m2qXYxlVzqy4+cnnuqp3gumR5VmzmX75spKd2jskWfLyg0A3jP8kK2nu0sont09M8r8CDppGORIv7G2TH0ktf0vZsXe3/4b9Ap/9jaPEcGthW78UqzjIyvdTF0qoP0kWft139r8yDBGgrgEuT/kWKNtf1s5v5O5ujow+9ouRt5iUv67e0KqOgjyIvnDsU+1osWdTbp4TAhs+LFXGUUYc2Yzy1c2NK7KDVrJkXgYUDZL3fiYhbjo19Oq8JX64p1BTSgQdZbq/ZNCV4tEmmqAMSlX19sww5e/+WmHD8zq7en8DTVH3nIE8wENUDhrBRl/2svHtu64FFPed546c78svGfGxNYQt0w8kb21LO6gGbKY87d5o1KTt3HxBq2E2n08TdADs2H3rqcEwdj+RbMPP67AzZk6K0Fab8p0V3ouwDiGAQYpnFJuYHE3eQV+DemKZt1YNsrlvU+vHDCnNOuS9LJ/asUbvo7E/G+xYdX+oBkTtA66oP4tKozztT/c8NltBWrDzicCgG57X9iwzTXpcFfWhQwYxlVO4Bxm2ROMN0GzQdsOHtWRFH2abazBhB7eGcFvEIH/1J3aTvF+rstK+G//HkVvFEYpbX3zednbK6uE4rD2lsZyYxm8DtmGbv3xKjT/cpA2nsW0pPdEz5ump3IKpnaxy/DF4lnH9S4T4lb01ns/sWiTnZGg8zQ8GWAQ+O2Gl2rzPMIm7V6AUN4JxZQ7FWYMfmxtah1kX8Fsy8PjtDBu3xMeUryt0n9noQMlAvPS11bxMNd5BX4N6Yum3VM7vke357Jilye8rNladl/IYH2U67nNB5V30QjwZ93s7rvwZtxcojDgczM6dJ/yLFtNdVgz40yDJLGV2d6FnC5eqgWfwGAmx4a1bEUSYFFL7haGYPp7yJhcId8fRFb7pivGTEoj3EM76VxFvm56CNdOslJkuINk7udGihsycwsdfcTCsVDeTuL0s8omm4Kb6P1FuePTF6boxjNMXbUr6BZCq2nutXb5/9NdKzNdzlJ/7TBwd5KjfT20ooj7grrw22izbelO6W03oXg3nZmjxmqR3Zmo6n2VfOSEgu3yEKXchsnHApgZStBXZsfhRLML0ngXl9min38UzZ5sTT+i3mrUrTOhN66vmIrCm1pSM9CHGefs7LJmrmmVfgXumqbX20r96TNk1/IL8kt1Wfr9a2SlsS6U+2+7B00QeJqOrzzqv+G9BWrDK3avSOynlvqJ7rJWLN+hcx015XA/rQIMcMZZSa9cwYmzctsOGtmTgs9VsvE5vPmXP8zebabyon4dLRz2zW5214F25YmdgIkmIWbeyo4+Vt9Cj3db+TsKN4PFACeVaT2LwyqwE6os0RmdzGiXKdDTulG/ude63RUuL+jfSWKF8ifx8njFBjDSjSlN1o0U1HqM/EBpFMGI9E/sbpkbBa1EG+/j4xaejA1jSwBfG9iCCfzTlu/vn6zZeDE661XRXh2jRFZafjmipH+x0dRd4kdL4Adozv/2Coqu/ym/e7LduEPnNlrUneJ9BWqjzlfuU5vqYbkdCjJdZhXLeS6bFxdfJBX5eIe1VePQQ4vqtGZF8LEhol6nUU6yXWciJsr96Y3yPbps8p7W8cF/8+Jl5+O2C+8+8dnxfHL59POSSMVDpS6Y/qfzoPTJrDPHDjlQhb8jaOx/LD6V4qku2LIdZxu/5FqY+G10WarcfW2VRdysa/0LJ89mwLEeVJXHeytqJVnV58OI2LQp3NDH9vUkaxvSNS9k2+c/UEG94tHB8X79NyO8qYUhz6oMIassCcQjOCqz7CAo2NoEtwz/A8LZLw2tCIEkXlSFW2TNgPHE5TYzINmzVQ9hiMzHmpxtiGEf/mGwVb+Yde2Om8D++f1k76yBoORwv6cHXChL+njvAaSXvUUAthOpKDhdpG3tFrRttx2PXwNffJbLbGaUR0PtTbgqgs6PA0a8uSDqMhX7+5cvC1SPEK6oPVvVc6lWUX2icTVpTu6Lz7t2McjwdDVM98bLn6v4ftkl+uVWWdCse3VelyL4l/Tx3pa4I4WUIduvaFSKZH4u5p1gmnvH91Xj0EON6rxlza1kgLqXOq7FmqvhD6voHdC+MStIth+jjMVFsUthfhvavyyR7pa3J2uq7+p/MginvUjjFVebtacPqXilDv7hHVMSatM6PN0kaX+rbfNbjO0V7+CNqBO+lDp9JD1NiKZYDTtSiEGgtJ/l5TRuk+ChFex3VBtGbtYqmJ/AEb3hyOl8sa/0Nfaj5dXaqnW9vyCYD7hTcQdOS5MPAU1I39J+qyi/XiYGYWVSfg4QJNgWUCegZguUCdBqsE9A7uilBrK7JHGQAAAAAAAAAAAAAA1cBRBgAAAAAAAAAAAAAAAUcZAC1Zf3amOnlNLwAAAAAAAAAAABYKOMoAAAAAAAAAAAAAACDgKAMAAAAAAAAAAAAAgFj7e/zJe43Ev3tP5S8AAAAAAAAAAAAAAJabr1+/yl9KrU2cd2B+urpUT7e25RMA9wteBwyaAJ2AroGmwDIBPQOwXKBOg1UCegd3Rag1LL0EAAAAAAAAAAAAAICAowwAAAAAAAAAAAAAAAKOMgAAAAAAAAAAAAAACDjKAAAAAAAAAAAAAAAg4CgDAAAAAAAAAAAAAICAowwAAAAAAAAAAAAAAAKOsjkxfrOm1t6M5RMAs6H1tOYc0BaYhu8jtbu2q0bf5TOoR+dZUP/Co019vDrpsP7eqtGvD6k8Ob5h/p2ou7VmEodfR/QXM1YnFI/dD+ZTPW3P75bbD7v3kGdtMPnjlXGR1yHuubvq/3nfMm1clx6SPRNbcnIln+8anV9OudBx9zqWMrc2sG0Z3muZi+1A/+uOMFpJ15fAzuRsjK5zrk0J26CUvWlyDmPOK+IX9RUyOg3qYaoONurzh/fL2lnwMKnQ/7Rl3/A6X38PqY/ZPXCUzQHuyG6/lg8AzIRpiLdfD9TlZKIm+rhUg9fbaBRBS6jR/eFAncsn0I7+6EbqX+J41ZOz6qD6/O5I/u6Aq9/Vwan8vejowcGGOnh86eXd5fGR2qbO2L05D1RPHVI8zp6ty+c62p7fLevPzijfDikWi4dx4m2rz0FduXx8oDYSZXz74a06UrZtO1P/928t07Z1qK/bfySfQQYZ+Pc+q+G3slwm34ZK7W/cb1+ibRnea5mvq/0/KN8a23swPazZbbIPCfRgn347LtsSY2MSDq3v1+r8eEdsCofpt0Gm/XGvY+cEnaOG6kbOuRl9pnNSzoJrdX06UDtb9Ce3b9S/Uo7tuxkpdfBDYPf4PLceSh0snWUN+/ycB979bijGmTwAD5Aa/U9T9g2vYyfZ9hdX/6zjFXaWUSYU/D3+JH+B6biZDPfUhLNVH8dk5sDUBPJcTb4NJ33Kh8FYPlvGA8qf/oQa25UHOmmA1ou1TdBNHZ6mpA72R9RtmBlpI7pqGx6KHajJw8tj1uVgcjctppTB3pD+Wg3uxEaKjcmV8c2oH2lVl/sKlUO2PZ8zlfWrU/vWhMvJgO6H/vFs3Emdvi9Ek6a/EteXtJ6NrkId87n2+pQNCq9Ln5Npt9nmyXdpWxZel9a+uaekJ2cjgrY+eb97si93wVLrPaSJ/qco+0bXSTvuh9Nxv3XBCbWGGWWdIU8qTvkpwI0iUQEwO4/21RnV20N+YhVxrq5XeDosaIh+gnlkZkSNqZsG5kq0ZKJ4CixPqnkGGD8dtk+o9UyrEzXSs3HMNSdX5qlytNxCn2ueUOvZO1SubAf4qbU5t/46Rl9L8RoVcS2fFkbxD59ShlP36aibDTb+L89kHKiXmVlYvZ8vqd18rjZdeyZxLo5g1kuxBDGIT7yMJVii8+ZCvreY3/3rJB+L69ynqU3OD/OkvMbP3/gJsEmXe47/JLdIt3yepjzmwfhP0uLeUL3PlPH6s5ekANLqfznmJj/0zPtTM9uMNRuljQl14Gpb/2bzp9S+n4d+/mkSeRbrJiQu46ie1epAuA7uH4Sj45+pn5E+ojgEUFrfUj73R8/TM/Ue7aiX4xv1/if5rOlOz2Fe7364lh8ErwyFxmVuMfEpr0mFx98F5yXyrtr+lRorCOMaxQ20gvXCM995tti3oaJBfMCtuv5C/xWzxCw9tXNMreHHCzrDMlYXr2XGF3H9zznZqF21481G9K9Ln7Oudn6hmLy+8PTNNm/ws4lF79VETf7YpzMTfLk2cfp+rT7Tf/Yay/pPu5TOI3XBdaxhn7/yfuDhUqv/pmUvts6xVU2uu73WCi3qjCGt/1UBjrLOkCnZC7okAiwXxpj11SaWnIA69FKV+1sqtkrwIMtfMiFT23VnhZfsyUMUvWTEXT50pA4+7hZT3dOdZB+9BE87PvtmGUfb5UCnBxQzuwTFxEXH35lyr+O/d6S2rZNKOnHu8hKOw1GvanAoA5u9TbVpvojZ6lHurKt1yQ/tDOjRIGTsxCO5tIDi9kKp9xKXm1Ffne9vlIN6PUgPluhQONXLVbmDGS69qVp6EJ9v8iR2vnDcLn6Wc3g5DcffcQByujf2nzj64aVB7AhNOCCYqcpjHvCAlP57vFnRCTcDUtPZNstXL/nznuRbQr+xDmQJUsLBUUC//6bey/ms3yD/JM+eFGHSQXnm6SaCHSRBGUtcyjJuroOjfff+mTRl6ufGvnKWTzbID156Rv892cyVzLrqbXHds793p2ftRPL0eaN2Px7QWXlal3mijieXvOkHChdqR87hNLFW3DTV2r8QTp8XV3vvTH0F9YijaOrlrafXqnDFXl2QLspll7odytko97osn52H074TLg0vzaT/7D11Xcz32z9fJ1Wmqe/zU71lBwvZ0+cN+g9gQZlK/6myN21sdTjxdcZRnOurufpfHeAoA+ChQR3D3/bJmB2/vKd9OgBYPXhQ6M8csId1SqSedDff02bw4q6fDvfV8D9OvMiu8MwTPx4U/xc0oDw9UxecRuno7/7kxLR2z6BgsFDLWP1O9o1nQJYOQ4rHO366eqTeeoN1SsO7Mr5m1lI54LAz2S6d/O+9EmdlhmLfLOfJ6/qz99rhcvZXPJBJnc95wk6g8/3fKTUONJgv09RTz0d9Z4Bm0+3P/On9x6RbzzYImao85oDMlOj/mHWFTkFKB9T51w6Oiifb3qw20a/TwdeaCAeTW8+1Jo7+zIVqNNz/ZacsYxmI2AcQbXSQTtPbwLmZrp/90XunbO2121knX9uHat3p+dbsxxiWxx/sUMvRvsxted44ddzUVyrPd76DazB2HmRLmZ//I+6RJvYvIDX7YpH3EFwO1tXmY/rPztIqkPbXgcuniU3a/LGct6P/TjjNtAPBhW1e1cMfYvyG95gK6nGKR5vqifyZpLLPb2d/yr2c9hAsO9OWffvr1jcrFbrUwFEGwINCngBwR7bVEwcAwCzopav8hC46rFPCTk93llU25j5mhz7x7+kt+bAdKTr08k5ha4csj7vUcw6I0yWaAfNoR+26A1tNkAaP3BIdGWhlSD9R5QF+elZm7gls72d2B/hPYKsHbb7jpVgCpu19hrsoj/sipwPtCKxwRNQ4ZL3lJ8WyuY2aWYayPEs7y9OzhdroIE6TKUffEetr+/avMzojcIoy+trSOTwr3ek55VxkKOyco7p1medmCYkt9hweNTa2if0LsEvm+GUk4Ww7MD/0wwNesu3YvPGbsA7fqouPKq4vNZiHLfFM3/AFbVwfVaTtEnuN79iehro+v2mbdF9k/ES3BdDiqjBt2UMzbYCjDIAHAzWY+gkANZh4YgnAwqFnE+h9JcR5oQfhd70MbnoK54x2HLCd4Y4UD5Atxpmjl8xph6CcX+mkkYFxNAMgAw2Ws46hhhhnmhmop3BnEPjEsxKqaXt+itL5oJedSZ5uv+6bJXaZfUoM05THHJAZEb4Tc0Y60EGJs5/nd16qJ/nUk70b9RI7+T2DdrDpumAcIyavrdOsjQ5mcYq7dsUe3CfIY2YCNN3PtEM9i9MrpsJR3brM83W8MY5dqrd/Adq5ZrTjzjjGoHPOcL6zXXRsHi8B5qX3Bd8v1JkK9xpL488WY5t6qQZ270Q69FJuTwfVTji24xsyM7LRlhfZutKyz5+b+QmWn2nLvuF1ZvbsagJHGQAPAd25h5MMgIXH7jGhD15mxIPbB+AsuzrRT8DL/XbydkY7DSSNenDCA5ascyY1uyNAnBd6gPlos8Ix1Ib8zBV/YDQL1bPTWiHLa8qZi82XT7Yrj3kg+49VOkNlH7Noht9dcqtGL2SpnuRXq70b9cwmyWvtwGSnGTvL2uhglpfwiPMmcWTT0WDGmXEQtU1HDdnlZF044ywVs9Pa0sL++TizM+gwg84NOMvmjdfOmpmA2q6LfYlnfIm2czbKm0VpHkDYsLluaUeB3eS/wgnHdSnrJNNtW77+ezMp0ecH90Bu6bGhagb/8gJHGQCLDjeYsuHiDRpMAB4Q1OHWT6JnGRyXTPtUr8l15px4tot+m2EFdj+gKieJXaLk7y9WYvYSk2VlMsCO9oviwQkv5Wq8D5YMjKK9jaoG6nmnnnYmJDb1Nh3LeA8jk28tOpYymyZcdmaW3DWnSXnMA7sc6rdMGZu9rxrs12PJOXjEqZrfeL8KmYEULtUTbbWCBurv9QwWM4OqjQ6iNPGm41b/Gbw347nU5oddNpqZMUDX895c1sHQmZ7FieW/hZCpmAXWuszzdfziI9WaxBLSHNPav5DeK7MHW6ezK4FH2hYbR7xpH9IzvtJOALlOnGpmVm+4vFr0JHYjt+yS42WdrUnHtbRtob6NjXf2uqvt88vS4OhhiLRtLXQPHhrTln2z68wMZH+JPZ+j9X+vD7nukYnD3+NP8heYjZsJdVQn6vhSPoNpCOS5olxOqNM1UXtDUhVIAZ20YDyg/OpPht/kM0jiaerbcELd60l/VFcDxe4HdfXymL5TA6rJzmf3nEyZ3Iz6/vcSD44bdcS974rPRJPrzDllnDQ6HkE65bsiPPns3q9x/tiwgnbR5I9/vYmfex/JWyfOyTRYe1ncI/xchl2WgTmnvH/C5nrpbn5+eE6YR15Z2XJy86eu7BqWB59zF9i8DdNpy9iLJxHWhbBMbXiRDuw1Ov1W65l+l5dHsY7K7xLXFkgZe78HcbHnVOmgKM9E/Yw0Gmrb5qNzbRSHHDaN7rVEER/3Xh3pmUlo0WqhSK9XhjaMpmVOZPPPCSO8RpMKN0iTfFdeK9fIvaL0MnJNqPWu4XssPVK2UV5G34f1gPUZ15+Uto0eY/3Hmi3P4c9hnGLdponOi+pIov6lSOjM1q26ODxEVkLvITn9T1v2ja6zbUWp96SdW2JCrXmf4CjrCr8xBdMRinUVsY1q7gg7qqsI5wNoiG4oV6fBmxZPU3YgVnnYToXtZKR+E6SzwofunFSUie3EFOHkBgj8e9T5z19n7EoQL8aJWxFm2JEPz3F/q0UGAd6RiAcT3idoT9NpkPC9c4N7UpqGnD9FfsUDo7gc3fJpez6TusamwTk30hqnz09TlO4G5cHf3R1BfvORGfRpnTq/Jcu0Sgf6N5t/mX6XXJ+sM3Lwb6bOZLSoaZKuGh3Yejjyyzmti3RczG/OPcL0VhBdS0d4b0NHemZCTR9T/XPLyStDoXGZW8KySWkovEbS6JZheF/+zbN/scZSeVpqbX7wfZYeW19S+RnpKtBItl6E2k7Vs0BPXj3n38JrErbBO1J6LH9361FKT+7h1bkwDzI2Yxng9K0cbfSf02RYDxpqxu9DhrZzueE0u6zxP/Sl5tPVpXq6tS2fALhfeBNNR54AJIFOQNdAU2CZgJ4BWC5Qp8EqAb2DuyLUGvYoAwAAAAAAAAAAAACAgKMMAAAAAAAAAAAAAAACjjIAAAAAAAAAAAAAAAg4ygAAAAAAAAAAAAAAIOAoAwAAAAAAAAAAAACAWPt7/Ml7jcS/e0/lLwAAAAAAAAAAAAAAlpuvX7/KX0qtTZx3YH66ulRPt7blEwD3C14HDJoAnYCugabAMgE9A7BcoE6DVQJ6B3dFqDUsvQQAAAAAAAAAAAAAgICjDAAAAAAAAAAAAAAAAo4yAAAAAAAAAAAAAAAIOMoAAAAAAAAAAAAAACDgKAMAAAAAAAAAAAAAgICjDAAAAAAAAAAAAAAAAo6yLrk60a8VLY8TNZafAOgMrbNdNfounwFoyveR2oV2puRWjX517Xtw/DqiM7ph/GZNnVzJhxaE191+2KW4rXI7JGXWYdkYxuqEy/wNWvjpSdWnnFb9c0/+35Zt4L23mdBhicS5tjymSJtu3+psp5RFEa65z+6HbksGzEJsG1Llw+2de05WK1z/U3Wvrj9U97sXbrM4W41WxrnRWNLWo6pzwMPGlHF9X7CNDQt1mtaNX7fus+28f+Ao6wg9IOkdqcF4oiYTc1weH6ntFRcY6BoyiKQzANpD2vnhQJ3LJzAle0N1Iza+PC7V4PRAbXTRWaWO9NvX8ncbEtetPzujuB2qnnwGYCHQA8ENdfD40qtHN6PP1GdKdPivflcHp301/GbOO/y/Dun/M7X/SH6vY6vl+WD+7Cl19kPOXvLAb1vNp6ezrvb/IB29glVcTLjsyTYop539NlRqf8NxKpnB/vbrgbq053Ab/Ho76RC7vf6s+r/sUMm71PWH6vtLZbhN4kywk4zCfFKMEyXOzjnNxpJSP45L+4nx5rLBGm9mA8dvmtpKDtNvd41ufDvMTrLtL6WWb0ZKHfywutqCo6wTbtXFRzKnZLQOt+QroveKjCCZ2bO/mnh5AainuUEEwEEPTKGd+dFTh+MB/X+kLqaYCQbAysCDRX7Yw4O8wFmhHbtUj85pgOnNjKQBqVJP1CYcXcvD4121u5exl1cX6uh4QP1nsHJw2au+Gr7bLx1bj/bV+1FfqdcXZkD//UKdnSo1GLsPgaQNPj1TF96AnsdnSu3+5LjJ6vpDjfpLTrhN4sxOihcH6nxvqJ4X40SJ8+u34oRoNpa8/fCW7jdQl479xHhzidCzDjfUAWm8FtLqdsMHq7cffjMPnP4T6uZIvbUPpyS8wYtSy+vP3qvh3rk6+K/rTlsd4CjrhOonVOf/XMtfAMyANmDUOOoBOQAN4U4fDUz7oxs9CAVz4tEmdZWV+nzNHQ5+4rumTj44yyyKp8bmt+S0di4reYp91KPfvKfj7a/zll7qzhdP4w/CSSz9MNc55ySfVMfh6On6wRP9KCzvfiaM3Q9jfzmAhOFP/28yWy+M04V871MdpxngcnDDTcxusOVgzynS7sUhXB6RWH4R3uuBzCa4/euMdOoP8jy2nlOnnHT8jvPO5MPGvla2nm2m81SnPUxvWD8cvQTnF/UiKouwtMIw6WikFeiwnk2180tfHf0Zp3n852cazO3IJ5cG8WGu/bQl01SZ1w3vA7qncvbnZ3XN2nq0r84mE8+ZVHJuzrGwU03tqh0bHuu1qj9U97vFDbdJnNW1uj5V8cy2rR3HwdVsLImZ4ksM22Xuy/GDpG9D3afMQ+2Mnn3Izq4QaYMcO3f9D7Wje05d0PTUzjFp6+OFbiPMQ6mB2vHq1rq21aXTd7WAo2yefL8mE0mG8cdN8xmAaWHjqQ0iGkfQEt2Jm6izZ173DHQN2Xsezj/ZLPP5aJ+60rJcTHd+9eB021syYaa1y0CMy0o6R3rpxR/yVG/a6xIc9bapD2XCyC392Nh/4ixp4en553Qvx/GQiM+l2o6ebLKja2NfFUvmUvdjzve31fULOYfToZexrqm3P9JgRV93o4Z7R2o7NeC3JON0ED2VbRqntminh7bRNlyKM93fW47LgzDqBCsehMk5ux+3gzhyBzdYxkMDNnaAFo4cGcy5y3OMHpo4E+8TmTGxt6nyvSLplOuZIWbgeMMzM9i5xmlNaTtV9oklJT70+wul3hf51w9msnE5bKvPRVnRwdokrVTuBQMdNtbh+uaTxOBrrC6+hIM5pkF8hKP96uVt1eTvA2fZ/aEH+TWzSs0gv++dw4555Tqn6vpDDftLUbgJvDjLeNDtH7hUTqioHUuyY5dsDtnIl+jnPWzECVy/NFzKnNqZtMO4pw69cG7V9Rf67/FmWrOn14oVaJxpufbZOn1XDDIIBX+PP8lfYHZuJsM9NaHO3YQ6d2AKAnmuMKKlY1HSeEB5059QBxsQ0EkLoJ1GpDUl9XBvSH+FXE4GdE35m3y2dVa4PE5dH4T7bTjp07U0+CyY9joa/FNapA2S3/sjPxRfEybe0TlB2Do+UdsW5EHl/WxYqXxK57OXlgTpOKXzqDpOTQjjXZ1v5vuMfuQcG1YunW766vIiZHFsZKq8Y0z6SjsVpTewY+n6Ye6lyzQ4Pwzf4JdhZTlE9yqBDutw4+yUkYXywMTTT1uT+FTnqy1vSX8mz9LaCO6zACxOnb4DpF5E5eoS6NfC5ZatT4FdiKj4vTJcJoyzxC++JtRjiPye0Z7RpTma242Hx0rp3ZLVTGgPM3bfI68zNyytp1T7VldXlohQa5hRNifGb8z6YswAArNi1pVXLFUBANwdMtvJXZaj9zPhGSTBbBf/CXDuiZ6dQWOe6MVMe12a6Im2XjJql36Yp5D2aXqx9FGWdRokPsc7Qdu2qTb35E/CLLHr+3vDMHqpiV2iaph91nUuTutq87H8SbSJUytyswUe7ahdyhMzWyCz9Iby/4n8yeSe6PZ+1jHUT3TXf9qlVJiliJWzm1aCXP0wWk4/bWeqZ6d4y5v0LDFTF6r3g4EO22GW/ZTLL2/V6N3nOF+IJvGxROn3lrdVYWc8xjPaUvcBdwDXvd4RlclQvc/OlhrLxvthP3msLl6Hy8i6oCbcRnFuRt1YsvdKZj1+G6rPvO3CjDNSwQOA9PXbPqkd/oU7AY6yOcCDC70Z3riqkwZAA2AQAVgskm+9pKPWkW0GqO2Z9roU/rIUTTBAdvdN2n4tbxqUZZ2GXHx8Z4CBl2yKs604eIlI1+TzaPPHMuaGOcRJlt1WIk6MGNfBKI6WOvTyDF6OSqnhN6tJOhbfaSZp/XJNKe2KLuuHdSYxvARP9GH3jKF6fnksPyeBDvloo0PtgHI3aXf3kypoGB9Nwsa1JfUwhB0f4G5hhxPXPW5zs9sJcD3lesNLs4N+sn4pROi07oCqcBvF2SVvM1qNJYuXB9gXA4Dl5Na8FCK75LI9ZolwNWZZ82oCR1mnmA1A4SQDXWGePPO+QmGHTTrZeHoEwAPBHYi2YdrrUgQbHTPuwFkc8/1i76LUBsW5+KQGs7KvVOLods+8fB7FncC2cTIOk8rBv7zIoZLAIVniDpRSzsYcsvGzxJ0dOOysWGxnWZNZkPlZPXeJecO0o5VGM7qhw9Y61LO9zNsv8/s+tYlPwsa1xdlfzj9yG7aDzpF99CodTuyUyjnJiPGf9MvPnbvJ8uFWxVnqXW62aDj7HGNJkETe+Kp430U7JpQHLOZhRW5/SLGhuYdUMltXP9DJts+r+eZpOMo6gw0bT5E1T+Bh2EAXmOUfQWdNv4lHZnpgOSYADwTpqESbV9dtcD7tdWmijrqehSLLwGRGSrh0yTrsDbn4+E/G7bIsHgB76MFN1xtj5/PIdd5NFyfj/EhttlwMbmQQFL3BTzq15jwJR94uVRDM8DEdVd7IXr4QeHBW1VE1r3lPx3ORWH/2UjtGtnMPea5+N0uNnNfTV2OW78UDADPYnO5hkugmqlu85Er+TAIdttehXX45InumkssumTbxiWwczwCyNq6S/NvdzEzbRX9ZxpIgL4nQDssqJ5l1SiXfAHnHyy5r45ypv5E268eSekuExIttjDN+NZ0ZK4Pd7N87jM01Dzjzq4/STjDTptml+PoFK9QS+A8bpK85j9mZDwHK5AJs5j89ZkPF1djo7q4I5AksK7SpYhOgkxZAO41IayqzCXaSzOaqiQ2HzUaq7oatiWunvM7b8NWG4ZZ/GG7iPuV1zr0S55k2MPWdq7cwD1P5lM5nf/PaFCasVB65YdXHKcaEU14TfmbsvcrykHDdOIcbPBfnuN9JOtz4BNel7m/PKe9fwt8vFBJXT2eEzUNfD/b7MB+d9Cf06OVRcH4UnsbXT6pPV2i8QithOIxN16rr0BDnj73GT3t4Xn18SlvlxCnShqQ1CLcy3RJGec79w+leShJ1OSZRRiEcTtXvjNZPoF+X1O+pcBvFmQj1GmmcvknYnYiEHm29XySNdsnS6r0KKee8LbWENixHXG+M3ty2MG4vknZ+iQm15n2Co2xKrJHMHXXGGiThvAMJ6hr3FQM6aQG004i0puoHsiVVHRfprBRHOGC3nZfwt/bXmQ6OnGc7XSO/vYriGLVnfL3c2xsIBPGh3/T9g8GC7cC755Wk8imdz15asgRxojCGHKdkWM55QZxTlHnLR6YOyUCoMtwgf/ujS53eZB4U58X3i9JAR65Dzb8tHmEa+UiXb1T2STtWUT+C89NaijXul7kpI3NtnQ2FDvPE+Wzj4t87cV5dfBrZOAmjCNfcpzrdTQardwvHaRkJ61x4cDmkNOcetp76ZZqgrj+U+D0VbpM4F4Tta6IeuNd6h2c/AhtTlY4lgNO4clh7Vmt7UjYsZT+Z0Lal29xG7cySEmptjf+hLzWfri7V061t+QTA/cJrrx15ApAEOgFds5SakqUqT+a254lZMnL2y03H+48tO2YzajXHvWhgI0E989ch6A7UabBKQO/grgi1hj3KAAAAANAYvUdKsF/P7Yff9L4q9fsArSqyZ1awt4zdNL77vXQASAEdAgAAAE2AowwAAAAAjem9ulHDvSO1vcYOM3Ns7D9Rl3grXAX8dsBLNTg9UBtOvm1/yW1GDcA8gA4BAACAJmDpJVhYuPOGqbagDugEdA00BZYJ6BmA5QJ1GqwS0Du4K0KtYUYZAAAAAAAAAAAAAAAEHGUAAAAAAAAAAAAAABBrf48/eXMZ/917Kn8BAAAAAAAAAAAAALDcfP36Vf5S2KMMLC5Ykw6aAJ2AroGmwDIBPQOwXKBOg1UCegd3Rag1LL0EAAAAAAAAAAAAAICAowwAAAAAAAAAAAAAAAKOMgAAAAAAAAAAAAAACDjKAAAAAAAAAAAAAAAg4CgDAAAAAAAAAAAAAICAowwAAAAAAAAAAAAAAAKOsi75PlK7a2v61aL6+HWkbuUnALphrE5IWydX8hGANmgbtatG3+UzmB9XJ2VbkDrejOVEMH5D+dG2vazL33ttf2/V6Nfqenb7YZfieUIWfVXhPEqUmz2mKL955Snrc7HbXNMv2P1wl4qvKT867jXP2D5U2tj7yDPQiHAslSxHU36l3jL1Xofl/hbqNr7O2BH3HHPEWjFhFToP453rawVtV0qDuk10zqnvL0DPS8M0+m/aXkb9pnS98fW32mMGOMq6goX9w4FSoxs1mUzouFFDdaA25tBpA6sKN8rb6kg+AdAOaljJRp3LJ3A3DMbcHiSOVz05A8xCMn+/DVX/lNrf+3JGXv2uDk7l7wzrz84orodq5VWwN1Q3YflNLtWAy28R+k/Ut3v7Wv4GMcnym6jLY6WOevc1wKK+0ru6nlJPHVI8z56ty2ewEMhY6klh18kWvN4OnAXsJKC+8PGlo7cjtZ2yF9+v1fnxjthZ7kNvqIPH1ddd/0O9pISuY61cq+vTgdrZoj/ZAeGNASfqZqTUwQ+Bw5jP631Ww28SLrVVan/DcXAZ59v264G6lHCKPKhwhozfYGywFDTRv3akBfp/XN9eagdw78jrMxn9+3aanWTbX0r9Gx2vrrMMjrKOGP+XBqBkWN8XhnRd7b+jzjqZrgvM/gGzog0jNfA1gy8AkuinSOhIgRXh0b56P+or9frtSj8Jfbj01OF4QP+j//RQ6b2iAZ46Vwf/rRq6AeByq0YvzFjqOTufNGILHFt+++EtWYa+Gv6nfMzQ+48Zb70NZlSN/zxSg5/FTfbhN+pDB9dpnbrX3arrL0r1f9mhUVwNVxfqSJxwfB92rpVjQH4Y8l4N98iK/WnrwFid9Oi845dq/5F8JW3V+f7vxsnx/UKdUT9/MHYfokgenJ6pi1R7Rv27bTjzl4Bm+tf+BlLtpfOwNdZxyK26+HhO2rtUh0XY9rpzdfaXXCdaGrzYL/RvdLy6thyOso7ovZqoyR+lsADoDHnCcM5PD3imhHwNQCP0E0zqVvKTTj34BAuFdmKeqJGz3MM+gY6XgMRP/vgp89g7T87R4drvUsuggqn7bthyrXeNdtbTed6TffP0u/xOPjvh+vc19zz5IGHxkZz1VcYtjncbztW1N7CoSHNBeA4diTiGZWNnBNintnxvnk2QTp+93nkCbPPXOWZL+wPn0aZu6z5flx3/aDlSzRN0JqpDYXlU5TvXA5mFe9Sj3/SMDqPxXdJwoZNipkcz7YRE6UrMHKlNh+bCv38Qjg6DvhsV94vrfO7aqflyHcfBvU+DupWup6GtsedwGchDRZ6JkbyWMWXlLVUL8yB7LZgPPEMr4aTa2vEH840Zq4vXMuOLMDPFdtWOdVJpemrnmKz1xwvRqYnDk8360ZzrhKscA9o68P1afab/7DWW9Z92y0kVj/bV2WTiOTNKwvaMIR3rWULs8AAPmyb6N45cVcyStIQ6lraosK/rav8P0mhmJcP5P9f6/9trrdCizhjW1c4v/ODxgkJdPeAomxskUu5geZ5hAKZAGk4s1QJTsXWop09jickic6QOPu4WU925k8yDxY39J87yC54mz86XwDlweqC2/3kp59yYJ3/soHm36Uydp264uwxKOwf8qfve9HrdMfOdFLd/nWmHgTfwtU+/dcdfBqjKWbIyHmgHQ7hvytH+mdq1S08iu8bh8OxHs/QkPWCoRw+KaPixaQdFdWnWmHt/dpbP6IcTNOB208COjY19lVw+o5dUaod03/zexG5z3IJlOybvVnigzkum6D87YA2XgxitH6ntCodOVE7hMpa6fGfbKQ+n9HIVZyB8vk/X2SUs+vtm2gnR6fKWWcm2HY4DKZuOIO0cp/L+Ek6YP2QvDpStA2d6Zot2THlLcjLXtkGcAurxZpFnteVBNLN7sa0p6zIvqWRt0Gm6rps01sJOMi8PbJj1zljQEaKZnJPKDubXn73UjgN3houZZdNXuz851zozvkhZxsHg6NHj9Frp0PkaCufzO9dhmnpo4Tvh0hjHR3FPbdOcNinAbW9DjAMjvJadxaZNm7adBAtEQ/1XYnXMM9HYjtX1P+Se/R839UfjTN5U5lPI54SjdgWgxqDg7/En+QtMz82EGugJZy1Jb0IdAjAlgTwB8204oU77hDpzQIBOWjAewC41oBNN6by2bUFwHNMw0CLn+XX6cjKg7/ojGga6BPX/8pjDG9DZJTejPn0XlHGD64q2a29If8k58jfDn/vHAwqnDNvcy4Tj/u3i38uky0s/Ud5Lfk+EE5HMN8HmvXOfJmmuTIPNi4wN1tfacxrUM+9eDc6fBc6LxcPPex/RQU2eh/nm5alcE9UhVzdN8j26dzrejbQTIWEF9cGjMu32+3S9Cq81cQzTW31tlH8FVeUnv7n3alIeEpc6u5fOa3NPc22DfA3ulSu/RWUx6/SM5LSeKU9j0+VI6JDLtNRSXhNu2Zu/gziIRj1dclyz9dpg4ufUgay9yejeIvkSxt3XbE0YD5yl1HtIQ/2n2xQ5p5UNi6/JtldN2solIdQaZpR1jkxvpLyejJ8ofrJf9TQRAADA8kKdHtMeuEf0lC98UmyeBtpZgDwTQz/ZlmVgHtmnfzn4STj9F03dl+n18kSy9zN1u4s9Ucw1T37eUU8oBvapon76KOHknkTqcIInkfbppc+1+l2/rIRnYjXf5F4viXOe/OvDLjUu8rlZmr0N9p0led7+L5lZAfraabdfkKUVVUs1lxa9ab9TdvqQmX82P73lSM6SO73ENY2ZARnMMGHc2ZKz5HswM6WRdiLskpaKJYK5WSiJWZ9RvXq0o3a9PZKYJ35YegYN2algOZi9tnYWQ7L8eOkjz5IrZ3M1Kg/KvSZ2L21rTN972pnTdvnbNt0PffYFR5bIvv2xnL1588uZ1mE584v3ZFKx3mow9TiYybx1qC55WZvdR4xgPauKfcx4ZiTX/f7ofbMZjVnG8hImf08qtjG/7dO33l5mYBXQ+/Gx3fVmHbffw9peAw1VA0fZPEkYVwAAAKAOd5+e7deyjK/LPQr14NwObM2xQR3vAnEiaAeXnp7Py0zMPhhm4G2cT2aALctaZuH0SB3pjt65OnjRfMmX54i0+RNsqlxQl2YelNjfeHAiyzS5HbeYJTBdYxwE+j5uHFfBaUZldWPLzz0CZ3LhNCmcMHRO7Z6L4gSz+akPdsZausz3eu2k0ANzrVs3rqXTrI3emuyrlCN2ODcceAXlZ9ObHnzVlUcTu9eBrUmhnbFmyeb5/kYRBzjNFgFZwqi5NW80DWw81yPW3tE7aTt4WwC1G+xHlsYs069m80dWoH3gU+2EM8uHz/XDmkaOW1n+FmOWc5ttCNz6RHnAm75jyeWK4OqfYFsly/qtnbr4mZeKN+8dcnuqN+2n/lMTDc2n3/MwgKMMAAAAWCTkabGeFaUHoA332WlBGXZ42A75ptqU2Sh6NojM4NADBt6nTM9EsXu0rKvNx/z/DNgBNzs/Tg/Ub9MMUG0Hkp+2JvZXqkuzecW+s19U3f4eHaM3hJZ7604vd4RXbYZZiit5E1fhFG36BNwpy+BwB7Bd5PtM2rH7kOrDvIXM7p23vvlETqqnao+jasQhVcTBOVrWAc5L7bDopfZ1qimPO7B71TgrQujgdLDTDM6yO+LRpmK153TszZhM7DWm2yaZHRzP+JI2Kni5REGbmdkVTjizD1/GSaZfUJLakN/gObr1rNSUk4yQvUH9Bz/G4WycvNhX70HSRv9em2GcXe4M/zxmRnbOSebWoZhgNvKKAEdZJ8hSgKhjJU++Wi+NAQAAsLLo5VbxDBGzfGlWwrcjlehZO4WDSZaFfblQv3+kjr8MOvQSpdMz9Rs/1Xc6ZaaDFb++Xr82v00Ha9aZ2NSB5Nft6yVhRZvcJM259lqWbQpmiVZisKOXA2WWz02BeSU7/ZEb2K0Q6Y2srbbSeG+Sc5Flkbk3ik6X782004yeOtQz5URjMriO3vgnSyZdGxEtk/RetpFBZo7GbxQ0M+SmcRL1Xpk38Lkvo2hUHo3snr9c2sW3X7Nj09FoE23QAVR/Ust9ZYN9bwZXon6WS3LTM77STgBTR237pjWUcDSZsI1zLLfskq+1DojkTLKMI8To23kxANcJnpWqHx4lHgoEThJzGK0aJ3PTBwlgsWim/7SdEx0nt7WwsK+CZwqbByOpmWTmwUy4aT/XJ9J/rRNuSaEKVoDN/GfA25DUQJ396DvQnECegMlu9ri6QCctWKENOWehE00l2oQkqTJJbd5rv3PC1G1MsPGq2eA3HV4Rl1T4qfgm7kl3NZt/h+fa7934SJjUeZcv0hsOR+lIxS+kMn/tJrXt0mzabD/vbDvuxi8+T9Juww7zO4G3EXNF3od5NQ0c9uIhZZTaODgk0hEh37nl4OUpEZdTcM9G+R5qVsIItNlUOz7pPDDXVaUjrGvymY4yLeE5cf5YzPd+PoRxiKkpP1s+zu9xOoIwUnXUfufFL05bWJb6Xrm4afxyTdrNlD4WBI7XUiJ5Hta/lN127YGvYb4mpd1YN5HOExoM6wdfE2oiVYdSROdl7E21dlP4el42OM9Wgib6F82UWquxxUJsf1NIWE6dSNrGJSbUmvcJjrIZcRp0c1R1MkAdK2MY2xAZSACdtEA3wqvT4E1LJ5pqOsjKlUmyPfE7TanBYLJTk7QbElZxpHQRd5qYaHBRYM/PhZnuzOfTUdHxr81fmz43DvVpNmkrD75/Kk9t/NzzSpx8kHSFeWaud/JQ0pMPc3o4rMWjWee+IMwfvk50bfMpylMiLCdvwME0yPdSExy2xDsMh2iqHZ+wzvAR161qvdl6NfT1HcQxlT8FqfyVn9LUl18RZyceteXRwO4ZwnwL8thJj7YRgVbKPCtjH8WNjkXta3HclpZQA4m6FuvEKX8u+9Q1mlA3qfpQ1U7wb+E14fnhEZwf1LU6DbqHX+9dYj0vE5z2lWEa/UfniCbt91F9CY7AjvttWVX7tXxwml3W+B/6UvPp6lI93dqWTwDcL7zu3pEnAEmgE9A10BSYN2bD5yfx/jNzAHoGIMRslP45tZfUAwB1GqwS0Du4K0KtYY8yAAAAAIA7pNxPBwBw58ibBmd5UygAAIDlBo4yAAAAAIC7QDYv15s+v9iPNoQGAMwXvRm2bJb+PLGhNQAAAMBg6SVYWDDVFjQBOgFdA02BZQJ6BmC5QJ0GqwT0Du6KUGuYUQYAAAAAAAAAAAAAAAFHGQAAAAAAAAAAAAAAxNrf40/eXMZ/957KXwAAAAAAAAAAAAAALDdfv36VvxT2KAOLC9akgyZAJ6BroCmwTEDPACwXqNNglYDewV0Rag1LLwEAAAAAAAAAAAAAIOAoAwAAAAAAAAAAAACAgKMMAAAAAAAAAAAAAAACjjIAAAAAAAAAAAAAAAg4ygAAAAAAAAAAAAAAIOAoAwAAAAAAAAAAAACAgKNsbozVydqa2v1wK58BmJ7bD7v6lbX2gK7AVHwfqd21XTX6Lp/BcqDLtbQP8XFCLdKic6tGv6biLsevIzoDLDphW8XHyZX8GOCd++b/M+X/pqlSRS+Nz79/THrvti6O30j+Zo4H0Ze4OknG3R45fYGHjhlHpco3p+voXN02unUubGfS9TEMP11PTFjFPaN2ONPXCvScCjtKX62dw5hz+cjr3/5WaqRpuzKN/ld7zABH2ZwYv9lWR/I3ALPAneuNfaWG3yZqMqHj21Cp/Y0HNUAAiwA1rD8cqHP5BJaP/ujG2AjvuFQDao22H4qjaW+oblJpOD1QG3fsZABtMB33jf0n6tItO2qvPveosx3pb6x+3z8vNfvq/1T7f/D/Pfm9jvWW568yA79M5LgZ9dU59SUeiqNpME6n4Yj0BQfBssED+tw46lZdf6H/ji8jPRxumTMKvl+r8+MdZawEh7mhDh6X110eU9uYcKRtv3bqzHig60mssWt1fTpQO3xPdn5R/0o5bfDNSKmDHwJHB5/X+xz158uwE/fn9u/1duXDIow5l40q/XNbS785+o91nKKJ/llLpL8vZT/M6HiFnWWUCQV/jz/JX2AmxoMJZy0f1AmUL0FbAnmuKJeTQUJH1Dmk/BnQrwA6aYBjk5TqT6iTBip4cJr6Npz0E3aiQMqfBpoLzM1kuEf63BvSXwkeRBoWk/nrWcou2yaZdowGtvKZEM2uUnneR7t9eVxVLjV1blGorPsPJA0d8+DaqDaIbeA0psvd2JMmtoP1b88z9S/s/wR9bK21uI+k61GoMT5XbFryd6vNwu4l7CDh2YWcXczESyP1g49lHXMutd5DavSf1HFdH5Borv/wnqGOl5tQa5hR1jljddI7UoMxP8UHYFZ66pDq7dmzdfkMQEv0E8wjM3NjDKu0yny+Dub0RMtXnCeLVcudvCfb4RKA4MmjDudEjZxldlPNYHm0qagj6KWhMv6CvxSQ4nZllsf4cbijNCwr3y/U2SkN9caHMnMjpKeej6j0Xr/V+arLRGa38mwgk99mJoU/U1q+S5ZLeL4pQ56Z4euiThN8BOWdIqoPqWtqdCRcB/dPafHkg7OMK0hjeW2DeDfh9Fpdy5+axFLucMaL+5t7uGmJ8jlRtruUziJNU816XVebj+k/Nw2V8bcEeUlx07oJ4lCdBiJxL9iGGeD8ZNvAs2W+DbXNj/h+rT7TL5uP5HOWsbp4LTO+iOt/yOLs7aod77qe2jlW6vzjhS738Z9HSh2/VPtB2L1XEzX5Y5/UVsLnDn42Fi/1e8GXa6MpHW+yk3KNZf2nXUrNkbpg3TzaV2fU549mxmnO1XXK5mDMuTw00X8jxL459qqJ/m+vtUKLOmNYVzu/cPt9QaGuHnCUdQo3/GY6ZNrIAdAB1GHf0EtWnmcGJQA4bB3y4xE4W1cY0/lR6slmqYFwev1kcqOGe84STdGNe9yws4MYvJABgR4k+ksAkstNaBBw8HG3uNdU7SMvoaH/bBpq4y/n+MvWd9VZL1h+nE1D6IToIA1Lyu1fZ5Sn1QNXMxg8V2d/3ar1Z2fFIGCgl9OdRQNT09HfUAeq3RIQXiJ18bM5f5JYdsyOj3B56OXxOYVbsWyFnWR6MFpeY+LiXNOmLrj3H1MMe7Fz5Wj/TO1a3fLy0sY6bQMvHaP/9jbVpvnC3IcGak/cZY6y9MzEUZa82t/0IYP0vaF6LvUiqnuZ5WPn+wd0spyTczRUIsvwbBpq4y/nhEuX1Lbafi2/C9k02MGn3MtdbmfKsyMH5ioijqKqJdXG3ih19sJ1UCby/OqCyrhcdql18ngzrTHtaDXn9H8kJQWO8bB+sn1ynXBppH7Ze+o2LG8nwwdZLqYND6/FmHPpaKD/9Wcvyd5Sm/XfssUa/5f7NX21+5NVt5lkUYbTRP/Wmea0Bx6fE47aFYAMewGWXs6GN302nM4IWhPIE7jTcVdsmUEV0EkLqqbvg4IHp6mqaffWbrg2Q76bZnmHe4/K5Sb2++RU/hRVS6hkyYr9rUn8M3li2uny2vTStGnTsJjMW8/pPAwIyyMqQ395h9+fsphzTBj++YVGqpY1yTlRPcnpSUjHxadJXTDhxPXLvzadjkY6TVBVNuY3P92V6UguvZHf3HtU1k/7fX3cCyrqX7I+18Q/nSdpGxNpxY2La2/uGI7D0pPRkSk/P99DHTD8XVl+eQ2X9Vs0wIerISlzTwsctxrtRvHM6iVjlyySD1PZtiVhJfQekrOjgtFXQq9JmuhfwkyFdY+27q4JtYYZZV3xfaR+2z+vWHoAwIzYJw10XD7mja3x1BIAUMKzJtyn4Pqw0/jd2Rre8g5nKVUvtx2wWd5BnSxnZmLuCaVM0/eWczVZJiPoTfud+OtDZn/YNDSJvzy9L5+wGtY3n8hfDM8KoP+KWQeWGdMAZib9ZNvMZqqaHatng2TxtzLgGUNaN1xH9Ddp7NKobTo3XsLHtKkLTyId9X6mIe7pmbpw2nM/HW10msLE3a9TvGF4X8+WcmejeEvIilk1G+qAZ8YkuP3wG/3G4Th939zMma0dPfPMmzmTm+GQwCzT9Q8748umoT7+UlZRXpLW9uRPws6SDO2Hlwb9N89GpHuESzLB3NBlHMxCXX/2Xg2p/I7e2RmLt+rio4rLrxEDdem2l1uH6pKXp+3/XswgZX2oX3ay2uWZqzxDsT96n5gt2wZqe7V9oji5s4ww5lxdxK69/dF5ccQvZ7rfFM98BLMCR1knUEf9hRmMYPoruAt6r3ipgz/1FgCw2vS9t17Kcqiwgy0UTgI9iJQ3bCX3sJPlHfw2Si8cGpxnBs8zkXzrJR1BGurib5ebRsheZx68nEqHVR68vB00Y/NHztEul2WIM6Mzyri5e05ZR9Gkbi8Y7Zjlpb2+M7p0mrWoC9llLQ2YWqdSP+S4kSXUyUG8XpYo4fdkb0tJewQN2Pj+g7HvtMjWvRkZuMspiyNYtlsb/1xZyV5nHuIEs+Hpg2yh/Eo9Me14ZSeKVzZwmt0DwV51vG+iCvdjSqOd8i6JOqqd2YUdqXbCmeXd51p7jba8kL3LYnj5OeuN66/rEMOYc3Whsn9HFoj6Se8dbfF2BmyHSkdxcyL9J5iXTX8IwFHWBbKRrd+JMY2p6VRV7H0BAAAAdA4P4thZxrNJgjaIBrj8tLsceOafSo/fsCOqr4bvnCfsGn8Gxp3SIP7+zDEH2evMxXcwugee1jfB7j9W5SjLztC5S2QWRlneqb3Rcvh7c5kZJhviLGtRF2pnf+XpSqc8qGJnWRl/iwzAHWd1dqDPDimZZRoO1rN1b+40iX+urFLOWd/B6B5uuGaGkzm0E9LdxwzcC/GML3Gk2Y31Q7RzrGE9rnDCmX3tMk4y/ZAmbyfdPUSNwzflJCMw5gSJmbj6gVW2fWmi/7ow4tnQqwAcZV3gLIkrD/M033Rs0NkGUyJPR6PptPIEqnqZCQBgtempQz3LKtjQPLkxMHXy+Y1fDnb5SDhjxCAdr+hNSPy0/Xy2mTM1NIq/DEp483gX/8mo/8YnFz1jLdh4HGSgPtBLfprdyw3Qxup3nvmUeJtcmvySwpnKRZyk3oCUsJuDt8HM6ibt/MMxbFMX4pl3WrfR28hcutepXarGA+uyf0H5zQPwcBBmB+YFshwsmmUqZOqe3lyd/gvzvzuaxD9XVnKt4L2J0CXXJxNsvmYHpGBGeIZzSvPuktr0jK+0E8Asa+5rp5q1O/4yaMato7lll1wX7QOcpIOZ6gW7kMNN+439cV4MwBqz9Ss1fsSYEyTsS/VG/E30T/ZLP+QI2yhpx6Ll6isCVbACbObfJcu9seJdEMhzZdGbK3obz9oNR8PNaFcT6KQFK7Qh5yw8OE3lNp4WjA1xfk9tTizfFfqoCVOT2GTYbAzrbEDbWHPtN/eujD9h0u3c28Y39Z27ya2E1T4NiwmnZf5k2iWbv2G5yvdFHkebDUt47nVeuaTPD/Vq9ChllyrrQhP5TZO9MCyhRhJhh3XBfnbTFNWXTDqScQ/jkCDuPzgUabe/S55659vvyntXhilEdU/SVaY9LL8KGqTT0Cz+qby0NjL+zk2DhGXTkIqXhF1pNzuA77v0SF5G5S757uaxX1astZQ+Y5sSazk+JyxnviaMU1yP00TnRXpJ3L8R5rp56+6+WAm9h7TQfzP9NdF/bENN2EH7t8SEWvM+wVHWJctttO6ClTSMGawRLI4mncsVATppgW5gV6fBm5YHp6nawVk5WCw6UtLZKg7uPDnhmA5U7kgMLJK/EY01FwxC66iJv8W3nRSPMZ8TxidMQ/D7A683nKa7Imqr6Eh23qNBgJS/17aVujWHWwbh+ek+V9TJl/uWYbJepfwr2tVm6aquCyaMwWQYajKhxXRdrtFpgnggFGDrUVHvwjw36SzCifLPP/J1L0xTqrwzSByTOoqoib+cFeUlxUOfE8QnKvcwvqEdoiNddt3C91l6IhvhkKzHApdJVlehPlJ1I60hA+smvCasl+ERnB9opqrOhEdeW1V24+HDaV85Wuk/3Y7E9aCJ/ulqr/9X384sE5xmlzX+h77UfLq6VE+3tuUTAPcLr7t35AlAEugEdA00tcTwG6N6Kt73ZYmBngGog5f0baizXxpuwH7PoE6DVQJ6B3dFqDXsUQYAAACA5UL2EvI3Kx+rE70B+YrutQEAMPu6BRue3374Tb+05F5fNgEAAGChwIwysLDgCQJoAnQCugaaWhL07DFng3+in3ob2ZIDPQPgYmaPHXgvKEi8XXCBQZ0GqwT0Du6KUGtwlIGFBYYRNAE6AV0DTYFlAnoGYLlAnQarBPQO7opQa1h6CQAAAAAAAAAAAAAAAUcZAAAAAAAAAAAAAADE2t/jT95cxn/3nspfAAAAAAAAAAAAAAAsN1+/fpW/FPYoA4vL//73P/Wvf/1LPgGQBjoBXQNNgWUCegZguUCdBqsE9A7uilBrWHoJAAAAAAAAAAAAAIBS6v8HAlaWEQN2eTwAAAAASUVORK5CYII=;" vertex="1" parent="1">
          <mxGeometry x="2800" y="457" width="845.25" height="111" as="geometry" />
        </mxCell>
        <mxCell id="xRZ3aG0bhwhxQagtVehW-10" value="" style="shape=image;verticalLabelPosition=bottom;labelBackgroundColor=default;verticalAlign=top;aspect=fixed;imageAspect=0;image=data:image/png,iVBORw0KGgoAAAANSUhEUgAABMkAAABuCAYAAAA9BkTRAAAAAXNSR0IArs4c6QAAAARnQU1BAACxjwv8YQUAAAAJcEhZcwAAEnQAABJ0Ad5mH3gAADZbSURBVHhe7Z29bhw318eP3quQADnAAmnduJLkJ42AXEAkKICl6oHLdIY7KyrkVWekc2k8ldZABCkXEEBN4l1VbtwGWDgWIN3Fvvw4nCEPOTOc/dJq9/8DRtqdHXLIcw4PZ86QnLWRghSfbvr0fGtHfwTgwfn333/pu+++428ApIGdgGkDmwLLBOwZgOUCbRqsErB3MC+krf0f/wcAAAAAAAAAAAAAYGVBkAwAAAAAAAAAAAAArDxrfw8+memWmv9sP+dPAAAAAAAAAAAAAAAsN1+/fuVPRFiTDAAAAAAAAAAAAACsHGtra8RhMQOmWwIAAAAAAAAAAACAlQdBMgAAAAAAAAAAAACw8iBIBgAAAAAAAAAAAABWHgTJAAAAAAAAAAAAAMDKgyAZAAAAAAAAAAAAAFh5ECQDAAAAAAAAAAAAACsPgmQAAAAAeFDuP+6b12/729kN//jYuO3R/s89uuevE3FzpmSxT71b/p6DPr+QZbS9HfDB82Xw9hHrFQAAAAArAYJkAAAAAHggBnS2tkYbh8+oPxrRyG2DLh1vP1wwZxIG/zuiK/48MVtvlDwu6XCTv7dgr3dXylNuv27zUXPktkfvTvgzAAAAAMCCgiAZAAAAAB6Ae+r9vEPHB+d0N3pDQdhGB4cGXaKTHYw8AgAAAAAAcwNBMgAAAADMn5sPdHRB1H11SOu8K2Brl/qDEb3c9Ccu6sBaOHUwCKLxVMOzGztCLZxeKNJGUyIb8uZRb/sf7820wfK4M/WLxqbf0aOlLo5oQ6QP0/jpNDbt/sdeWW5dvuR0S1G3ttMxHSwrXZ8Qzt8fxWfK4Z1TyM5Ol1X1EVM9i7x1+id2hJ0ZIeinb8gbAAAAAGCeIEgGAAAAgLlzP/ys/u5Rp3Iq4TZtbxGtb7oQmg7ebNAR6ZFnPG2Qp2XKQM/x9jvqfCuP0SPS1lTa4SveN+pTVweyikBQdd5yJNvV4QZd/+jlQ8e0YwI763T4+4j6p+ogMzpuRG9U+TU6QLbzxct7dEfnBy5dydXhkTqYj/k9ETw0QagdOj7tcz4juusRHT2Jy9nI5i7tH6hz/nEdBqVurlWN9uj8v3ZsnwmAbR9T15VLl11JaiMKZqn6vCJ6X5Rrz8jKlEuPDPx2rnIlmw/XrTLvIIAIAAAAADA/ECQDAAAAwNwZ/qPHFT2rCZKF3H98R8fUpb4fPNp6Y4JSV4cfgqDKXu99uY7X1q5KpTjtF0ErHYDb1cGsL0MT6LF579H5b3Hex9siYCPyednbI7oY0pD3RPBaXOGIuXU6fKVKdXFJ1/4osINzelnkHWPWO9MBOG9NsfUX7+n8QJXzNxlw2whHaBWbG3mWLsPgz2NVjn3aNfIb0IdDpaegzirdb+e0d3FEvwTByVB+6y9eG7l/HoahtBKbt147LcpbaeNdNMINAAAAAGD2IEgGAAAAgIXHBNUOOtTh747tH00ohoZeoOdZpwxHNXNP13/ovF1gqCSV9973sgQNbB7S5ciNKvOmdG4fm58DnnaKIFPMPQ2/qH/RMeu0+1McqKteuN97EYAJIF7R5V8uIDWg6xOV9qddew4zqoyo+6NY6N+NQvvHP2N+wNNwO1SSTegqmTcAAAAAwHxAkAwAAAAAc6fzvZ58FwagquEA0SzhdcSCUVepQFaS+nqU65Ft0NFF177JU08DbcWQhhf8cWrYEXXFlEuearn/Qxi4MuuIBbLR9eAfG6gMdt0Op/cWUAAAAACAKYEgGQAAAADmzvoP+7RHVzXBJR51xet9dZ7y7lnhrfNVOfJqHG7OzGL+5bpb4k2e2XSoc8Afp4gZLcdTLs1Uy9PXor57dO7Wd5ObN+2zNZsdlTMAAAAAwGKBIBkAAAAA5g9Pq5NraRXw2y/d1D8z8kyu4aUwgZ22U/0CeLriyXW49piieGsjfx+HqhcU2HK3gQOFUTnddNF4KmoWWy/p/EBPueyZqZbB1MpoOqajfNPn2Gx2lNaU/v8U0r29pkut97bTWgEAAAAApgCCZAAAAAB4APTbIPktkzIQdXNmpzoenNP7F3bqn10I/oqOXnlBNR6ltdd7OeboLIvNW7xt8rZHv5iF5dvlbYN55fpg6x0dChKBJi53W7b/axe13yneyqkDeb+YYGL4YoA22CChfrOmfjHCbvDiAPtiguItlczg7Y459jXrJgsOipUL+fNLD052vLzvqffqSEmrZd4AAAAAAFMCQTIAAAAAPBDb9GY0ov7pMe34a15tH9vpif6bLM2xd3RO3tph25/NVMDLiQMqibyfHNEzVYa2edtppLY+ZqTV1huz/ljwtsnfOnT3TQe8UqO0ajAvAehT92SnyGvj8JlZ46x8Q6Sl+u2WeguDkrbMitNdJYmQ9ReXpvz+umQ7X87prvW0UV7/zJTLnj/Oe4OOnuppr+NOSQUAAAAAmIy1kV5UQvHppk/Pt3bMTgAAAAAAAAAAAAAAlhn9oI7DYgaMJAMAAAAAAAAAAAAAKw+CZAAAAAAAAAAAAABg5UGQDAAAAAAAAAAAAACsPAiSAQAAAAAAAAAAAICVB0EyAAAAAAAAAAAAALDyrP09+FQs4/+f7ef8CQAAAAAAAAAAAACA5ebr16/8iWhtxO+6/HTTp+dbO2YnAA+NfA0rAClgJ2DawKbAMgF7BmC5QJsGqwTsHcwLaWuYbgkAAAAAAAAAAAAAVh4EyQAAAAAAAAAAAADAyoMgGQAAAAAAAAAAAABYeRAkAwAAAAAAAAAAAAArD4JkAAAAAAAAAAAAAGDlQZAMAAAAAAAAAAAAAKw82UGy+4/7tLa2T71b3pHknno/r9Hazz31STKgszX1m78lj3scDN6u0dkNf5kIltnbAX/PQ58/kGW0NelqRtz2aP8R6zVFnu3Hx1kdnSnLT9P0+9y5OXs4u1kJ2Ac2tXWjB8+/6DYVtO3E1tJ/TAftu2AvE5GjW7Wd3Vjb2f9Yetax+qAJ27j1cbJs/ONjY5p9FXznlODrIWFjbvPtfxGw7eGh+3BcW6cZ79oatKP2XmQC2U9qB+irKlj2voqvn/1t0fqNfKZ5jR1fQzYy1XsP4Y857/o2mefDc+/Rx2EuI8lsBXboc++ORqMRb3d0Tke08Rgbq1LuuxP+PDHrdPi7ksev2/y9DV3qF/KU2yUdbvJhc2TwvyO64s/gkbH15sHsBjSzF/hPsY3lPybk5gMdXfBnMB6bh3Tp6/HbOe2p3d2Bt09tb7a26Y36f/li3aabah+Ug73A2jh8FvY5gy4db7e5UFocptpXwXdOl4NzuvPtTG+qbdDhxkLZ2vqLS1W2N/QA3teAa+s6Jrm2Bu1I3Yv0qXuyM17AdiI7QF9Vy9L2VRxQ2f5M5988vbt+4zE+OJjqNba4hmzBdO49xvHHD+/DZx8kuzlTzurKXPSHytGVV535wRUdvXq8T70AAACA5UVffO7QsQlciICAvuBWNx+kboYe7VN68DjQAWW2tcc7MmCK4NoaLDTqplw/9Lk4oo25BabQV60qg7cbdHShg7UiAKj7DbbDX9BvgJZMGCQTw7zfXvN+h3JYvx2bp4Ivt3hXwDrtvurT3W+7/N0SDZMNHKwbMjiwUWN3DEeJw6G/iWHwciimiC7bc6t0PBTQHVdclOn0T2xU3zyV8NOLNEE6jTn3GfW8+p3dpIcT1ssgHyuPWA42f/9JI5fDO2fYkZRDNdMytul39NMf3SkG6ZvyfpxIOUjrb03Cfnw5FbbJ3y3cBhNtxM8n/N3qY/9jrzxO27GxT/n0Web1CJ9OLzhhW1fyHfIPbWH7iW8gYxup9y+lT4rKxro3+7eVb1ee8OiJSN/gY8E4lP63qg/K9w+CJn3x08zuq0PVYyfY2qW+ulF/uemnavD5bKtuGmlxnCmnSBvZT1N/UsqqfV+lUgdp/HQamxa+84HYeknnB8rr/HEd2ES9P1M09K0WaVe+vqwuz5Tei3wK/yjanGxPGWWJfXaTjavfx7i2bmrrxvbVvkHK74u0kfwa8i5kJepf1F2nf0TX1iCDzUN6far+n1wHbSTSgd/WauygNp1mrL6q3k8Xdpuy/ypbLmhqx+irpoLSgx55uNd7mR7Vu7lLrwd39P4H/m5o0A3rdrxrFHVErZ/h9GpfeFwpd7O/4hp7LL17tlYyPb27MgUydG3Gl1kgB8VQ+PYKOfnItpK89xbtNaWjLEbM34NP/CnNXW9vpExwdP6Nd3w7H+2p5HTa5x2jUf9Ufdf7Ds5Hd3bPqCuOacLm4Z3H5SHzVFt3YHaUZVHbXs8epUo8UhdTXjpXBy9dzTG16fh8ZT6K1L5BN0zH3/28izJEcqyTgTumq35pQJbBIM8Z5x+nS8i9qlxB/arzLnUVo39fFCLbd/Lz5e906x3XpKPgd7afQCYmzzI/Ww6ZH8tX6DLIJ8rblT9lr149XbvybDNuQw/LItlJM1JXzgYSMvdlnLKNJLE/Mwi9RueMylXaR2wz0ub9fFL2kUi34DyoTbGu4/Yl2nXiuCz/kPQp9fqyx4R6rofPWefzCzv38uVjwvJI26zOO0qT2ueli/uq1D7Zpsq24cs+aguufgvgO/U5Hw9S3jFBv1l89+1T2EzKf0p9JewjtHtnU34ad4xsKzX2m2rfVfbry4CPKesg8s0gLlvc1q0s/XxLe6+WTU3eUZr0viJdSj45MuPvgcxcGTwZVdpKkG7x0XVdFGR7lKRtJTw+yiOh85x08lyN8Hl8G5E26b77NlK0E788LdpxdExDOnM+YaPxPtnmyrbry9GWwZNRhgweGl2WWiK5NlGtm8mvUVg3KT+T8KulT3f7pE2F9jy23rkMUf3q9M7HBH1nJbL8Usb8uztfId86WYo00TkUhU5KOcX2m0hXgU7nU3xrGySzRiBPyAVxQmklYAUfHypWETSA2CCj8zK2zEJhQTqFKKOspyVtXH45U06sKJc7Z1APhzgmSwZO/jWbNCq/3uIc6Tq7c9TLL5RxLAf5uyNtPyW6DotCJJ+kHuPjmuoY/G7yjHXgk5ZlqJdaeUtnJe1VlEHq0lKR9oFYJDtpRrQh4XsKpH3xcaZdJzdpm6EdBXrMOmeefcTnEn7SUXXOBUXL4cEQvrmkuQ/K8Q+hzvL01eTHJLU+yO1P2oQoK+Pbr/SxjrCM6XxkuYJ2oamSfSCzx+c7H9SeW9Mso8AGknakMPpgXUZ+KiZts7YsNu8cm6poT+b89phau+C802XhtG5/Vb0rGb+tB/J2BG0lLRuZdzIfWa4gX0uOzAJ9F4hjEnkbkmkXm0Vq0ymbCQjkW2+HhQ4iXeWlayyLoNa2eH/SbpM2E5Yxbe+yjOm2I31AVM5aW3bnDOtREByTJ4OHpsneq2RdhZSvI9ANyzi0ubS+Ahkm0ykCm8nTTfR9Er1z2V25svTO59PlTm9C5u54JR8rS/93zlv447ScRF1cmkCGJaH+631FtF+g8/cZc7rlPQ2/qH+nu2Jo4zp1nvLHcbgd0hXtUUcuKLi1S6rS9HlYDpbb+77DnzK5uSY9cLH7oxiMublL+3r4/j/+HKdncRka2P51RKPfeYhvMcxPz5E2P3sk6ufTQgaqNtUL9xcL3a3T7k/KNLzhzvd/XapzdGnXDNO/p+s/rogO9mlXnHP7R3NGGnrDL9vKffiPzrtDMlUq78fC/fCz+uvkV7LeecafxsDoNzF1rSXBQsLeUHAzXFvytJMekm7gNh4dw/Z0MaRxZwUChtv6/g9CC5sds3i7RDn3uJ2bzVuDge3o8i/nJwZ0rYeh/7Rr9GjbfuKcKf9Sax8JVH10y3jWkfVJ+Vjw4MxIX218fnTuWmbbV7mXKLzhfrGYTmGmPAjgOxeCLH+W0bembdYuGuyv91VrU1XtySyUbfvknOvEmVwztWnriXPXspTX1mA2hIuHF9OmeHplNeOmq6ONn25rt+irFpnZXaNk9kmOWt0keCC9Z917aFT53vdU+pMdc8+513vf+IKIuL+0/XV5D1OSde895evaMYNkSoBRB2XpfK8E5FA3e7rouYWyApgtZo676WTdlups09TWw5+brgzWGpVePJV/z2QWMlj/YV812WO6NnOF2XnLACfPdw9kk2p4Saou3LghLhnGwaaoCG7kYS8C+mb9hp1SB60DZt4cc30Bcdo3zszk24rqNg6mQ2VbZ785Htu0q3RdrNljbmBkh803jM5OzLZjbnSauaq+STM3IeDRkKkv26fn3pzPwefPpK+ylGtduEWA1YWgXuy5FfCds8T2v/5Na5M/a+pbp2SzOe2p8Toxsywtr63n4ZtX8doaNGPlXgYn/TWYdk727JsI+a3OdeSka9dXzcFPo6+aCzZIUnNtGjCP+9IZXWMrFl3v6y9em2CgDma9Dl4ok6LhwYYg6957yn3dmEGyDnUqOqiwEvaGjb4M7Q1bCn4ypBd7m2gkThbsWLVRyW2iV4zeU+/VEV15ry0P3zaUz0xkwBHU4z/VReHtNV1eKDn8V9SXgynxNsmrgiccWbigBIFgH9E4K48zsKMWTzPMU1OW/R1H5NsEygZvtSP2RhiObdfVbRxMh8q2ruxokst58zTs4pKuVUc7+FN1y6evRRv27ENs4/otw0RBYjB3MvVlH7LUXbjxE02zMOocfP5M+iqFuhbRTz+7A5efeDtaNvCdsyPVb+b5s0n71snJuU7MbT/trq1n75tX9NoaNBIEtW979MvhlTcyJdNnZ6Zr11fNwU+jr5oPGaNBbXBJL3A/j/vSGV1jPwK923tQzTHtNPavuYFNS9a995T7ujGDZGxk4o0lxQWMh71hO6IP/hsPCpTD0m/oUQZlhs+ZyiWG2fFw7rbDHgMqh/Cl3vjQFo7KyqGLJiDFn3OZiQzW6fCV0oPSV08PBQ2GAPPwykiXSjvmyY3/1oz2GKPmG3Yfc/MePA1+PNiLLTcyr0Q+qaw6zmJtxk2DS7H+4r19Wlp3IRwEVNKBN23jespdO6rbuB1GLs8BWlPV1id9EmLeAKfz7Rm9+9NgwlGlHvy0PngzTVtUfYzF62C8D/vB1lMKwOTUBVxz9eUesvxW8XYgfqOY82Wz8/mz7avkiAeHLXcb4Dtnhnh73bj+LOxbq6cWmRur3LdiVd2oFWXJu07MbT9tr61n5ptX+toa1KJsP3jrIF/bSFnbKWo15KZr1VfN0k+jr5ovPIPi8ENarmyHbgbVLO9LZ3mNvfB65yCeCWbr0W0nO431jfrL5OwXS9a997T7uhHT+u2WiQXs7DFqn1gMzu1XguM9Gl6QTe33F2GLF3vj8xR5phZlSy9UZ89bLs7nyhGfTx4jF/STdZVlcHXx05X1K9LJRfgMYmE6RbMM4nI3w3kE5XbE+ceL3Mk6W6y8yrLG8kvkzYvvxeUo0b8vCrKOmkj+xQKHqeMqdO6nTy1IKHUQ6SS2sdT57D61FTqIbc4g7dPVyTsu1YYekkWyk2a4LUTy9PVVttNCxpHem3F6SvmI2EbYHrLsIy6XbwuxfSRsfcF5UJtKyNQi/W/CH2f4B9nG8/Xl7FLsZ5sI/Ls7ts7nJ+vJ6YTdGXst8krkHdU7IRuFbGv2e+yDg3SufkW6urbhtSkuU9zWU7qdLfqcjweWb2BPTEKmmkZ/xjoM5F5hMymbtenqbKq0ocr2ZPJNtS23T21FvarLkj6/3F/m6de5smxeecK2ZrHpfPkqRPuN83Z6kbLx667huoq6l/XJlJlsfwY+zrOX2FYSsn4E6LovClLPJQnZptqw26e20n6EHWSn0/B5ZZm4DTWVR9py0m5TPkWW2ZUjcT55TNh+3TlLO43KkPIHrn5Futj+DbKtZMjgodFlacb5BeEHCjvxdZjQjZQpp0valpCp9Juxn+GyFcfU6cY7pyzDJHqXtpajdz5G2meaWKahbxDlKvRSZ4txXSJ/k8gntl/OR7bjBDqdT/GtfZBMw0JxmxLOuTCWgqIi4fEp0bsKui1UkFC0gQUg8rP5CKEUBsVbThpXz0hRehMG4OWtFRQo1JxbyjA2Ak29DPzzV2/pNPL8jnT5S1Jyd+VMGHlwrMy7qgwl+rhFIaojE+pA/d5L6TfWpdmEvg3SNtUm5S2P6Q5i+5G2ofMI65C2ubR9ijae4WTmiS7T4yH2IxppH92ebUOyo/KPiTehl6izCYlsMjiuzj58v+C1a9+PSjuuKMOiosv8YLDeQt+rif1v2c493Tf5h1Qbb6GvVL8Tl1Xj2YbZxDmT9Uy3D3POoJ+WeafzGauvkrLQ5+Xj7DF1bWMxfac+9+Mh1q2/pW3N6dY7Nqkf73e1SfuIz+3rs86mhF5r21Padm278vOpK4vAs+NiE9e1BQ1tPW5rro4Z7TfVdvgnTVJWLFe/HLFfy5BZsv1xOlFHaSuxHSw+utyLQqmveEvKNrJXrcMMO8hM50iVK+0/6v10XRsP80v5iLTtlqTSuHN69uzVvTg21d74OHtM2v7TbaVeBg+NLlMusn3rLWmHkW4yfJyTk5CpsbWkv/PyD9LU6cY/p1dGl/+4ek/aWoPeozaX2nQaV84qu/KOceVy8uX7HZdfWL50XcK2rc6ZuveWcorkkUYf67Om/6id9OmmT8+3dvRHAB4cvZYGmyYAlcBOwLSBTYFlAvYMwHKBNg1WCdg7mBfS1sZckwwAAAAAAAAAAAAAgOUBQTIAAAAAAAAAAAAAsPIgSAYAAAAAAAAAAAAAVh4EyQAAAAAAAAAAAADAyoMgGQAAAAAAAAAAAABYedb+HnwqlvH/z/Zz/gQAAAAAAAAAAAAAwHLz9etX/kS0NuJ3XX666dPzrR2zE4CHBq/8BTnATsC0gU2BZQL2DMBygTYNVgnYO5gX0tYw3RIAAAAAAAAAAAAArDwIkgEAAAAAAAAAAACAlQdBMgAAAAAAAAAAAACw8iBIBgAAAAAAAAAAAABWHgTJAAAAAAAAAAAAAMDKgyAZAAAAAAAAAAAAAFh5ECSbAYO3a7T2dsDfABiT2x7trylbqtpgYyAD4488uzm74R/AfOB2vP/xnncImn5fSu6p97Oyx5976tOScXM2hm8e0Jlun4siD10H9hfJrVX9bN0Wxr65vcEPNqDltIztk7n/uK9s+UxZZz42TVv7B+Nh/Ua6nXL/oXVhtgo9mrbu/9acrtCx2GL/ZfMqysd+pUyzT71b/s1H+NaUX5TXbM32tmA+FiwEiEVMDoJkU0Y72J0T/gLAJGwe0uVoRCOx9U/1j3t0/t9tcxgAVehOcuekS31nP4MuHW/jYgqA2aBunH475s+Pn+4g7HuK7dc2fc82vVFpLl+s83fwGBj874iu+DPQDOjD4ZVtE63sH7RHB6B2KO1J9W8bdPS0X/ij/ukx7aQCZbdDujrdVR5Ik5du+I+y+oNzuuNj3Bb7ryENL7q0u6U+6sDXkyOi3l1x/F2P6OiJCPLp47Y/0/k3zvfbOdHhhnc9ZgNvwTXbqE/dk53aByiDt1WyAqsKYhHTAUGyqWGd24bqRAGYGaqT1Y6vO7ikw03eB0CK2x69M7byhi8SFVtvTJD16o/rygsuAAAAAHjcdujlaERvdFAEzA4zImuDji74u+D+4y/qt/Ah8favferSMb0TD/8Gfx5T90cOkWWlu6fhF6K9n3apMaR/c03HHIDT59GBtfdeIG39xXs6PyA6/tOF4AZ0tq2OO31dXrtvHtL73h5dHX6wgbrba7pU9Q6u2fRDhkGX6OKSritGpiEYAkoQi5gmCJJNBX5CcaGj/3fGMQIwfZSd6VEKqjN+iQs10ASPRMRF/eOimAYkpmWYJ9JiSkfOiMBw+sg+9W5sHu4Jt/n95x71iike5TSRMG34m6Yoa2O5eDqh295e8/6Q6HxZUwXsRaGfrnx6z78lnsLbKS3+KAJRRjldxuhD75N18W6C3M2dfvIfpG/I+1HTVDf7e7Wtso6krtn+nS6NvpQeB9Ke9blSbaWJoZgelbI1ka+0o2mXqc7+Y3u12DS+zOvag6bUh83TbS5vm97ceF8c0UaQvinvHNz5B2FeiTYaT2ETdmRkfEY9T25FeZrSMkMh81R9jIyfbBhZmOMCWyntN9SfbAex7JI2t8ponT05oqvTvhlltce7fexIr33aDR4Sb9Nu9PBvQNcnPNJLkZdOjw4jetZpHvXqB+C2fx3R6PfDdGDty9DmfTukz+qfS+NY/2Ff1fOYrrXd1V6zXdEwsCeNakvbqhwDHewDQPsYxCKmyoj5e/CJP4HJuBspwxzRaZ+/g3HwTBM4Bl0jl+6AvwPYSUvuenuwoQamblPfzkfqYn+017vjHQLxu9MRHZyr3sTSP1Xf9T7qjoqeJcMf2HR7o/NvvIPP5acrzif6LLvfO5/C5lfuS5U1sjF3Ti//oj5RHb2yqrOoC/+GvpSP8fKRcrHl8fPV2HSFThJljNJxvikdlLpN9P+Vefu6S9RjSujztCa3r2lRt0r7T8lMI8pQ2ExxHKfT+yL7k/r2SLSBQv619XDnK/U/tTIpGu0/qRMpu4QdRen4mNQ+L50pT2CP1XlX6zZFef6o3fh5s56C+sq68PewnIqMtE6/TT612S+VOo/qU+SdqB/n0052Fn2upSelQydHr506rJ6ELqWOmtIZ/e+N9lifbgvLoNG6886VRNgJ5x35AK5nnR2k/Ydfp/Ft6TGwEvY+daptHlQjba34hiDZtIBhTgM4RQnblbwYXHFgJ5nwxb/Z4JtqmbpNNV0Ei9+TF8SJm7fGC+OK88qb//QFeEXe4sYlJ21082IQ/qxKRsl6l6TPL8+ZqIu4YckqY7Issr+P+3+Td+S3pT+3ZZyFfx/Lnn1/Ibcx6xbptiCWmUHIO6WjpP6FjUbU2prLq97+3f75lMmlS8hJ5NumPUh527RlXaRu5e+OlAzqSZ9f1kWe3yJkkGyTeWlrZeXSttGLPF+OPY2JPvfSk2wzFb5CIe1Tfy/lnZfOfhbnZF0HutNli+wrxLYLz74Ce/BpsA2Wgyx7WN/p2teisRL2PnWqbR5UI20N0y0BeAzwWgVZayUAINl6oz2/2u7o/IueChZP2wGLxDPqTLrmoF60mPZo/4fQY6x3nvEnH3m+cLH1YlqWngpj9vjUldWu8ULF4smOdeo85Y+K+78uk2WlrV0zjeTzMJ4mpfO+/iM1hUaV/keTiqenxFNx7BoyLp2elqP+Jcq4+5O6PbkY0pD3KA/cUi9c/6cd4bdTeS8e6maR/Ya3FYuWP0DdDjrU4Y+TEk2pMrZ2RZd/KSvhqVHRMZu7tH+gbOkfr2ZTKFOe/bNcT64L323TuSllue3Bsvd9u1Lb6WpxXVN55xCdf7OjPEm5hlMwha2Yuppaqypuk/lpY99l6sPrP7XyS1E78GEfdLihyoG+d/botkCx3hpYf3FpfFww3dGt4+rWDVNou6Caa3E97VZPV97rvZ9w7eABnZk+t0t9/2URtz36xbxEwl+7DAAwbRAkA+ARUHmxBkAr1unwN73WR7zILVgu7of6Nj+BuhlVt9qN+Ovr7Jzs2TdyVawTk8IGEuwaLyk638ucrszbwNw57Zbx1i5eNylIpxdI9vBvfF1QLHrgYNYRC/PJXvzWrTsTUV3/x89jrltDsNMEmOdNs/0H6xe5oJgM7ma0h2qqgl0cEJ0i8bpPHer4a+j4a4qp8u+ZNwdmrrOTmzYrwDmmXzKU60iZwJ1egF2l3CnyQcBsWpggrkM/VKY4WJwiSFeB7atc26gPwOl+U/cb2uay3ujLAfkYvXaftjO9vpQfDLun3iu7bhvWmwVgtiBIBsDCU/2EGACw4PAIiUr4hjxnseA2pEeMKXICAPyk2t5cqpu70bhv0xU3vh7xzYm+GdDnirfamw29yHMiTVBmf5SQfiuZ+vZa5FnWVW6TPK2vrv/j5zHXLbUItkdmIHm6ZNg/j2Qzo63M6PLwbX2GnPbQmnDk5zSIR4f6QVcOBByc0x2XPyvgYGiRNmu045h+KUUxoltt5oGDDpghUJYP22HVQwkOesYjvfLSZVETgNMjrisDZManVPudoP83Qd5UgEzBs0rChzo2aIuRigBMFwTJAFh47MUjplqCVphpJvINW4oZBWVAFTaYEL55q8SO+CrfwjU1+KLcBIY8KkeY+VTYiB3R2ga+OfGmiFnCkSnhCBkPHhGSfoNePP3MYUfB+TcL2/RSv2pf6aCnp1oGo29Sb0azuLcXJm+ssqiuv33w0eLmbOGYbd2y7HQCoiCNCZ7yaG0ObLupfwVu2YOWUxWbyLf/dTp81TUy7+m2GDw4a9Me2mNG0xSjMUvM1OXaKddpgimrGh5RY9/+xwEzOYXRBQhqaZM2HjnnT8Uezy9lsnlI75VPqh69B1JYO5TBTX90cHqkV3M69veJduK/GbNqqqVOq6dY6inqyeAp+xTpd2yf6vX/2rb0FEsT5E08oOE3YPrB2tHIvt3SPujBFEwApoZqYAYs3D8tsFjeNPBMEyQXMAUa2EkdiQWF3SKwDYvOrjIzsamKxXdTiwLLBYgNwULRjubFeqPFg105vH3J86XKW6Qty5FMy+Uq08rvLp3a59lhVNaU/UZw3gkbj+SSKH9Bqr5S5smFl+MyBgt/axJ5u/rPw6fr87QmaW8JsurWbKc2TcpOy3wiuSqidBpOW1n2Iu/E+Wrrwbr27H1qZVLk2z/bvNpimea0h7Q+ZLntd79tJ/JO+K9myvJLGynzjmVd7lOb01Ndm2xI6/Tr1yfWuSpZo174u2c7hqANcf2CY2Q++eh8l57KNhPbodWR07f+3de9oymdIsMP6DSyTCm7SREdV9E229uETdeuHT4eVsLep06FXwK1SFvDSDIAFp2c6VEARKzT4e8j6j/11qh5ckSknza6RY3BfDBPf/vUletebX82a321nraTiV4H565H5Zo6Ty5pf5Cxrpgur54O5Jf3yZBe8xPraIRNLfolAGHdN/7Yp/NT/pmJyqoX2n7ab7BVnfcdnVNo489ST/N5qpq6KYpH7aX0w7ppu+6LXf/MlseMNEnkvXH4zEzhKvPW68+o3yYatfYAZNWtGb1gdv/UW/tJ21qL9e/Godvbp8vifOwXvcWxzSLegy4db/Mxzh5nNFIj3/7tyEdyo94CWrSHBtwoKr1+1r5ZvzKRd8J/VY3Gkez1zlWWnI+eLqaniRZ11X2XXkPMX79rg4avVH+m654YLVfSJm2Xzn+6LOqzcUhRmx/PL0liH2jyUdK8Q1/cktgOd068aYl6RGj0EhZNQzpN0p/5NqFHnsn+Y0AfeO3K0lf4W9kWIp/Cfse1n/uP71SLU6TWFVSbbYcAgHmxpiNl+sOnmz4939oxOwF4aHSHwKYJQCWwEzBtlt6m9DRcdVcQrXUClhL4SDBf7qn38wfq/F7lX+yC5J9T6zaBLNCmwSoBewfzQtoaRpIBAAAAywavmxM+fVY3qPpNd8kn7QAAMCFmYfPHvNYeAAAAgCAZAAAAsHzoqSODLr/xyk3ZsCM4/GllAAAwLfRC5M9eYQohAACAxw2mW4KFBMNrQQ6wEzBtYFNgmYA9A7BcoE2DVQL2DuaFtDWMJAMAAAAAAAAAAAAAKw+CZAAAAAAAAAAAAABg5Vn7e/CpGFf2n+3n/AkAAAAAAAAAAAAAgOXm69ev/ImwJhlYTDAHHeQAOwHTBjYFlgnYMwDLBdo0WCVg72BeSFvDdEsAAAAAAAAAAAAAsPIgSAYAAAAAAAAAAAAAVh4EyQAAAAAAAAAAAADAyoMgGQAAAAAAAAAAAABYeRAkAwAAAAAAAAAAAAArD4JkAAAAAAAAAAAAAGDlQZBsWtycmVeHltsZDfgnACbitkf7sC0wKcaO9ql3y9/BfIn6iHjb/3jPB8+Te+r9PDu7uP+4r+o2zfx1eaXs5u8Tbb3ceQd09mD6mw6Dt1Kma3R2wz+uMFouyySH6bfHacJt++0DXeH4PvrnnirNuHA9JspjNYn8UMoWcu+3zDWP/5vsO1Lpco7R2OMK3xBdp1e0MVH2VJ+RJQN5PtgaMOTaL8gBQbIpYC46to+pOxjRaGS3/ukx7eCGFEyK7lCfHBH17ti27uj8QNsWHB9og7qJV3Z0xd/Aw+H3E3K7fLHOR82Rmw90dMGfFx1zg7FBR0/7gdxsf4ugzljwzdbOl3O682Q6+nZOn7dX/OZLyebdCX8Gc2CdDn9XtvfrNn+fJ+rm8rdjolP2Lb8fqtKA+WFv7ndOutQv/FCfuic7gQ9qdb91O6Sr012y1qTzD/sOm86/ltYPO9QxVPrCu97ninu5IQ0vurS7pT5G1+k6HdHRE9En6eO2P9P5Ny678rF0uOEFyvJkYHy2vC9Qpd7AfcGKk2PjoBVKiIa/B5/4E2jH3ej8gEaqY+Xvjv6oq8S711OuFrTGM80VpsK2vp2P9pR81EXCygM7yWDQNXKy295IXaCBGmZmU6yHhWu3plyzs4u73t508me/V9Wn9k+1fXdVzzsfbL3c+Ra3v6+3Z1vu+PrF0fT7krOEfe3U2uPSMc02zNduB+fq0/SZWR/1kFS1taB/ane/pfsEl1/a7sN06WMqzqnLxftM3xPpWqZL+9KgH8mSQcX5lvi+YCntfQbk2DioR9oaRpJNTP2Tr6t/hvwJgJbcXtPlxR6d/1fY1uYhXaq2/EY/wQKgDvPk8phUB0nqQot3goWGR/bE0zDslD5/6oWdOuUNrQ+mZdin0npfeFz5VNw9lVc9lXnqHaQ3o7ZcGrVljigKp4qc0TXvD+G6FFvzqOvB//RIyC69rhhtt/1jn/qjl9Tx8onkI85jflf16hVlFrKpSZtmaGVepEk8wR1TrrPg/uM7Ut4h7mMKtullT916nbwTcpH1im1THSlkkTvSr8Y2WrSNJjkX9eA83XFF3jo9j749liPqWuvQlm//4yCUCaeTbUbaTGSLCTnvf+yVcvPKk9Mex7N1jxZ6iaaSBfUtfVY1sV2ljq+XmcDoc0e1BeUJDzfM8dpW821d2OzbtNebRI9LT+117RUNjT22ud8a0PUJj/RSDP9RLflgn3Y37XfLNu2eqnR/XBs5p49Zp92ftA+8Duxg8OcxdX+05dj+VZWpauThl6HV4e2QPqt/Lo1j/Yd95YGP6Vr7xiwZNJwPrCw5Ng7agSDZrGCHuPd9x34HoC16qDg9o86muChcpQsnMBlbb/RjkYeZxgfGY3OX9g8SFzU310FAQ99sbhxSOXXDTcuQN4Nq3y/0no/R07V1QMze+K2/uOTgqcpX58M3H+ZmLpjSkjOdw/qpYKqIOvjoUEzyNTfU6obUTWtSW3JqSsA9Db+ofwcdquxRt7bV5eA6rfMFoq7DxuEzb9qKnnpQ1r3g4kjVzJXlkg5V+uy0gqvDHRq+cml4arznr8eT66y4p+s/UhfVIfYm7oou/2rT6+igQThtSduZDjbVBsoqbYODNplto1LOUd+p9POK6H1xLlXTww1bRu07v52rXHmKNN+UTqLDwD503sr2NlSf/u57sZyCCHLltPOrwyN1MB9jyprXHse19YAWPiuc1hvXtx5dJ2FXLA8/QJftGx2mn1THqI/mgZJKk/0QMmGzfVVCOYV9fD2uNvdDcyelroPt9ySp+y1te95US9N/PO2k5XkxpObhDJ+LIJVSUBCAS6OnY6p/7pzmer66Hp+H1S2gWQbK3+qA/sE5vcy1W7BkTMPGQYRyxAZMt5wmPMx2jlM/lg3PNFcWO3RW25E/hBq25QM7acGMp9UtCzOzKSN/257Tm9emE7oKplhUTT3kc1h/wb5CTsuQeUfnqhieX3VOR3DuEjkFoHZqSrTfkZ6qUk19HVwZW01PSKYNp1vWTqVpyLdSrhOidZKmSeaOsG5hnRypY6Rc1VFa9zV9V/p3Uc6mtiHKUiDknKV7ofPod0ejDlNlSss/kG9VvtntvKk91tdHpq2lSS9VeQbpuC5SdwUV5fXJklmKOO8cW8+y2Un0mKC6TS8ZLLdqe9Cw3IQOtO5KeVfbla/jtL6djj3b1uVq0FOUJtE+LA02XSsDV3dxriVjZex9IvJsHNQjbQ0jyWbA4O2GeYrUHbzhpxgAjI/qPL2nmut0+Jt+un1M76KpDQCARUfdEOleOLF5/cXWLnWD0Tv6ybXyBT/tmqeE939dmqfS+z+IZ4YmnXgqXfVksQp+Kv+sI1K50SIVSwjYp93x0/X1zjP+pKl62slTWqb2tHOb3iiZuhGUehSHGYWbfHmFHq3LHw1t0oakR47zCIQx5fr4qB6htv2jsU5vRIaPtXEqRn84hG00tA07eklZopjWlJaz1H0DE+qw7cyCSdp5Xnsc39YjmvQSTCXzRseb6d658NQhMyUyPdKtlcwmhv1ZwmY7T/mjYqb+emnh0VFKQv2aFzmk77e0D6JY3g2sv3itzhaP/t0RL+/Q+iRn1wlcmr3eezMyeXyaZMDTT/X1w+CZGY0dT3kGAIwLgmRTRl9kaOeob4Syh2sDUMPy31QBAELEOhI8bSm86Od1xPSNZrHZdXWaKdc3iTDTQtpj1sNIsdlRJXfwFJTWdKijfF6xvksGZlocy2XnhKeT8vS5JiZJW8mYcn1wODDUeukInkro5Gi2nICInoIm0m0EUwRz2gavIxbkY2+mc6jsWx9Eh+O187z2OE1bb9ZLEYQzuuBpoC3XyjTrMZk0x+aNtjY/GTCbxDe2odqfdb6XEpxXmZYBPV1by0bbSPVgg8r7Lb2eL9VPI3eE7UQHjfvU9XyXWaogsNH6AJxuT9pf6YfbWctcsH+NyZNBwdYb6psA8gfRFsCqU9kXgEYQJJsabv0HBMjAdAif+AIAVgkz6ubikq5v1eXyn+pW6vS1eCrNN5mJbaI16MRNdC7xTSETBBY42NWajJFm/uLh6vMvfKNiZWLXGstikrR1jCnX2eFkam2sCjsKJvGwpglvjaZwq5dnKXe5lTeKzW2Dgz2pfGpGpTTyIDocr51ntccp23qtXm7Oiutje66MG/8qeK1Ns5mAng6Y+YGyGfnGiGp/Ft+YzqtMjxy3xlttcKj+fise6cUj+6oesgRrXdrRlb5uzKhMNzK2JgCng3aVATLjO6ofTgX+NUsGAPi0sXGQC4JkU4EXE9VvIlQXZgiQganAQ/GP/xTPhcxbL9XFgZxOAgBYHrZemkX2L//qmWlLfnsP3ojlYy6uc98iWIG6mNfh+Sq/UzWiyAb14zLZaV8OvpATbwrTfaidold9IefqXDXN3L79kkeucCBABnZcwKeWSdLWMaZcZ4mdXnRFR6/8hdP1CAY9ikIHHQb0Qd30UdOC0MFoiPTb4DR21FLVgvDVb+EyI5D8xd1r2kY87c9h6zXRdKQ563CSdp7VHqdt6zV6seeNFx83wbRJ2Dyk9/oNrDyNd6a+USNsvcqfmWmYzMzLtCxoeejphcrf3NUGyOrut9IjvUzQOHrIIpYxSPon7pt4GmwcgLP4o9qSQU/2HXK6r21r3rToRhnwVOXoJRRscwiGrCw5Ng5aMmKwcP/4RAs0gonxTHOlsQsu+ovN5i/uugrATlpQuXAs8JmZTTUuHB3j2r+69G5eTDjyDRULucpy8MLAfrkq/U7D4q+2TN4xbtFhv5yJhYjj81XAZZd1suf1Fj9OLXZclKU8T3JB27HSphdftseUdR9XrpOgz1eLq1vQp7hy6U34DD6+rKt3bCEzXtzczzNKlyAl+4p242SZkl0s59g2Q/05wkXZU3odT4cp++B0oi+X5Rq7nSsa22NK3sUxscxzqNQL6zGQgWvPRf2q62KR+tHEcmyWWYqEjiKb5XyCMsRlKmTQqkxNdS/ReS8fLMdaHaXkKNH5pNpinH/UPvgY3wbkMfp7lS9qai/RcZF95ckg5RNtOcdrs4vOctr7LMixcVCHtLXiG4JkY+JdUCS3JmcHkmjZAaa4kIRNSWAnLTB2VHdxCTQzsynZjlObbNupm1iP8oaUt9TNo0wbXWB7N37++WV5M27eNO5i3W7K3nopu+OLuWJrcxEn01akj/pmfQyn5bpY+U0jrf0tuMFW2GNE3ceU67joc+QQ6i3egrqJOnQHKVvz7Ko4jn+qReq3wmc1tI1IzqJtpXUf6lhTysU7trUOU/bB8skol91Xdb6Kds40tscMW3fHSPtOUqeXlE6CvOvrYpH2wfnwr456maVI6UiRZeuiTKo851ruSd16xwV55NTdotMuG5FsxGb0Etmq2LS8tb4qZcgyLtLI9q+JdVnqUP9W4TMqN3G8sCff3rJk4Ei22+VE1w/kkmPjoAppa2v6j9pJn2769HxrR38E4MHRC2ayaQJQCewETBvYFFgmpmLPN2e09luH7n4/xJSNVUXZwP7wJdbPWgDQR4FVAvYO5oW0NaxJBgAAAAAA0uiF0hEgW2n02mGtX94AAAAAPFIQJAMAAAAAAAAkGND1l4aXNwAAAABLBIJkAAAAAAAAgATb9AYjCQEAAKwQCJIBAAAAAAAAAAAAgJUHQTIAAAAAAAAAAAAAsPKs/T34VCzj/5/t5/wJAAAAAAAAAAAAAIDl5uvXr/yJaG3E77r8dNOn51s7ZicAD82///5L3333HX8DIA3sBEwb2BRYJmDPACwXaNNglYC9g3khbQ3TLQEAAAAAAAAAAADAikP0/1oL4082eq9hAAAAAElFTkSuQmCC;" vertex="1" parent="1">
          <mxGeometry x="2400" y="600" width="985" height="88.45" as="geometry" />
        </mxCell>
      </root>
    </mxGraphModel>
  </diagram>
</mxfile>
